<svg id="Group_9718" xmlns="http://www.w3.org/2000/svg" width="100%" height="100%" viewBox="0 0 25.906 24.604">
  <path id="Path_11399" d="M586.05,393.773l-2.032-.993-8.871,4.671a3.287,3.287,0,0,1-3.062,0l-8.871-4.67-2.032.993a.923.923,0,0,0-.025,1.647l10.928,5.754a3.287,3.287,0,0,0,3.062,0l10.928-5.754a.923.923,0,0,0-.025-1.648Z" transform="translate(-560.663 -376.949)" fill="#fff" opacity="0.4"></path>
  <path id="Path_11400" d="M586.047,308.6l-2.012-.983-8.891,4.681a3.287,3.287,0,0,1-3.062,0l-8.891-4.681-2.012.983a.923.923,0,0,0-.025,1.647L572.081,316a3.287,3.287,0,0,0,3.063,0l10.928-5.753a.923.923,0,0,0-.025-1.647Z" transform="translate(-560.659 -295.5)" fill="#fff" opacity="0.6"></path>
  <path id="Path_3570_00000022524399146698099000000015618269424764638626_" d="M586.091,36.818l-10.928,5.753a3.287,3.287,0,0,1-3.062,0l-10.928-5.753a.924.924,0,0,1,.025-1.647L572.19,29.8a3.286,3.286,0,0,1,2.884,0l10.992,5.367a.924.924,0,0,1,.025,1.647Z" transform="translate(-560.679 -29.47)" fill="#fff"></path>
  <path id="Path_11401" d="M586.047,223.661l-2.01-.981-8.893,4.682a3.287,3.287,0,0,1-3.062,0l-8.893-4.682-2.01.981a.923.923,0,0,0-.025,1.647l10.928,5.753a3.287,3.287,0,0,0,3.063,0l10.928-5.753a.923.923,0,0,0-.025-1.647Z" transform="translate(-560.659 -214.261)" fill="#fff" opacity="0.8"></path>
</svg>