

<svg xmlns="http://www.w3.org/2000/svg" width="100%" viewBox="0 0 16.59 14.699" class="nav-dropdown-icon"><path id="Path_56909" data-name="Path 56909" d="M16.589,28.961a2.051,2.051,0,0,0-1.466-2.143l-4.387-1.383a2.233,2.233,0,0,0-2.313.6l-.121.131-.119-.131a2.209,2.209,0,0,0-1.632-.708,2.285,2.285,0,0,0-.681.105L1.484,26.815A2.046,2.046,0,0,0,.019,28.957L.31,32a2.116,2.116,0,0,0,2.136,1.8H2.7l-.366,4.067v.121A2.107,2.107,0,0,0,4.5,40.027H12.1a2.11,2.11,0,0,0,2.157-2.04v-.068l-.371-4.12h.26a2.118,2.118,0,0,0,2.145-1.814ZM14.722,31.8a.57.57,0,0,1-.578.5h0l-.051,0-1.923-.428.513,6.094a.57.57,0,0,1-.582.568H4.5a.567.567,0,0,1-.582-.55v-.018l.506-6.088-1.977.432h0a.569.569,0,0,1-.577-.488l-.293-3a.566.566,0,0,1,.4-.587l4.383-1.382a.606.606,0,0,1,.634.164,1.7,1.7,0,0,0,.156.149,1.827,1.827,0,0,0,1.26.406A1.768,1.768,0,0,0,9.6,27.015a.6.6,0,0,1,.636-.172l4.386,1.382a.562.562,0,0,1,.4.578Z" transform="translate(-0.01 -25.328)" fill="currentColor"></path></svg>