<svg xmlns="http://www.w3.org/2000/svg" width="100%" viewBox="0 0 16.256 16.208" class="nav-dropdown-icon"><g id="Group_32349" data-name="Group 32349" transform="translate(-377.129 -684)"><path id="Path_57221" data-name="Path 57221" d="M12.633,3.966h0A1.295,1.295,0,1,0,13.926,5.26a1.295,1.295,0,0,0-1.294-1.294" transform="translate(375.066 683.278)" fill="currentColor"></path><path id="Path_57222" data-name="Path 57222" d="M11.644,8.847A1.679,1.679,0,0,0,10.3,7.839a1.633,1.633,0,0,0-1.421.678l-.054.092L8.21,7.5a1.55,1.55,0,0,0-2.944.111L4.214,10.07A2.051,2.051,0,0,0,6.09,12.912h4.3a2.05,2.05,0,0,0,1.818-2.951Zm-1.257,2.674h-4.3a.649.649,0,0,1-.546-.3.622.622,0,0,1-.053-.6c.1-.173,1.093-2.7,1.238-2.755.133.033.2.157.247.274l.614,1.1A1.343,1.343,0,0,0,9.9,9.473l.1-.133a.322.322,0,0,1,.156-.119.3.3,0,0,1,.22.2l.582,1.161a.649.649,0,0,1-.575.937" transform="translate(376.394 682.82)" fill="currentColor"></path><path id="Path_57223" data-name="Path 57223" d="M18.52,15.362a.43.43,0,0,0-.325-.325v0L17.148,14.8a1.284,1.284,0,0,1-.416-.187,1.343,1.343,0,0,1-.29-.263,1.253,1.253,0,0,1-.093-.124c-.023-.035-.044-.071-.064-.109a1.321,1.321,0,0,1-.111-.291l-.238-1.048a.43.43,0,0,0-.839,0l-.239,1.048a1.289,1.289,0,0,1-.973.973l-1.048.238a.431.431,0,0,0-.311.564.435.435,0,0,0,.175.22.394.394,0,0,0,.136.056l1.048.239a1.281,1.281,0,0,1,.282.108,1.149,1.149,0,0,1,.112.062c.034.02.062.047.093.07a1.41,1.41,0,0,1,.255.258,1.263,1.263,0,0,1,.231.474l.239,1.048a.43.43,0,0,0,.839,0l.238-1.048a1.294,1.294,0,0,1,.973-.973l1.048-.239a.43.43,0,0,0,.325-.515" transform="translate(374.854 681.736)" fill="currentColor"></path><path id="Path_57224" data-name="Path 57224" d="M11.595,14.738l-.084-.054a.427.427,0,0,0-.1-.038l-1.03-.235a1.228,1.228,0,0,1-.393-.163,1.273,1.273,0,0,1-.506-.632v-.007H4.1A2.711,2.711,0,0,1,1.39,10.9V4.1A2.711,2.711,0,0,1,4.1,1.391h6.8A2.71,2.71,0,0,1,13.609,4.1V9.423a1.243,1.243,0,0,1,.85.91L14.7,11.38a.472.472,0,0,0,.039.1l.064.091a.5.5,0,0,0,.114.1l.007,0A4.131,4.131,0,0,0,15,10.9V4.1A4.1,4.1,0,0,0,10.9,0H4.1A4.1,4.1,0,0,0,0,4.1v6.8A4.1,4.1,0,0,0,4.1,15h6.8a4.091,4.091,0,0,0,.837-.088.56.56,0,0,0-.032-.062.6.6,0,0,0-.111-.112" transform="translate(377.129 684)" fill="currentColor"></path></g></svg>