<svg xmlns="http://www.w3.org/2000/svg" width="100%" viewBox="0 0 16 16" class="nav-dropdown-icon"><path id="Path_56930" data-name="Path 56930" d="M16.008,75.126a1.927,1.927,0,0,0-1.172-1.713V73.4a1.83,1.83,0,0,0,.922-2.611,2.08,2.08,0,0,0-.922-.815l-5.6-2.606a2.984,2.984,0,0,0-2.471,0l-5.6,2.608a1.835,1.835,0,0,0-.908,2.624,2.1,2.1,0,0,0,.908.8h.008l-.008.007a1.835,1.835,0,0,0-.908,2.624,2.1,2.1,0,0,0,.908.8l.031.014-.031.014a1.835,1.835,0,0,0-.908,2.624,2.1,2.1,0,0,0,.908.8l5.356,2.488a3.538,3.538,0,0,0,2.958,0l5.348-2.488a1.83,1.83,0,0,0,.922-2.611,2.08,2.08,0,0,0-.922-.815l-.032-.014.032-.014a1.929,1.929,0,0,0,1.172-1.713M1.923,72.159a.494.494,0,0,1-.258-.7.564.564,0,0,1,.258-.228L7.51,68.62A1.221,1.221,0,0,1,8,68.514a1.188,1.188,0,0,1,.494.106l5.6,2.608a.5.5,0,0,1,.248.711.564.564,0,0,1-.248.219l-.98.458-1.714.8-2,.928-.653.3A1.8,1.8,0,0,1,8,74.806a1.759,1.759,0,0,1-.733-.162l-.662-.31-2-.929-1.715-.8Zm12.171,5.956a.5.5,0,0,1,.248.711.564.564,0,0,1-.248.219L8.746,81.533a1.8,1.8,0,0,1-.741.162,1.763,1.763,0,0,1-.733-.162L1.923,79.045a.494.494,0,0,1-.258-.7.564.564,0,0,1,.258-.228l1-.465L6.53,79.328a3.538,3.538,0,0,0,2.958,0l3.6-1.678ZM11.38,76.853,8.746,78.079a1.8,1.8,0,0,1-.741.162,1.763,1.763,0,0,1-.733-.162L4.633,76.853l-1.714-.8-1-.465a.494.494,0,0,1-.258-.7.564.564,0,0,1,.258-.228l.972-.451,2,.923,1.634.761a.458.458,0,0,0,.089.035,3.5,3.5,0,0,0,2.782,0,.449.449,0,0,0,.088-.035l1.626-.754,2-.932.98.458a.5.5,0,0,1,.248.711.564.564,0,0,1-.248.219l-1,.465Z" transform="translate(-0.008 -67.105)" fill="brDarkBlue"></path></svg>