<svg xmlns="http://www.w3.org/2000/svg" width="100%" viewBox="0 0 16.002 13.91" class="nav-dropdown-icon"><path id="Path_56908" data-name="Path 56908" d="M12.662,100.906H12c.018-.2.028-.417.028-.644a3.172,3.172,0,0,0-2.973-3.34h0a1.9,1.9,0,0,0-1.735.96,3.675,3.675,0,0,0-.367,1.89c0,.391-.5.982-1.285,1.5l-.395.263a2.208,2.208,0,0,0-1.817-.958H2.219A2.212,2.212,0,0,0,.008,102.79v5.7A2.212,2.212,0,0,0,2.219,110.7h1.24a2.2,2.2,0,0,0,1.919-1.137l.474.22a12.955,12.955,0,0,0,5.449,1.041h.8a3.337,3.337,0,0,0,3.3-2.773l.561-3.239a3.42,3.42,0,0,0,.048-.571,3.342,3.342,0,0,0-3.348-3.336M4.327,108.49a.87.87,0,0,1-.868.868H2.219a.87.87,0,0,1-.868-.868v-5.7a.87.87,0,0,1,.868-.868h1.24a.87.87,0,0,1,.868.868Zm10.3-3.9-.559,3.238a1.992,1.992,0,0,1-1.967,1.654h-.8a11.651,11.651,0,0,1-4.882-.916v-6.17c.739-.49,1.887-1.443,1.887-2.626,0-1.245.249-1.494.749-1.494a1.83,1.83,0,0,1,1.622,1.991,4.794,4.794,0,0,1-.374,1.992h2.358a2.036,2.036,0,0,1,.34.029,1.992,1.992,0,0,1,1.626,2.3" transform="translate(-0.008 -96.92)" fill="currentColor"></path></svg>