<svg xmlns="http://www.w3.org/2000/svg" width="100%" viewBox="0 0 15.241 14.918" class="nav-dropdown-icon"><g id="Group_31992" data-name="Group 31992" transform="translate(24369 21864.983)"><path id="Path_56936" data-name="Path 56936" d="M15.241,178.9v-8.082a1.5,1.5,0,0,0-1.5-1.5H1.5a1.5,1.5,0,0,0-1.5,1.5V178.9a1.5,1.5,0,0,0,.9,1.372l1.039.04-.023.1a.966.966,0,0,0,.1.7,5.934,5.934,0,0,0,.376.555,5.474,5.474,0,0,0,.656.744c.193.185.4.364.648.562a6.419,6.419,0,0,0,7.658,0,6.174,6.174,0,0,0,.641-.558,6.341,6.341,0,0,0,.641-.723A5.3,5.3,0,0,0,13,181.16a.923.923,0,0,0,.166-.708l-.018-.1,1.047-.031a1.488,1.488,0,0,0,1.044-1.42m-3.551,1.734c-.015.023-.029.044-.045.066h0l-.095.145a5.216,5.216,0,0,1-.517.582,4.862,4.862,0,0,1-.5.434,5.039,5.039,0,0,1-6,.014,7.023,7.023,0,0,1-.533-.466,4.167,4.167,0,0,1-.5-.572c-.049-.064-.092-.122-.132-.182l-.041-.062.133-.222a2.761,2.761,0,0,1,.288-.351,1.648,1.648,0,0,1,.158-.162,2.922,2.922,0,0,1,.269-.22c.061-.043.105-.074.146-.1a2.773,2.773,0,0,1,.393-.208l.073-.036a3.042,3.042,0,0,1,.545-.159l.049-.01.04.028a3.728,3.728,0,0,0,4.227,0l.04-.027.049.009a2.81,2.81,0,0,1,.526.154.461.461,0,0,1,.068.032l.039.018a2.935,2.935,0,0,1,.381.2c.032.02.061.042.09.063l.037.028a2.983,2.983,0,0,1,.3.244c.049.048.1.1.142.146a2.989,2.989,0,0,1,.294.365c.027.039.055.081.08.123l.038.064Zm-6.333-5.29a2.191,2.191,0,0,1,2.187-2.187h0a2.187,2.187,0,1,1-2.19,2.187m8.505,3.674H12.283l-.06-.06a4.581,4.581,0,0,0-.382-.341l-.03-.021c-.018-.012-.036-.025-.052-.038-.109-.08-.227-.16-.348-.234l-.071-.039-.064-.035c-.119-.067-.243-.129-.367-.184l-.094-.041a4.24,4.24,0,0,0-.506-.171l-.181-.049.122-.143a3.566,3.566,0,0,0-2.708-5.884h0a3.568,3.568,0,0,0-2.709,5.884l.122.143-.181.048a4.232,4.232,0,0,0-.492.164l-.12.051c-.122.054-.241.113-.359.178l-.122.069a4.022,4.022,0,0,0-.413.277,4.13,4.13,0,0,0-.418.369l-.034.035-.075.022H1.379V170.7H13.862Z" transform="translate(-24369 -22034.303)" fill="currentColor"></path></g></svg>