<svg xmlns="http://www.w3.org/2000/svg" width="100%" viewBox="0 0 16 16" class="nav-dropdown-icon"><g id="Group_31989" data-name="Group 31989" transform="translate(24117 21919.32)"><path id="Path_56931" data-name="Path 56931" d="M10.517,53.382,6.943,51.205a.6.6,0,0,0-.605-.012l0,0a.592.592,0,0,0-.3.517v4.36a.6.6,0,0,0,.908.5l3.567-2.18a.6.6,0,0,0,0-1.016" transform="translate(-24117.008 -21965.215)" ></path><path id="Path_56932" data-name="Path 56932" d="M8.008,45.894a8,8,0,1,0,8,8,7.948,7.948,0,0,0-8-8m0,14.459a6.459,6.459,0,1,1,6.459-6.459,6.459,6.459,0,0,1-6.459,6.459" transform="translate(-24117.008 -21965.215)" fill="currentColor"></path></g></svg>