<svg xmlns="http://www.w3.org/2000/svg" width="100%" viewBox="0 0 16.393 16" class="nav-dropdown-icon"><g id="Group_31988" data-name="Group 31988" transform="translate(24117 21965.215)"><path id="Path_56910" data-name="Path 56910" d="M.012,15.9h0Z" transform="translate(-24117.008 -21965.215)" ></path><path id="Path_56911" data-name="Path 56911" d="M.012,16h0v-.2Z" transform="translate(-24117.008 -21965.215)" ></path><path id="Path_56912" data-name="Path 56912" d="M13.839.014h0C13.673,0,13.5,0,13.34,0A10.442,10.442,0,0,0,6.171,3.033l-.628.607h-1a2.481,2.481,0,0,0-2.03,1.186l-.031.048L1.462,6.868a2.307,2.307,0,0,0-.132.51l-.016.113v.1a1.931,1.931,0,0,0,1.7,1.851l.06.008.023.053a1.42,1.42,0,0,0,.092.172l.126.221-.172,0a2.989,2.989,0,0,0-2.052.833A3.782,3.782,0,0,0,.035,13.2,6.2,6.2,0,0,0,.042,14.43,1.569,1.569,0,0,0,1.35,15.78l.133.022h.141a2.33,2.33,0,0,0,.692-.1l.033-.01.032.011a1.627,1.627,0,0,0,.728.061A3.92,3.92,0,0,0,5.3,14.78,2.789,2.789,0,0,0,6.159,12.8l0-.164.15.077c.028.014.055.03.082.045a1.451,1.451,0,0,0,.153.076l.056.022.008.057a1.953,1.953,0,0,0,1.922,1.638H8.65l.1-.014a2.534,2.534,0,0,0,.529-.128l.081-.029,2.037-.986a2.367,2.367,0,0,0,1.231-1.969v-.956l.629-.6A10.656,10.656,0,0,0,15.7,6.345a8.754,8.754,0,0,0,.688-3.87A2.618,2.618,0,0,0,13.839.014M4.33,13.853l0,0a2.577,2.577,0,0,1-1.429.605.218.218,0,0,1-.2-.094.848.848,0,0,1-.118-.561.058.058,0,0,0-.025-.054.055.055,0,0,0-.044-.009.051.051,0,0,0-.037.023.774.774,0,0,0-.1.21.776.776,0,0,1-.734.512H1.611A.228.228,0,0,1,1.4,14.3a5.067,5.067,0,0,1-.008-.985,2.63,2.63,0,0,1,.66-1.649l.035-.034a1.653,1.653,0,0,1,2.274.029,1.51,1.51,0,0,1-.031,2.19m7.936-4.941-.505.487c-.172.165-.351.325-.531.475v1.493a1.049,1.049,0,0,1-.547.871l-1.883.9a1.1,1.1,0,0,1-.239.06.556.556,0,0,1-.576-.538v-1.01a1.489,1.489,0,0,1-1.321-.329l-2-1.935a1.362,1.362,0,0,1-.343-1.277H3.273a.559.559,0,0,1-.562-.539.971.971,0,0,1,.059-.236l.938-1.819a1.1,1.1,0,0,1,.9-.532H6.158c.156-.175.322-.346.493-.512l.507-.488a9.027,9.027,0,0,1,6.18-2.637h.026l0,0c.13,0,.26,0,.389.012A1.254,1.254,0,0,1,15,2.558a8.354,8.354,0,0,1-2.73,6.354" transform="translate(-24117.008 -21965.215)" ></path><path id="Path_56913" data-name="Path 56913" d="M11.087,3.666h0A1.486,1.486,0,0,0,9.575,5.124,1.487,1.487,0,0,0,11.087,6.58h0a1.547,1.547,0,0,0,1.066-.427A1.439,1.439,0,0,0,12.6,5.122a1.487,1.487,0,0,0-1.512-1.456" transform="translate(-24117.008 -21965.215)" fill="currentColor"></path></g></svg>