<svg xmlns="http://www.w3.org/2000/svg" width="100%" viewBox="0 0 15.264 15.264" class="nav-dropdown-icon"><path id="Path_56907" data-name="Path 56907" d="M4.932,116.852a3.077,3.077,0,0,0-3.077,3.076v6.154a3.077,3.077,0,0,0,3.077,3.076h6.153a3.076,3.076,0,0,0,3.077-3.076v-6.154a3.076,3.076,0,0,0-3.077-3.076Zm5.505,5.111a.341.341,0,0,1-.245-.1l-.591-.591H8.708v3.673l.591.591a.348.348,0,0,1,0,.491.344.344,0,0,1-.242.1H6.968a.346.346,0,0,1-.245-.591l.591-.591v-3.673h-.9l-.591.591a.346.346,0,0,1-.491,0,.342.342,0,0,1-.1-.242V120.23a.347.347,0,0,1,.347-.347h4.859a.347.347,0,0,1,.345.347v1.387a.346.346,0,0,1-.346.346m-5.505-6.59h6.153a4.561,4.561,0,0,1,4.555,4.555v6.154a4.561,4.561,0,0,1-4.555,4.555H4.932a4.56,4.56,0,0,1-4.556-4.555v-6.154a4.561,4.561,0,0,1,4.556-4.555" transform="translate(-0.376 -115.373)" fill="currentColor"></path></svg>