<svg xmlns="http://www.w3.org/2000/svg" width="100%" viewBox="0 0 15.779 15.555" class="nav-dropdown-icon"><g id="Group_31991" data-name="Group 31991" transform="translate(24369 21896.102)"><path id="Path_56933" data-name="Path 56933" d="M5.829,143.819v4.3a.591.591,0,0,0,.9.5l3.521-2.151a.593.593,0,0,0,0-1l-3.528-2.151a.6.6,0,0,0-.6-.012l0,0a.585.585,0,0,0-.3.511" transform="translate(-24369 -22034.303)"   ></path><path id="Path_56934" data-name="Path 56934" d="M15.77,150.54a.4.4,0,0,0-.3-.3l0-.007-.971-.224a1.206,1.206,0,0,1-.387-.174,1.263,1.263,0,0,1-.269-.247,1.236,1.236,0,0,1-.087-.115c-.02-.033-.041-.066-.059-.1a1.228,1.228,0,0,1-.1-.27l-.224-.971a.4.4,0,0,0-.781,0l-.224.971a1.2,1.2,0,0,1-.905.9l-.971.224a.4.4,0,0,0-.311.394.381.381,0,0,0,.022.134.4.4,0,0,0,.163.205.389.389,0,0,0,.126.053l.971.224a1.452,1.452,0,0,1,.369.158c.032.02.058.045.087.066a1.308,1.308,0,0,1,.236.24,1.184,1.184,0,0,1,.214.441l.224.971a.4.4,0,0,0,.781,0l.224-.971a1.2,1.2,0,0,1,.9-.9l.971-.223a.4.4,0,0,0,.3-.479" transform="translate(-24369 -22034.303)"   ></path><path id="Path_56935" data-name="Path 56935" d="M11.191,152.327a.371.371,0,0,0-.047-.016l-.926-.213a1.5,1.5,0,0,1-.435-.176,6.326,6.326,0,1,1,4.175-4.864,1.505,1.505,0,0,1,.493.813l.23.972.056.059.226.053a7.778,7.778,0,1,0-3.6,3.924l-.116-.5Z" transform="translate(-24369 -22034.303)" fill="currentColor"></path></g></svg>