<svg xmlns="http://www.w3.org/2000/svg" width="157.487" height="33.21" viewBox="0 0 157.487 33.21">
  <g id="AdCreative" transform="translate(0 -220.712)">
    <g id="Group_4_00000132789768262851372880000001265437830197497743_" transform="translate(40.253 228.834)">
      <g id="Group_1_00000162344572098529837090000005309863954205815430_" transform="translate(0 0)">
        <path id="Path_2_00000078739612845345381840000010264491996735662232_" d="M270.671,512.77V529.4h-2.283v-1.461l-.071-.049a.659.659,0,0,1-.066.133,4.5,4.5,0,0,1-7.329-.355,5.878,5.878,0,0,1,.541-7.289,4.46,4.46,0,0,1,6.3-.215q.158.147.3.309l.311.342v-8.04Zm-5.348,14.662a3.087,3.087,0,1,0-3.114-3.06v.019a3.1,3.1,0,0,0,3.114,3.041Z" transform="translate(-245.867 -512.77)" fill="#170c45"></path>
        <path id="Path_3_00000004508948911347000330000000437009650605690763_" d="M28.328,536.71c2.367,5.091,4.717,10.145,7.076,15.231H34.067c-.431,0-.858,0-1.289,0a.21.21,0,0,1-.232-.151c-.324-.72-.662-1.435-.986-2.159a.261.261,0,0,0-.279-.177q-2.964.007-5.93,0a.279.279,0,0,0-.3.191q-.479,1.073-.982,2.132c-.031.066-.115.151-.173.151-.879.009-1.759.009-2.678.009C23.593,546.859,25.952,541.809,28.328,536.71ZM30.3,546.952l-1.967-4.286-1.99,4.286Z" transform="translate(-21.22 -535.302)" fill="#170c45"></path>
      </g>
      <g id="Group_2_00000173845967124572718460000005969622017738285467_" transform="translate(26.213 1.417)">
        <path id="Path_4_00000000203094416466780310000001623024455502157245_" d="M378.393,533.64c-.582.6-1.155,1.2-1.727,1.8a5.265,5.265,0,0,0-7.64,7.24,5.077,5.077,0,0,0,3.775,1.755,5.16,5.16,0,0,0,3.864-1.528L378.4,544.7a7.767,7.767,0,1,1-.346-11.373q.174.152.338.313h0Z" transform="translate(-365.176 -531.406)" fill="#170c45"></path>
        <path id="Path_5_00000145027013808169736290000012555142063742220704_" d="M892.9,623.046h-2.279v-1.46l-.044-.022c-.049.058-.1.111-.147.169a4.424,4.424,0,0,1-3.824,1.634,4.329,4.329,0,0,1-3.131-1.648,5.687,5.687,0,0,1-.893-5.96,4.776,4.776,0,0,1,2.79-2.847,4.443,4.443,0,0,1,4.939,1.222c.089.1.178.2.3.338v-1.523h2.292v10.1Zm-5.41-1.963a3.068,3.068,0,1,0-.016,0Z" transform="translate(-851.717 -607.838)" fill="#170c45"></path>
        <path id="Path_7_00000104687471719789338510000008851401199222755749_" d="M699.117,618.845h-7.711c.049.111.075.2.12.28a3.391,3.391,0,0,0,2.51,1.755,3.926,3.926,0,0,0,3.522-1l1.59,1.657a5.71,5.71,0,0,1-1.6,1.11,6.323,6.323,0,0,1-7.018-1.062,5,5,0,0,1-1.443-5.095,5.076,5.076,0,0,1,9.638-.879A5.65,5.65,0,0,1,699.117,618.845Zm-2.4-1.971a2.737,2.737,0,0,0-5.321,0Z" transform="translate(-669.856 -607.711)" fill="#170c45"></path>
        <path id="Path_8_00000139996582035586428130000017310912645939538878_" d="M1439.12,618.906c.767,2.154,4.161,2.931,6.129,1.035.524.546,1.047,1.1,1.59,1.657a5.394,5.394,0,0,1-1.319.964,6.343,6.343,0,0,1-7.489-1.106,5.336,5.336,0,0,1,2.416-8.745,5.1,5.1,0,0,1,5.969,2.95,5.588,5.588,0,0,1,.4,3.149c0,.026-.013.054-.022.1h-7.678Zm-.04-1.972h5.335a2.748,2.748,0,0,0-5.335,0Z" transform="translate(-1373.58 -607.776)" fill="#170c45"></path>
        <path id="Path_9_00000176029137813935734420000002077786726504127629_" d="M1278.285,617.887c-1.79,3.505-3.562,6.959-5.348,10.456l-5.348-10.456h.52c.591,0,1.186.009,1.777,0a.388.388,0,0,1,.422.253c.825,1.63,1.666,3.251,2.5,4.871.035.071.076.138.129.235.049-.094.089-.16.125-.232q1.265-2.465,2.531-4.93a.309.309,0,0,1,.32-.2C1276.69,617.891,1277.463,617.887,1278.285,617.887Z" transform="translate(-1214.513 -612.793)" fill="#170c45"></path>
        <path id="Path_10_00000066474534919719563450000012175202433220353168_" d="M1086.9,572.839h-2.3v-7.8h-2.184v-2.3h2.181v-1.11c0-.346,0-.7,0-1.044a.251.251,0,0,1,.094-.2c.715-.369,1.434-.728,2.191-1.11v3.451h2.407v2.3H1086.9Z" transform="translate(-1040.234 -557.631)" fill="#170c45"></path>
        <path id="Path_11_00000037688886255101197990000004404262860908671645_" d="M608.341,615.022a2.442,2.442,0,0,0-1.9.361,2.407,2.407,0,0,0-1.062,2.1V623.1H603.1v-10.1h2.266v1.031l.049.035a4.145,4.145,0,0,1,1.306-1.017,3.54,3.54,0,0,1,1.621-.378Z" transform="translate(-589.106 -607.898)" fill="#170c45"></path>
        <path id="Path_12_00000100362953822341161380000011844199709609085836_" d="M1216.31,618.24h2.266v10.1h-2.266Z" transform="translate(-1166.249 -613.133)" fill="#170c45"></path>
        <path id="Path_15_00000171000788387766346700000006062068342533316240_" d="M1215.182,535.638a1.361,1.361,0,1,1-1.354-1.368h.018A1.356,1.356,0,0,1,1215.182,535.638Z" transform="translate(-1162.625 -534.101)" fill="#170c45"></path>
      </g>
      <g id="Group_3_00000035494149311762114530000010873231162142002367_" transform="translate(100.876 2.283)">
        <path id="Path_40_00000006708562785701622400000002616327845336055997_" d="M1389.527,613.987a13.33,13.33,0,0,1-1.1,1.381,4.943,4.943,0,0,1-7.662-.791,5.59,5.59,0,0,1,.471-6.858,4.984,4.984,0,0,1,8.137,1.031.578.578,0,0,0,.142.186V606.4h1.065v10.091h-1.048v-2.5h0Zm-4.33,1.772a4.319,4.319,0,1,0-4.321-4.318h0A4.32,4.32,0,0,0,1385.2,615.759Z" transform="translate(-1377.757 -602.336)" fill="#170c45"></path>
        <path id="Path_45_00000106110365583942194940000018402195128955800232_" d="M1599.044,621.864h-.9c-.045,0-.084,0-.142-.009V611.75h1.039v10.114Z" transform="translate(-1583.116 -607.69)" fill="#170c45"></path>
        <path id="Path_46_00000047783154692966807830000015260186448207110332_" d="M1345.887,759.257a.961.961,0,0,1-.937-.933.939.939,0,1,1,1.878.009A.95.95,0,0,1,1345.887,759.257Z" transform="translate(-1344.95 -744.764)" fill="#170c45"></path>
        <path id="Path_48_00000057141410596888519080000008937362415262578607_" d="M1592.067,542.73a.932.932,0,1,1-.938.928A.935.935,0,0,1,1592.067,542.73Z" transform="translate(-1576.65 -542.73)" fill="#170c45"></path>
      </g>
    </g>
    <g id="Group_9718" transform="translate(0 220.712)">
      <path id="Path_11399" d="M594.93,394.12l-2.743-1.34-11.974,6.3a4.437,4.437,0,0,1-4.134,0l-11.974-6.3-2.743,1.34a1.246,1.246,0,0,0-.034,2.223l14.751,7.766a4.437,4.437,0,0,0,4.134,0l14.75-7.766a1.246,1.246,0,0,0-.033-2.224Z" transform="translate(-560.663 -371.411)" fill="#170c45" opacity="0.4"></path>
      <path id="Path_11400" d="M594.927,308.946l-2.716-1.326-12,6.319a4.437,4.437,0,0,1-4.134,0l-12-6.319-2.716,1.326a1.246,1.246,0,0,0-.034,2.223l14.751,7.766a4.437,4.437,0,0,0,4.134,0l14.751-7.766a1.246,1.246,0,0,0-.033-2.223Z" transform="translate(-560.659 -291.26)" fill="#170c45" opacity="0.6"></path>
      <path id="Path_3570_00000022524399146698099000000015618269424764638626_" d="M594.98,39.388l-14.751,7.766a4.437,4.437,0,0,1-4.134,0l-14.751-7.766a1.247,1.247,0,0,1,.034-2.223l14.836-7.245a4.435,4.435,0,0,1,3.893,0l14.837,7.245a1.247,1.247,0,0,1,.034,2.223Z" transform="translate(-560.678 -29.47)" fill="#170c45"></path>
      <path id="Path_11401" d="M594.927,224l-2.713-1.325-12,6.32a4.436,4.436,0,0,1-4.134,0l-12-6.32L561.359,224a1.246,1.246,0,0,0-.034,2.223l14.751,7.765a4.436,4.436,0,0,0,4.134,0l14.75-7.765a1.246,1.246,0,0,0-.033-2.223Z" transform="translate(-560.659 -211.316)" fill="#170c45" opacity="0.8"></path>
    </g>
  </g>
</svg>