<svg xmlns="http://www.w3.org/2000/svg" width="83.772" height="48.232" viewBox="0 0 83.772 48.232">
  <g id="Group_26584" data-name="Group 26584" transform="translate(3524 24306.001)">
    <rect id="Rectangle_12408" data-name="Rectangle 12408" width="83.773" height="48.232" transform="translate(-3524 -24306)" fill="none"/>
    <g id="Amazon_logo" transform="translate(-3519 -24293)">
      <path id="path8" d="M120.488,119.246c-4.287,3.16-10.5,4.846-15.851,4.846A28.682,28.682,0,0,1,85.273,116.7c-.4-.363-.042-.857.44-.575a38.972,38.972,0,0,0,19.374,5.138,38.524,38.524,0,0,0,14.778-3.022c.726-.308,1.333.475.623,1" transform="translate(-74.721 -101.86)" fill="#574977"/>
      <path id="path10" d="M350.162,111.683c-.546-.7-3.622-.331-5-.167-.421.051-.485-.315-.106-.578,2.45-1.724,6.471-1.227,6.94-.649s-.122,4.612-2.425,6.535c-.353.3-.69.138-.533-.254.517-1.291,1.676-4.184,1.127-4.888" transform="translate(-302.613 -96.336)" fill="#574977"/>
      <path id="path12" d="M345.438,5.02V3.344a.414.414,0,0,1,.424-.424h7.5a.418.418,0,0,1,.434.424V4.78a2.361,2.361,0,0,1-.565,1.053l-3.889,5.552a8.286,8.286,0,0,1,4.281.918.764.764,0,0,1,.4.652v1.789c0,.244-.27.53-.552.382a8.645,8.645,0,0,0-7.929.013c-.26.141-.533-.141-.533-.385v-1.7a2.028,2.028,0,0,1,.276-1.153l4.505-6.461h-3.921a.415.415,0,0,1-.434-.421" transform="translate(-302.795 -2.593)" fill="#574977"/>
      <path id="path14" d="M105.72,13.938h-2.283a.431.431,0,0,1-.408-.389V1.832a.429.429,0,0,1,.44-.421H105.6a.43.43,0,0,1,.414.392V3.335h.042a3.137,3.137,0,0,1,5.97,0,3.372,3.372,0,0,1,5.8-.89c.723.986.575,2.418.575,3.674l0,7.4a.431.431,0,0,1-.44.424h-2.28a.434.434,0,0,1-.411-.424V7.3a14.669,14.669,0,0,0-.064-2.2A1.189,1.189,0,0,0,113.854,4.1a1.517,1.517,0,0,0-1.365.96,7.094,7.094,0,0,0-.212,2.245v6.211a.431.431,0,0,1-.44.424h-2.28a.432.432,0,0,1-.411-.424l0-6.211c0-1.307.215-3.231-1.407-3.231-1.641,0-1.577,1.875-1.577,3.231v6.211a.431.431,0,0,1-.44.424" transform="translate(-90.454 -1.051)" fill="#574977"/>
      <path id="path16" d="M432.706,1.164c3.388,0,5.222,2.909,5.222,6.609,0,3.574-2.026,6.41-5.222,6.41-3.327,0-5.138-2.909-5.138-6.535,0-3.648,1.834-6.484,5.138-6.484m.019,2.392c-1.683,0-1.789,2.293-1.789,3.722s-.022,4.489,1.769,4.489c1.769,0,1.853-2.466,1.853-3.969a10.833,10.833,0,0,0-.34-3.109,1.428,1.428,0,0,0-1.493-1.134" transform="translate(-375.24 -1.051)" fill="#574977"/>
      <path id="path18" d="M528.752,13.938h-2.273a.434.434,0,0,1-.411-.424l0-11.721a.432.432,0,0,1,.44-.382h2.116a.437.437,0,0,1,.408.328V3.53h.042c.639-1.6,1.535-2.367,3.112-2.367a3,3,0,0,1,2.665,1.381,7.447,7.447,0,0,1,.6,3.648v7.376a.439.439,0,0,1-.44.369h-2.29a.432.432,0,0,1-.4-.369V7.2c0-1.281.148-3.157-1.429-3.157a1.492,1.492,0,0,0-1.32.938A5.188,5.188,0,0,0,529.2,7.2v6.31a.439.439,0,0,1-.446.424" transform="translate(-461.672 -1.051)" fill="#574977"/>
      <path id="use28" d="M7.092,7.536V7.041c-1.651,0-3.394.353-3.394,2.3,0,.986.511,1.654,1.387,1.654a1.851,1.851,0,0,0,1.58-1.037,4.467,4.467,0,0,0,.427-2.421m2.3,5.565a.477.477,0,0,1-.539.055,5.622,5.622,0,0,1-1.31-1.522,4.517,4.517,0,0,1-3.764,1.66A3.24,3.24,0,0,1,.364,9.736,3.88,3.88,0,0,1,2.8,6a15.82,15.82,0,0,1,4.293-.793v-.3a2.938,2.938,0,0,0-.276-1.654,1.528,1.528,0,0,0-1.281-.594A1.74,1.74,0,0,0,3.7,4.039a.478.478,0,0,1-.395.417L1.087,4.218a.4.4,0,0,1-.34-.478C1.257,1.055,3.681.246,5.852.246A5.176,5.176,0,0,1,9.291,1.383C10.4,2.42,10.3,3.8,10.3,5.31V8.869a3.123,3.123,0,0,0,.861,2.116.429.429,0,0,1-.006.607c-.466.389-1.294,1.111-1.75,1.516L9.394,13.1" transform="translate(29.568 -0.246)" fill="#574977"/>
      <path id="path30" d="M7.092,7.536V7.041c-1.651,0-3.394.353-3.394,2.3,0,.986.511,1.654,1.387,1.654a1.851,1.851,0,0,0,1.58-1.037,4.467,4.467,0,0,0,.427-2.421m2.3,5.565a.477.477,0,0,1-.539.055,5.622,5.622,0,0,1-1.31-1.522,4.517,4.517,0,0,1-3.764,1.66A3.24,3.24,0,0,1,.364,9.736,3.88,3.88,0,0,1,2.8,6a15.82,15.82,0,0,1,4.293-.793v-.3a2.938,2.938,0,0,0-.276-1.654,1.528,1.528,0,0,0-1.281-.594A1.74,1.74,0,0,0,3.7,4.039a.478.478,0,0,1-.395.417L1.087,4.218a.4.4,0,0,1-.34-.478C1.257,1.055,3.681.246,5.852.246A5.176,5.176,0,0,1,9.291,1.383C10.4,2.42,10.3,3.8,10.3,5.31V8.869a3.123,3.123,0,0,0,.861,2.116.429.429,0,0,1-.006.607c-.466.389-1.294,1.111-1.75,1.516L9.394,13.1" transform="translate(-0.364 -0.246)" fill="#574977"/>
    </g>
  </g>
</svg>
