<svg xmlns="http://www.w3.org/2000/svg" width="56.988" height="48.1" viewBox="0 0 56.988 48.1">
  <g id="Group_26581" data-name="Group 26581" transform="translate(3878.999 24306)">
    <rect id="Rectangle_12407" data-name="Rectangle 12407" width="56.988" height="48.099" transform="translate(-3878.999 -24306)" fill="none"/>
    <g id="Amazon_Web_Services_Logo" transform="translate(-3873.999 -24296)">
      <path id="Path_54914" data-name="Path 54914" d="M25.4,11.305a4.729,4.729,0,0,0,.172,1.391,8.365,8.365,0,0,0,.5,1.125.68.68,0,0,1,.109.359.619.619,0,0,1-.3.469l-.985.656a.749.749,0,0,1-.406.141.719.719,0,0,1-.469-.219,4.835,4.835,0,0,1-.563-.735c-.156-.266-.313-.563-.484-.922a5.773,5.773,0,0,1-4.595,2.157A4.282,4.282,0,0,1,15.256,14.6a4.015,4.015,0,0,1-1.156-3,4.023,4.023,0,0,1,1.422-3.219,5.685,5.685,0,0,1,3.829-1.219,12.373,12.373,0,0,1,1.657.125c.578.078,1.172.2,1.8.344V6.492a3.463,3.463,0,0,0-.735-2.5,3.6,3.6,0,0,0-2.547-.719,7.11,7.11,0,0,0-1.688.2,12.452,12.452,0,0,0-1.688.531,4.484,4.484,0,0,1-.547.2.959.959,0,0,1-.25.047c-.219,0-.328-.156-.328-.484V3.007a.989.989,0,0,1,.109-.547,1.17,1.17,0,0,1,.438-.328,9,9,0,0,1,1.969-.7,9.475,9.475,0,0,1,2.438-.3A5.711,5.711,0,0,1,24.071,2.4a5.172,5.172,0,0,1,1.3,3.845v5.064Zm-6.345,2.375a5.065,5.065,0,0,0,1.61-.281,3.482,3.482,0,0,0,1.485-1,2.481,2.481,0,0,0,.531-1,5.611,5.611,0,0,0,.156-1.36V9.383A13.05,13.05,0,0,0,21.4,9.117a11.775,11.775,0,0,0-1.469-.094,3.6,3.6,0,0,0-2.329.625,2.178,2.178,0,0,0-.766,1.8,2.016,2.016,0,0,0,2.219,2.235ZM31.6,15.369a.872.872,0,0,1-.594-.156,1.274,1.274,0,0,1-.328-.609L27.009,2.522a2.738,2.738,0,0,1-.141-.625.343.343,0,0,1,.375-.391h1.532a.866.866,0,0,1,.609.156,1.279,1.279,0,0,1,.313.609l2.625,10.346L34.76,2.272a1.1,1.1,0,0,1,.3-.609,1.075,1.075,0,0,1,.625-.156h1.25a.94.94,0,0,1,.625.156,1.053,1.053,0,0,1,.3.609l2.469,10.471,2.7-10.471a1.34,1.34,0,0,1,.313-.609,1.02,1.02,0,0,1,.609-.156H45.4a.347.347,0,0,1,.391.391,1.559,1.559,0,0,1-.031.25,2.224,2.224,0,0,1-.109.391L41.886,14.618a1.2,1.2,0,0,1-.328.609,1,1,0,0,1-.594.156H39.62A.94.94,0,0,1,39,15.228a1.108,1.108,0,0,1-.3-.625L36.276,4.523,33.869,14.587a1.22,1.22,0,0,1-.3.625.969.969,0,0,1-.625.156Zm20.082.422a10.341,10.341,0,0,1-2.407-.281,7.109,7.109,0,0,1-1.8-.625A1.126,1.126,0,0,1,47,14.446a1.1,1.1,0,0,1-.094-.438v-.8c0-.328.125-.484.359-.484a.885.885,0,0,1,.281.047c.094.031.234.094.391.156a8.5,8.5,0,0,0,1.719.547,9.385,9.385,0,0,0,1.86.188,4.216,4.216,0,0,0,2.282-.516,1.683,1.683,0,0,0,.813-1.485,1.522,1.522,0,0,0-.422-1.094,3.921,3.921,0,0,0-1.578-.813l-2.266-.7a4.767,4.767,0,0,1-2.5-1.594,3.724,3.724,0,0,1-.781-2.266,3.478,3.478,0,0,1,.422-1.735,4.018,4.018,0,0,1,1.125-1.282,4.96,4.96,0,0,1,1.625-.813A6.811,6.811,0,0,1,52.2,1.1a7.845,7.845,0,0,1,1.047.063c.359.047.688.109,1.016.172.313.078.609.156.891.25a3.411,3.411,0,0,1,.656.281,1.351,1.351,0,0,1,.469.391.842.842,0,0,1,.141.516v.735c0,.328-.125.5-.359.5a1.626,1.626,0,0,1-.594-.188,7.149,7.149,0,0,0-3-.609,4.034,4.034,0,0,0-2.078.438,1.509,1.509,0,0,0-.735,1.391,1.476,1.476,0,0,0,.469,1.11,4.668,4.668,0,0,0,1.719.86l2.219.7a4.753,4.753,0,0,1,2.422,1.5A3.537,3.537,0,0,1,57.2,11.4a4.018,4.018,0,0,1-.406,1.813,4.2,4.2,0,0,1-1.141,1.375,5.038,5.038,0,0,1-1.735.875A7.431,7.431,0,0,1,51.685,15.791Z" transform="translate(-12.157 -1.1)" fill="#574977"/>
      <g id="Group_26580" data-name="Group 26580" transform="translate(0 17.518)">
        <path id="Path_54915" data-name="Path 54915" d="M44.149,122.981c-5.142,3.8-12.612,5.814-19.035,5.814a34.435,34.435,0,0,1-23.238-8.861c-.484-.438-.047-1.031.531-.688A46.152,46.152,0,0,0,43.4,121.793C44.259,121.4,44.993,122.356,44.149,122.981Z" transform="translate(-1.668 -118.213)" fill="#574977" fill-rule="evenodd"/>
        <path id="Path_54916" data-name="Path 54916" d="M252.427,115.522c-.656-.844-4.345-.406-6.017-.2-.5.063-.578-.375-.125-.7,2.938-2.063,7.767-1.469,8.33-.781.563.7-.156,5.532-2.907,7.845-.422.359-.828.172-.641-.3C251.693,119.835,253.084,116.35,252.427,115.522Z" transform="translate(-207.805 -113.192)" fill="#574977" fill-rule="evenodd"/>
      </g>
    </g>
  </g>
</svg>
