<svg xmlns="http://www.w3.org/2000/svg" xmlns:xlink="http://www.w3.org/1999/xlink" width="98.829" height="47.723" viewBox="0 0 98.829 47.723">
  <defs>
    <clipPath id="clip-path">
      <path id="path20" d="M0-90.846H88.829v-13.723H0Z" transform="translate(0 104.569)" fill="#574977"/>
    </clipPath>
  </defs>
  <g id="Group_26582" data-name="Group 26582" transform="translate(3772 24306.001)">
    <rect id="Rectangle_12406" data-name="Rectangle 12406" width="98.829" height="47.723" transform="translate(-3772 -24306)" fill="none"/>
    <g id="g10" transform="translate(-3767 -24289)">
      <g id="g12" transform="translate(0 0)">
        <g id="g14">
          <g id="g16" clip-path="url(#clip-path)">
            <path id="path22" d="M2.583-99.134a.34.34,0,0,1-.1.128.176.176,0,0,1-.085.142c0,.087-.147.125-.165.217a.318.318,0,0,1-.118.208c0,.078-.127.108-.127.184-.038.019-.073.142-.1.142,0,.053-.058.09-.071.156a.187.187,0,0,0-.071.128c-.067.033-.046.122-.113.156,0,.048-.057.107-.057.156a.923.923,0,0,0-.085.3c-.055,0-.035.475-.014.551a.96.96,0,0,0,.156.441.3.3,0,0,1,.057.113.749.749,0,0,1,.113.106c.041.051.312.117.312.135.137.02.21.1.326.1,0,0,.386.121.425.128,0,.056.184.037.184.085l.364.037a2.948,2.948,0,0,1,.373.119c0,.047.263.067.328.059a2.812,2.812,0,0,1,.412.026c.212,0,.407.057.62.057,0,.072.5-.014.538-.014a2.5,2.5,0,0,1,.591-.112l.314-.05c.1-.017.139-.088.247-.121.139-.042.2-.1.321-.128,0,0,.262-.128.284-.128.038-.058.109-.075.149-.128a1.251,1.251,0,0,1,.184-.17.56.56,0,0,0,.135-.312c.058,0,.041-.29,0-.34-.078-.026-.1-.058-.189-.052-.125.01-.229.03-.364.038,0,.041-.3.059-.3.1-.086,0-.173.014-.241.014,0,.034-.155.043-.2.043,0,.045-.411.033-.411.071-.03,0-.17.022-.17.043-.051,0-.3,0-.3.042a3.174,3.174,0,0,0-.383.042c0,.03-.921.182-.995.2-.093.025-.129-.014-.223-.008s-.1-.037-.158-.037c-.023-.046-.034-.011-.057-.057-.045,0-.057-.043-.092-.071-.058-.046-.059-.108-.106-.156-.029-.029-.07-.213-.128-.213a1.52,1.52,0,0,0-.184-.4c0-.07-.022-.089,0-.163a.815.815,0,0,0,.029-.2c0-.024.027-.149.042-.149.005-.1.028-.221.028-.3.051,0,.051-.3.128-.3a.126.126,0,0,1,.057-.113.516.516,0,0,1,.12-.2c.054-.071.2-.1.281-.134.038-.016.265-.02.265-.036.057,0,.411-.041.411-.085.088,0,.2-.02.3-.024.089,0,.129-.033.194-.033,0-.085.4-.1.5-.113,0-.017.116-.042.142-.042,0-.034.192-.035.235-.037.161-.008.258-.076.4-.076s.237-.055.392-.063l.369-.019c.078,0,.122-.032.2-.032,0,0,.423-.057.468-.057,0,0,.193-.046.227-.057a1.108,1.108,0,0,1,.325-.056s.107-.047.129-.056a.32.32,0,0,1,.2-.009.713.713,0,0,0,.239-.027.393.393,0,0,1,.208-.029c.039.014.257-.007.257.022.078,0,.1.028.17.028a2.529,2.529,0,0,0,.312.071c0,.031.1.025.128.028l.138.1a.305.305,0,0,1,.117.178c.023.1.064.15.085.236.06.03.064.125.127.156a.949.949,0,0,1,.1.326c.039,0,.047.3.085.3a.91.91,0,0,0,.1.283,1.492,1.492,0,0,0,.053.284.8.8,0,0,1-.053.38.3.3,0,0,1-.1.173.239.239,0,0,1-.057.128.318.318,0,0,0-.085.142.36.36,0,0,0-.071.142c-.037,0-.044.184-.085.184-.009.037-.054.156-.085.156,0,.1-.085.213-.085.34a1.749,1.749,0,0,0-.123.293c.015.169-.054.231-.076.4a2.089,2.089,0,0,0-.042.213c-.017,0-.042.09-.042.113-.05,0,.007.255-.042.255a1.717,1.717,0,0,0-.057.227,1.391,1.391,0,0,1-.085.354c0,.027-.024.156-.043.156,0,.129.012.212,0,.34-.005.087-.032.132-.032.236,0,.032-.016.161-.043.161a.714.714,0,0,0,0,.217,1.143,1.143,0,0,1,.032.293c.053,0,.028.455.028.517,0,.172-.056.3-.067.489s-.132.271-.159.411c-.076.038-.808.438-.973.39-.038-.011-.017-.036-.062-.036,0-.031-.079-.043-.1-.052a.321.321,0,0,1-.151-.1c-.025,0-.312-.11-.312-.1-.03,0-.113-.028-.113-.057a.175.175,0,0,1-.1-.042c-.071-.07-.228-.1-.216-.238.007-.076.03-.123-.01-.2-.029-.025-.038-.156-.057-.156.009-.225.043-.4.043-.6s-.014-.439-.014-.632a4.909,4.909,0,0,0,.057-.51c-.024-.084-.026-.25-.084-.3s-.107-.045-.2-.036a1.161,1.161,0,0,1-.269.113c0,.029-.161.052-.191.057-.083.011-.138.057-.205.057,0,.059-.354.021-.354.1a3.253,3.253,0,0,0-.359.075c-.152.015-.206.08-.359.08-.125,0-.243.045-.388.038-.128-.006-.219-.058-.344-.021s-.231-.017-.35-.017a2.972,2.972,0,0,0-.368.029,9.683,9.683,0,0,1-1.035-.1c0-.03-.354-.058-.354-.113-.181-.023-.279-.1-.482-.113a.849.849,0,0,0-.291-.114c-.028,0-.121-.015-.121-.043-.046,0-.269-.063-.269-.113-.108,0-.214-.142-.326-.142a.7.7,0,0,0-.227-.128,1.613,1.613,0,0,1-.2-.2c-.055,0-.134-.1-.17-.142-.036,0-.112-.07-.128-.1-.063-.051-.1-.088-.1-.156a.88.88,0,0,1-.085-.142c-.018,0-.076-.115-.085-.142A2.489,2.489,0,0,1,.171-95.5a1.841,1.841,0,0,0-.048-.189c-.007-.024-.049-.088-.05-.1,0-.028-.019-.3-.027-.3,0-.166-.06-1.758-.043-1.758,0-.044.027-.326.071-.326,0-.022.071-.329.08-.439,0-.049.061-.383.118-.383,0-.114.125-.215.156-.34.105-.053.122-.224.213-.27,0-.076.127-.106.127-.184.071-.048.078-.138.142-.17,0-.048.085-.072.085-.128a1.152,1.152,0,0,0,.184-.2c.055-.027.066-.107.128-.128.017-.052.043-.065.085-.1a.158.158,0,0,1,.042-.085c.046-.046.228-.354.269-.354a.5.5,0,0,1,.161-.25c.04-.036.073-.132.137-.132.016-.033.043-.019.043-.042.049,0,.028-.035.071-.057,0-.053.131-.17.184-.17a.418.418,0,0,1,.152-.118c.1-.061.529-.58.628-.6.018-.036.094-.057.128-.057a.53.53,0,0,1,.17-.1c.02-.04.558-.464.694-.624a.261.261,0,0,0,.142-.1c.057-.019.076-.054.113-.1a.142.142,0,0,0,.092-.057.735.735,0,0,1,.106-.1c.049-.043.024-.047.057-.08.07-.07.185-.086.255-.156.037-.037.077-.142.142-.142a.4.4,0,0,1,.184-.142c.072-.108.229-.116.3-.184a.422.422,0,0,1,.156-.1c.023-.045.126-.073.184-.085,0-.031.142-.037.142-.071.031-.007.128-.035.128-.057a.658.658,0,0,1,.255-.042c0-.037.2-.04.242-.039l.387.009a1.509,1.509,0,0,1,.216-.016,3.682,3.682,0,0,0,.425.088c.028,0,.161.024.161.043a.852.852,0,0,1,.247.088,3.411,3.411,0,0,1,.509.432.888.888,0,0,1,.265.359c.063.032.119.255.142.255,0,.156.07.311.085.482.053,0,.128.286.128.326.024,0,.028.283.085.283a1.634,1.634,0,0,1,.018.239,2.328,2.328,0,0,0-.061.271c-.015,0-.057.09-.057.113-.069.052-.117.119-.18.176s-.415.115-.415.164a3.218,3.218,0,0,1-.364.049.7.7,0,0,1-.2-.041c-.056-.023-.07-.084-.115-.107,0-.068-.1-.089-.1-.156a.241.241,0,0,1-.085-.17c-.056,0-.063-.245-.142-.284a1.013,1.013,0,0,0-.128-.255c0-.091-.153-.217-.22-.3-.053-.064-.147-.052-.177-.113-.092-.018-.159-.052-.213.028-.048,0-.1.054-.149.064-.079.016-.124.085-.2.106a.847.847,0,0,0-.135.071c-.05,0-.093.036-.156.057,0,.039-.151.066-.184.1a.935.935,0,0,1-.213.127c-.048,0-.128.071-.156.113-.084.021-.13.085-.213.085a.331.331,0,0,1-.128.057c-.051.056-.158.132-.184.184a1.022,1.022,0,0,0-.425.34.5.5,0,0,0-.224.176c-.072.077-.142.125-.215.207-.049.055-.117.156-.184.156-.05.059-.227.184-.227.255-.058.045-.156.1-.156.17-.045.04-.143.17-.2.17-.016.033-.042.019-.042.043-.052.034-.035.074-.085.1,0,.077-.084.093-.12.142-.05.067-.191.148-.191.227-.018,0-.048.089-.071.106a.4.4,0,0,0-.127.206c-.063.047-.135.2-.213.2" transform="translate(0 104.569)" fill="#574977" fill-rule="evenodd"/>
            <path id="path24" d="M153.5-95.46a.308.308,0,0,1-.142.156.928.928,0,0,0-.071.255c-.053.182-.115.359.057.5,0,.03.112.073.146.075.1.008.16.024.265.024a1.68,1.68,0,0,0,.524-.028c.025,0,.142-.026.142-.042a1.594,1.594,0,0,1,.269-.028c.031,0,.34-.026.34-.057.115-.014.51-.085.567-.1.055-.11.285-.128.406-.128.14,0,.279-.04.422-.037.1,0,.291.053.291.165a.329.329,0,0,1,.113.156c.025.075.072.117.1.2a1.684,1.684,0,0,1,.135.3c.022.131.09.167.1.321.007.086.036.13.047.232,0,0,.061.3.071.34.04,0,.12.361.122.432a.228.228,0,0,1-.207.22c-.053.08-.147.082-.241.1,0,.015-.093.058-.121.064a2.1,2.1,0,0,1-.276.036,1.215,1.215,0,0,1-.33.071c-.186,0-.345.043-.514.043a2.6,2.6,0,0,1-.262-.009c-.089-.009-.17.023-.283.023a4.594,4.594,0,0,0-.567.043c-.2.014-.29.071-.467.071a1.29,1.29,0,0,1-.34.08c-.077.006-.158.033-.234.033a3.06,3.06,0,0,0-.31.007,1.346,1.346,0,0,1-.165.035c-.084,0-.137.029-.2.029,0,.043-.128.021-.128.071a.258.258,0,0,0-.156.085c0,.046-.087.143-.128.17-.053.06-.028.126-.047.2-.05.186.01.252.118.386.051,0,.1.071.156.071a.332.332,0,0,0,.128.057c0,.046.241.113.312.128,0,.032.4.034.4.1.073,0,.121.028.213.028,0,.08.233,0,.269-.014.145-.008.28-.042.4-.042,0-.034.206-.065.255-.071,0-.051.2-.13.241-.184.048,0,.08-.043.135-.043s.117-.014.172-.009a.23.23,0,0,1,.158.063.565.565,0,0,1,.1.1c.06.054.233.331.276.368a1.3,1.3,0,0,1,.248.51s.062.3.064.348-.019.134-.036.134c0,.065-.014.144-.014.227a1.136,1.136,0,0,0-.042.312,1.015,1.015,0,0,0-.071.326c-.071.035-.03.121-.1.156,0,.163-.372.4-.372.334a3.161,3.161,0,0,1-1.017.29.389.389,0,0,1-.227-.042c-.1-.01-.154-.03-.246-.038-.123-.011-.27-.1-.392-.1,0-.005-.255-.075-.283-.085a1.092,1.092,0,0,0-.34-.1c0-.04-.113-.016-.113-.057-.093-.015-.166-.041-.269-.057,0-.082-.368-.033-.368-.128-.033,0-.283-.1-.283-.128a.3.3,0,0,1-.17-.114c-.074,0-.11-.113-.184-.113a.327.327,0,0,0-.156-.1.318.318,0,0,0-.156-.113c-.045-.054-.071-.07-.071-.142-.008,0-.029-.053-.057-.071,0-.005-.124-.05-.142-.085-.036-.03-.085-.05-.085-.1-.046-.023-.011-.034-.057-.057,0-.078-.128-.108-.128-.184a.154.154,0,0,1-.064-.106c-.016-.078-.021.014-.021-.092a.364.364,0,0,1-.043-.1c-.067-.035-.093-.269-.127-.269,0-.111-.085-.231-.085-.34-.054,0,0-.539-.071-.539,0-.078-.028-.1-.028-.2a1.446,1.446,0,0,1-.014-.351,3.186,3.186,0,0,0,.042-.386c0-.1.014-.212.014-.29,0-.059.043-.1.043-.163a3.338,3.338,0,0,1,.179-.728c.028-.14.118-.232.118-.378a.194.194,0,0,0,.071-.128.212.212,0,0,0,.057-.113c.028-.014.051-.1.071-.1,0-.025.062-.156.085-.156.037-.146.117-.234.142-.383.04,0,.036-.326.085-.326a.434.434,0,0,0-.184-.439c0-.021-.025-.085-.042-.085,0-.083-.073-.062-.1-.127s-.127-.127-.127-.185c-.031,0-.014-.09-.014-.113a.5.5,0,0,1-.127-.151,1.133,1.133,0,0,1-.057-.5,2.334,2.334,0,0,1,0-.457,1.628,1.628,0,0,0,.024-.271.894.894,0,0,0,.085-.184c.06-.04.113-.2.2-.2a.286.286,0,0,1,.1-.085c0-.046.057-.071.089-.1a.792.792,0,0,1,.294-.208,1.312,1.312,0,0,1,.372-.019c.184-.009.284-.138.45-.194a1.94,1.94,0,0,1,.482-.142c0-.023.147-.057.179-.057.112,0,.142,0,.267.011.081.006.123-.036.2-.044.1-.01.993-.222,1.016-.222,0-.057.376-.107.439-.128a.39.39,0,0,1,.184-.043c.069,0,.124-.028.191-.028a1.872,1.872,0,0,0,.361-.092,1,1,0,0,1,.184-.041,1.42,1.42,0,0,0,.293-.051,1.354,1.354,0,0,0,.175-.057c.157,0,.277-.042.425-.042a3.525,3.525,0,0,0,.525-.036c.051-.005.41-.036.41.036.087.022.109.091.2.113a.919.919,0,0,0,.17.2.4.4,0,0,0,.142.2c0,.023.063.128.085.128.007.03.053.127.071.127a2.152,2.152,0,0,1,.071.3c.064,0,.1.255.156.255a1.782,1.782,0,0,1,.071.269c.019,0,.079.133.085.156.064.033.054.129.05.191s.009.095-.05.135c-.023.068-.057.028-.057.1,0,.115-.029.137-.128.2a.491.491,0,0,1-.227.092c0,.042-.237.064-.291.067-.094.007-.15.06-.255.06a4.02,4.02,0,0,0-.418.071c-.094,0-.182.071-.293.071s-.171.042-.253.042c-.124,0-.268.042-.39.042s-.184.043-.293.043c-.128,0-.181.057-.288.057-.083,0-.139.057-.213.057,0,.074-.264.079-.329.082-.045,0-.281.045-.281.073-.109,0-.152.057-.255.057,0,.044-.156.032-.156.071-.033,0-.2,0-.2.028-.044,0-.064.028-.113.028,0,.045-.225.053-.283.057a1.253,1.253,0,0,1-.269.17" transform="translate(-130.517 99.775)" fill="#574977" fill-rule="evenodd"/>
            <path id="path26" d="M211.53-90.371c-.028.1-.129.119-.166.2a.624.624,0,0,0-.033.32c.016.112.108.144.157.243.048.016.255.089.255.113.036,0,.269.038.269.071.089,0,.21.057.284.057,0,.084.85.08.85.028.017,0,.107.019.142.021s.128.025.128-.007c.083,0,.007-.014.071-.014,0-.065.283-.071.34-.071,0-.059.221-.031.255-.1.048,0,.126-.088.156-.128.067,0,.088-.1.156-.1a.263.263,0,0,1,.142-.085s.131-.044.159-.049c.151-.027.179.1.309.148a.307.307,0,0,0,.055.128.976.976,0,0,0,.146.145c.04.04.04.051.04.11,0,.079.034.059.057.128s.075.111.079.162.12.181.12.263c.091.046.113.479.113.567a.866.866,0,0,1-.035.3c-.011.091-.029.19-.035.3a.679.679,0,0,0-.052.147c-.022.112-.081.28-.2.321-.049.145-.187.188-.332.218-.042.009-.306.08-.306.122a1.01,1.01,0,0,1-.226.058c-.1.005-.817.11-.9.119-.1.011-.535.117-.588.049-.048,0-.023-.028-.071-.028,0-.027-.141-.005-.17,0a.3.3,0,0,1-.193-.017.2.2,0,0,0-.182-.011.379.379,0,0,1-.32-.11c-.047,0-.082-.031-.151-.038s-.136-.029-.2-.04a.432.432,0,0,1-.142-.078c-.051,0-.3,0-.3-.042-.058-.008-.312-.064-.312-.1-.075-.017-.2-.022-.227-.085-.061,0-.112-.121-.184-.142-.017-.069-.071-.071-.071-.142-.017,0-.043-.09-.043-.113-.006,0-.1-.118-.127-.142,0-.062-.057-.1-.057-.17-.068,0-.116-.284-.17-.284a.417.417,0,0,0-.1-.17c-.043-.043-.184-.074-.184-.156-.032-.024-.057-.029-.057-.071-.056-.037-.021-.06-.071-.085a.233.233,0,0,0-.071-.113,1.3,1.3,0,0,0-.113-.368c0-.041-.052-.439-.057-.439a.987.987,0,0,1-.017-.381,4.378,4.378,0,0,0,.053-.47c.01-.251.114-.473.135-.723.006-.068.037-.34.085-.34,0-.057.042-.369.085-.369,0-.058.014-.148.014-.227.014,0,.043-.117.043-.142a1.843,1.843,0,0,0,.071-.359c0-.058.026-.421.071-.421a2.187,2.187,0,0,1,.113-.34c0-.122.113-.242.156-.369.024,0,.052-.161.1-.184,0-.059.045-.1.057-.17.033,0,.06-.137.1-.156,0-.051.064-.123.085-.184a1.318,1.318,0,0,0,.113-.312.927.927,0,0,0,.085-.213,1.486,1.486,0,0,0,.128-.4,3.847,3.847,0,0,0,.036-.522,1.246,1.246,0,0,1,.013-.278c.01-.048.035-.033.035-.078a.8.8,0,0,0,.085-.1c.046-.046.109-.066.156-.12a.413.413,0,0,1,.184-.12,3.782,3.782,0,0,0,.5-.227c.092,0-.011-.014.1-.014,0-.044.05,0,.071,0,0-.029.142-.022.142-.071.035,0,.213-.03.213-.057a4.592,4.592,0,0,0,.475-.064.886.886,0,0,1,.234-.026,1.133,1.133,0,0,0,.269-.052c0-.042.383-.008.383-.071.062,0,.411-.018.411-.071a2.651,2.651,0,0,0,.454-.085c.026-.009.1-.041.1-.057.044-.005.213-.028.213-.057.06,0,.425.021.425-.057.065,0,.1-.028.184-.028a1.182,1.182,0,0,1,.184-.042c.072,0,.117-.029.206-.029a1.264,1.264,0,0,0,.3-.045,3.224,3.224,0,0,1,.655.031c.118,0,.207.085.34.085,0,.035.028-.006.028.028.064,0,.092.041.14.081a2.659,2.659,0,0,0,.257.231.72.72,0,0,0,.255.454.3.3,0,0,0,.071.128.236.236,0,0,1,.043.1.112.112,0,0,1,.057.085,1.634,1.634,0,0,1,.134.263,1.285,1.285,0,0,1-.176.757.372.372,0,0,1-.155.06,2.07,2.07,0,0,1-.526.033c-.091-.011-.726.121-.772.121-.062,0-.142.028-.206.028,0,.015-.093.043-.113.043,0,.036-.172.028-.213.028,0-.024-.138.028-.177.028-.35,0-.671.071-1.013.071a5.2,5.2,0,0,0-.893.128c-.033,0-.156.045-.156.071-.059,0-.091.032-.165.047s-.1.095-.161.095a.269.269,0,0,1-.156.1c-.021.04-.05.034-.078.071s-.08.071-.121.127l-.142.113-.06.187a.483.483,0,0,1-.139.252.347.347,0,0,1-.1.149c-.092.069-.071.168-.071.248.087.043.1.12.21.132a1.631,1.631,0,0,0,.23-.018c0-.028.425-.018.425-.071a3.474,3.474,0,0,0,.737-.142,1.572,1.572,0,0,0,.368-.085c0-.042.241-.074.241-.113.091-.008.179,0,.227-.071a.3.3,0,0,0,.142-.085c.04-.013.255-.064.255-.1.044,0,.121-.053.187-.058s.094.03.153.03a.485.485,0,0,0,.128.071c.023.046.07.044.118.057.073.02.033.013.087.057s.052.072.1.113c.032.027.092.088.092.128a.607.607,0,0,1,.184.354c.072,0,.118.283.156.283a.162.162,0,0,0,.071.128.455.455,0,0,0,.057.128c0,.068.028.133.028.2v.227c-.063,0,.027.439-.028.439a.356.356,0,0,1-.142.255c0,.1-.212.156-.283.156,0,.04-.113.016-.113.057a1.312,1.312,0,0,1-.262.064c-.153.01-.21.1-.362.12a1.928,1.928,0,0,1-.2.043c0,.044-.127.042-.127.071-.118.009-.456.071-.482.071a8.078,8.078,0,0,1-1.219.17c0,.024-.113.043-.142.043,0,0-.482.074-.482.014-.025,0-.04.03-.083.038l-.163.028a1.467,1.467,0,0,1-.35,0c0,.053-.369.044-.369.1-.07,0-.114.028-.184.028h-.17c0,.034-.069.077-.1.085" transform="translate(-181.862 98.484)" fill="#574977" fill-rule="evenodd"/>
            <path id="path28" d="M289.48-97.36a.369.369,0,0,1-.142.1.358.358,0,0,1-.184.113.184.184,0,0,1-.113.071.127.127,0,0,1-.113.057c0,.02-.142.078-.17.085a.5.5,0,0,1-.283.153,1.137,1.137,0,0,1-.34.088c0,.048-.2.044-.238.045a.387.387,0,0,1-.258-.059c-.028-.041-.042-.032-.042-.071-.056-.037-.021-.06-.071-.085-.01-.052-.034-.284-.071-.284a1.106,1.106,0,0,0-.085-.369c0-.034-.01-.2-.029-.2,0-.064.007-.128.011-.191s-.025-.1-.024-.172c0-.108.008-.23.132-.253a1.727,1.727,0,0,1,.32-.022.924.924,0,0,1,.2,0c0,.034.156.023.156.057.105,0,.169.014.269.014.066,0,.122.028.184.028.082,0,.2.023.3.028,0,0,.141.047.163.05.106.015.183.078.277.078,0,.071.289.064.351.16.026.041.08.251,0,.251a.606.606,0,0,1-.2.326m11.2-2.168c.084,0,.17.68.128.68,0,.026,0,.291,0,.383a.576.576,0,0,1-.083.283c-.029.023-.17.132-.17.128a1.026,1.026,0,0,0-.241.128c-.129,0-.255.085-.4.085,0,.005-.385.043-.434.06a3.084,3.084,0,0,1-.672.125c0,.055-.354.021-.354.071-.146,0-.283.082-.46.092-.062,0-.376.051-.376.092-.088.006-.184.029-.255.029,0,.03-.155.046-.2.05-.165.012-.242.063-.425.092a1.114,1.114,0,0,1-.34.085c0,.064-.413.095-.492.105s-.123.065-.189.065c0,.033-.184.042-.226.042,0,.024-.326.062-.326.113-.028,0-.142.02-.142.043-.057,0-.082.071-.142.071-.033.067-.128.1-.128.17a.331.331,0,0,0-.113.156.348.348,0,0,1-.071.113c-.02.061-.04.045-.057.113a.152.152,0,0,0-.071.1c-.04.027-.128.124-.128.17-.04.02-.07.156-.085.156l.014.156.127.042a.243.243,0,0,0,.17.113c0,.065.408,0,.473,0a2.629,2.629,0,0,0,.635-.061,1.377,1.377,0,0,1,.311-.024c0-.036.171-.028.212-.028,0-.017.439-.026.439-.085.045-.007.227-.023.227-.057a1.054,1.054,0,0,1,.241-.071,1.51,1.51,0,0,1,.291-.135.215.215,0,0,0,.149-.078.266.266,0,0,0,.113-.057.394.394,0,0,1,.156-.085c.029-.044.17-.1.17-.128a.85.85,0,0,1,.352.1c.065.028.2.113.2.2.045,0,.055.17.1.17.044.132.1.24.128.354a1.347,1.347,0,0,1,.106.3c.005.03.105.283.107.283,0,.049.059.553,0,.553,0,.042-.053.2-.085.2a.325.325,0,0,1-.057.128.334.334,0,0,1-.085.189c-.032.042-.227.127-.227.151a.394.394,0,0,0-.127.071c-.067,0-.11.043-.177.043-.022,0-.177.036-.177.057a2.58,2.58,0,0,0-.3.026c-.237.027-.91.152-1.025.148s-2.35.336-2.523.336c-.2,0-.3.044-.511.054a1.154,1.154,0,0,0-.329.121c-.049.016-.1.018-.128.066-.05,0-.035.043-.085.043a1.846,1.846,0,0,1-.142.17,1.766,1.766,0,0,0,0,.227c.028,0,.106.165.142.191a.67.67,0,0,1,.127.135.28.28,0,0,1,.184.113.318.318,0,0,1,.156.113c.061,0,.076.057.142.057a1.541,1.541,0,0,0,.426.074,1.827,1.827,0,0,0,.641-.09c.037-.012.236-.027.236-.055.029-.007.156-.045.156-.071.088-.021.1-.057.2-.071,0-.036.128-.021.128-.057.026,0,.128-.023.128-.043.1-.011.14-.007.2-.085.09,0,.174-.1.269-.1a1.559,1.559,0,0,1,.269-.1,1.978,1.978,0,0,1,.4-.08c.108-.009.2.115.276.18.048.038.069.116.121.142.011.043.056.212.085.212.03.133.1.2.1.312.062,0,.042.524.042.609.049,0,0,.4,0,.425a2.726,2.726,0,0,0-.047.312c-.026.078-.072.209-.137.241,0,.076-.175.188-.227.248a.313.313,0,0,1-.156.092c0,.011-.081.042-.1.042-.026.052-.142.1-.2.113-.037.073-.232.128-.3.128,0,.046-.271.072-.312.156a1.344,1.344,0,0,0-.274.1.981.981,0,0,1-.349.043c0,.037-.113,0-.113.042a3.72,3.72,0,0,1-.581-.031l-.343-.013c-.1,0-.205-.041-.309-.041-.038,0-.241.005-.241-.028a2.319,2.319,0,0,1-.333-.078c-.061-.009-.362-.044-.362-.092a1.436,1.436,0,0,1-.156-.043.387.387,0,0,0-.127-.071c-.029-.058-.213-.07-.213-.114a.538.538,0,0,1-.156-.085.309.309,0,0,1-.184-.113c-.071,0-.1-.114-.17-.114-.055-.067-.166-.118-.2-.184-.136,0-.2-.23-.279-.3-.066-.058-.1-.161-.16-.194,0-.043-.029-.046-.042-.1-.052-.027-.018-.073-.071-.1-.015-.06-.071-.1-.071-.156a.278.278,0,0,1-.071-.128c-.057,0-.113-.431-.113-.489a3.385,3.385,0,0,0-.068-.425.8.8,0,0,1,0-.291,1.3,1.3,0,0,1,0-.4,1.722,1.722,0,0,0,.011-.319c.018,0,.028-.165.028-.2a1.468,1.468,0,0,0,.078-.361c.008-.142.092-.264.092-.39-.01,0,.114-.346.114-.368.056,0,.062-.284.1-.284,0-.026.025-.156.043-.156,0-.062,0-.157.057-.184.014-.067.042-.084.042-.142a.332.332,0,0,0,.057-.128c.054,0,.081-.255.127-.255a1.723,1.723,0,0,1,.1-.312c.016-.049.057-.095.057-.142.033,0,.063-.294.071-.34-.053,0-.075,0-.1.085-.066.016-.113.071-.17.071a.416.416,0,0,1-.142.064c-.069.012-1.265.959-1.3.985-.055.044-.077.071-.148.071,0,.034-.2.1-.241.1,0,.04-.142.015-.142.057l-.142.014a.157.157,0,0,1-.067.06.388.388,0,0,0-.117.111.831.831,0,0,0-.156.071c-.048,0-.312.064-.312.1-.032,0-.2.033-.2.057a.886.886,0,0,1-.17.057c0,.042-.213.068-.213.113a4.975,4.975,0,0,1-.595.135c-.074.009-.081.036-.128.092-.032,0-.019.052-.057.071a1.26,1.26,0,0,0-.076.232c-.014.178-.044.318-.066.491-.053,0-.071.264-.071.326-.017,0-.013.553-.071.553,0,.056-.03.369-.085.369,0,.06-.018.6-.028.6a2.675,2.675,0,0,0-.028.51.5.5,0,0,1-.008.217.967.967,0,0,0-.006.2c0,.029-.085.6-.081.673a1.331,1.331,0,0,1-.018.153c-.01,0-.049.074-.071.092a.672.672,0,0,0-.142.12c-.046,0-.094.057-.142.057,0,.037-.126.042-.156.042a1.744,1.744,0,0,1-.5.057.566.566,0,0,1-.2-.057.234.234,0,0,0-.113-.071c-.024-.046-.092-.063-.128-.1s-.123-.033-.156-.1a.621.621,0,0,1-.3-.3c-.051-.025-.045-.346-.113-.368-.01-.071-.019-.142-.029-.213-.051,0,.025-.606.014-.638a2.909,2.909,0,0,1,.042-.549,1.788,1.788,0,0,1-.023-.178c.007-.074.038-.1.038-.158,0-.07-.027-.645.042-.645,0-.07.028-.108.028-.2a3.627,3.627,0,0,0,.028-.581c-.029-.017-.227-.111-.227-.113-.058,0-.106-.085-.17-.085-.044-.066-.126-.094-.177-.156s-.163-.1-.163-.17c-.015,0-.077-.125-.1-.156-.058,0-.124-.089-.142-.142a.376.376,0,0,1-.128-.269,2.436,2.436,0,0,1-.085-.255c-.02,0,.184-1.076.184-1.12.037,0,.051-.227.1-.227,0-.1.208-.225.3-.255a.46.46,0,0,1,.237-.021c.042,0,.2-.024.2-.05a1.027,1.027,0,0,0,.227-.057.512.512,0,0,1,.12-.12c.049-.03.017-.041.064-.064.025-.075.074-.161.108-.246a1.2,1.2,0,0,0,.01-.367c.009-.25.023-.5.039-.747.006,0-.118-.151-.128-.17-.04-.006-.184-.031-.184-.057a.417.417,0,0,0-.208.019.84.84,0,0,1-.288.032c-.042,0-.226,0-.226.034-.066,0-.1.043-.163.043-.1,0-.2.128-.3.128,0,.02-.114.085-.142.085a.238.238,0,0,1-.184.1c0,.049-.311.079-.382.085,0,.042-.417-.043-.447-.043-.1,0-.208-.085-.291-.085a1.442,1.442,0,0,1-.227-.227c-.111-.009-.166-.024-.238.033a.27.27,0,0,0-.064.216.765.765,0,0,1-.058.224c-.05.169.138.23.131.378-.008.166.017.284.007.452a.819.819,0,0,1-.018.172c-.029.1.014.21-.014.312a2.963,2.963,0,0,1-.008.654.9.9,0,0,0,.008.211c0,.117,0,.231.006.348a2.7,2.7,0,0,1-.05.286,3.157,3.157,0,0,0-.012.33c0,.04.025.284,0,.284,0,.112-.028.205-.028.3a3.535,3.535,0,0,0-.047.371,3.792,3.792,0,0,1-.028.614,3.323,3.323,0,0,0-.034.56c0,.068.035.347.081.347,0,.176.029.426.029.6,0,.057.028.1.028.156,0,.091,0,.22,0,.332a3.042,3.042,0,0,1-.068.553c0,.047-.053.34-.085.34a2.344,2.344,0,0,1-.1.255c0,.026-.023.128-.042.128,0,.063-.1.117-.1.184a.91.91,0,0,1-.184.113c-.065,0-.113.046-.192.047l-.736,0a1.413,1.413,0,0,1-.39-.071,1.219,1.219,0,0,0-.177-.191c-.074-.063-.119-.158-.191-.213a.187.187,0,0,1-.071-.12c-.05,0-.031-.213-.085-.213a.619.619,0,0,0-.1-.227c-.007-.041-.031-.227-.057-.227v-.411c-.039,0-.048-.312-.085-.312,0-.036-.067-.284-.1-.284a1.151,1.151,0,0,0-.085-.213c-.021-.081-.07-.127-.1-.213-.042-.028-.113-.108-.113-.156-.062-.031-.068-.227-.127-.227,0-.069-.094-.106-.114-.184-.06-.045-.069-.126-.128-.156a.457.457,0,0,0-.113-.17c0-.079-.064-.087-.113-.149-.018-.022-.112-.149-.113-.149,0-.021-.025-.085-.043-.085a.241.241,0,0,0-.085-.149c-.089-.075-.073-.149-.128-.237-.037-.06-.1-.138-.1-.195-.03,0-.026-.119-.071-.142,0-.083-.142-.117-.142-.2a1.116,1.116,0,0,1-.2-.212c-.042,0-.043-.031-.079-.056a.14.14,0,0,0-.13-.025c-.024,0-.075.008-.075.038-.063,0-.044.043-.1.043,0,.038-.043.025-.043.071-.047.024-.028.065-.028.113,0,.032-.011.241-.043.241a4.266,4.266,0,0,1-.127.553c0,.135-.1.319-.1.468a.711.711,0,0,0-.085.212c-.061,0-.012.369-.071.369a1.753,1.753,0,0,1,.014.354c0,.226-.043.339-.043.549v.344a1.034,1.034,0,0,1-.085.312c0,.039-.013.27-.042.27,0,.065-.042.087-.042.156a.858.858,0,0,0-.085.227c-.123.059-.118.264-.32.214-.045-.011-.488-.059-.563-.059-.1,0-.188-.014-.28-.014,0-.031-.363-.017-.411-.113-.07-.015-.115-.01-.156-.071-.041,0-.049-.048-.085-.078-.091-.076-.087-.193-.1-.316s-.084-.161-.087-.276a1.171,1.171,0,0,1,.019-.216,1.1,1.1,0,0,0-.031-.294.732.732,0,0,1,.042-.217.7.7,0,0,0-.015-.22c0-.055.055-.383.035-.383,0-.039,0-.269.028-.269,0-.031.013-.128.042-.128a4.223,4.223,0,0,0,.09-.629c.022-.281.137-.412.137-.7.052,0,.029-.34.085-.34,0-.127.085-.264.085-.4a4.1,4.1,0,0,0,.113-.482,2.446,2.446,0,0,1,.087-.524c.027-.115.052-.23.081-.344a1.1,1.1,0,0,0,.019-.348,1.321,1.321,0,0,1,.027-.349,2.4,2.4,0,0,0,.021-.312c.01-.11.006-.221.006-.331a2.125,2.125,0,0,0,.031-.23c-.03-.221-.044-.424-.059-.637-.023,0-.085-.191-.085-.227a.845.845,0,0,1-.014-.482c0-.053.031-.1.038-.175a.914.914,0,0,0,0-.187c-.011-.19.05-.342.05-.525,0-.113.057-.233.057-.361-.009,0,.17-.292.17-.326.048,0,.073-.085.127-.085.031-.039.156-.107.156-.128.059,0,.087-.034.156-.057a.534.534,0,0,1,.17-.057c0-.093.441-.015.514-.011a.868.868,0,0,1,.266.053c.1.032.155.117.255.142,0,.056.227.074.227.113a.179.179,0,0,1,.142.071c.051,0,.127.145.127.184.1,0,.079.453.082.535,0,.034,0,.2.032.2,0,.147,0,.292.014.439,0,.049.03.468.028.468a1.429,1.429,0,0,0,0,.468.636.636,0,0,1,.085.241c.042,0,0,.137,0,.167-.007.057.1.118.1.173a.243.243,0,0,1,.085.184.752.752,0,0,1,.085.142c.064.031.063.108.127.156,0,.061.089.125.114.2.05.152.3.245.3.4a.209.209,0,0,1,.057.1c.068.034.122.154.184.206a.308.308,0,0,1,.1.149c.056.052.227.165.227.241a.306.306,0,0,1,.114.17c.049.042.213.177.213.241.1.07.139.28.3.285.063,0,.077.011.114-.044.035,0-.006-.029.028-.029.022-.1.064-.177.078-.248.006-.03.052-.106.021-.106-.006-.1,0-.213,0-.3a2.729,2.729,0,0,0,.071-.524c.057,0,0-.179-.007-.212a.643.643,0,0,1,.007-.228c.008,0,.042-.563.042-.624a2.117,2.117,0,0,1,.042-.51,2.007,2.007,0,0,1,.057-.482c0-.067.017-.34.071-.34.012-.1.047-.144,0-.239a.726.726,0,0,1,.015-.328c-.012-.221.014-.365.014-.581.047,0-.019-.227.028-.227a.406.406,0,0,1,.12-.255.855.855,0,0,1,.375-.227c.031,0,.213-.027.213,0,.059,0,.182.024.213.085a.561.561,0,0,1,.411.206c.03.034.085.062.085.106.027,0,.025.041.057.057,0,.053.061.081.1.113a.142.142,0,0,0,.071.1c0,.019.031.1.043.1,0,.071.028.153.028.22,0,.084.117.282.236.268.081-.01.091-.078.147-.119a.261.261,0,0,1,.071-.113c0-.062.064-.124.1-.17.063-.07.139-.2.229-.229a5.679,5.679,0,0,0,.6-.154c.013-.051.092-.184.156-.184.027-.055.368-.125.368-.128a1.929,1.929,0,0,0,.5-.113,10.12,10.12,0,0,1,1.9-.156c.074,0,.876,0,.955.006.1,0,1.2.05,1.2.065.042,0,.072.03.116.025.065-.007.6.088.7.088.156,0,.229.045.39.05a5.157,5.157,0,0,1,.676.135c.052,0,.123.064.184.085,0,.006.249.048.284.057,0,.027.209.113.24.113,0,.038.142.087.142.156.054.027.17.123.17.184.112.055.108.228.213.3,0,.055.043.037.043.1.028,0,0,.038.043.057a.318.318,0,0,0,.113.2c0,.048.043.057.057.114.031,0,.033.084.038.109a1.792,1.792,0,0,1,.062.246c.055,0,.1.205.1.255,0,.141.057.283.057.411,0,.068.028.133.028.2v.269c-.046,0-.045.38-.07.452-.043.127-.127.483.118.382.044-.018.122-.079.122-.125.055-.048.17-.13.17-.2.06-.03.05-.124.113-.156,0-.066.057-.08.057-.142.063-.042.062-.138.128-.17,0-.028.065-.142.085-.142a.728.728,0,0,1,.113-.255,1.1,1.1,0,0,1,.085-.283c.021-.15.1-.205.128-.354.026,0,.042-.085.042-.113.047-.024.04-.069.085-.106s.047-.073.057-.142.057-.137.057-.191c.057-.029.046-.089.085-.128s.061-.1.127-.156c0-.026.019-.1.043-.1,0-.131.187-.208.283-.241a1.29,1.29,0,0,1,.354-.071,2.957,2.957,0,0,1,.369-.085,2.1,2.1,0,0,0,.482-.057c.126,0,.67-.156.694-.156,0-.043,1.99-.524,2.069-.524,0-.039.85-.223.85-.241.039,0,.241-.016.241-.057.069,0,.1-.042.17-.042,0,0,.482-.113.482-.071.043,0,.17,0,.17.042.067,0,.106.085.17.085.063.072.126.142.213.142,0,.012.051.025.071.05a3.349,3.349,0,0,1,.232.577c.009.062.114.347.122.38" transform="translate(-238.297 101.306)" fill="#574977" fill-rule="evenodd"/>
            <path id="path30" d="M479.539-90.353c.055,0,.321.042.39.042.027,0,.106-.05.106,0a.735.735,0,0,0,.227.071c.086,0,.137.038.2.032a.259.259,0,0,1,.187.014.194.194,0,0,1,.077.151.278.278,0,0,1-.028.143c-.025.021-1.159.17-1.2.17a8.569,8.569,0,0,1-1.363.147c-.038,0-.153,0-.153-.034-.086-.006-.262.022-.283-.042-.038,0-.025-.043-.071-.043,0-.03-.07-.028-.095-.033a.545.545,0,0,1-.16-.095c-.094-.023-.353-.17-.32-.294a.393.393,0,0,1,.16-.2.375.375,0,0,1,.287-.04c0-.043.21.018.241.023s.113,0,.113.033c.055-.006.855-.057,1.049-.057,0,.05.5-.055.638.014m-15.761-4.833c.1.029.107.21.12.294a4.589,4.589,0,0,0,.064.542,2.754,2.754,0,0,1-.028.51c0,.151-.042.258-.042.383-.056.028-.014.07-.071.1,0,.04-.095.138-.128.163a.345.345,0,0,1-.3.063c-.109-.018-.217.058-.328.071-.053.006-.261,0-.261-.056-.151-.121-.05-.272-.014-.411.018,0,.043-.1.043-.113.042,0,.048-.142.085-.142a.416.416,0,0,1,.127-.227c0-.075.071-.144.071-.227.048,0,.045-.185.1-.213,0-.062.078-.107.1-.17.026-.078.053-.1.071-.17a1.685,1.685,0,0,0,.128-.241c.043,0,0-.085.042-.085,0-.087.164-.136.227-.071m.836-2.778c.068,0,.1.115.156.142a5.179,5.179,0,0,0,.392.539c.04.036.1.109.1.156a.384.384,0,0,1,.114.184c.043.022.06.084.071.135.018.078.113.122.113.191a.227.227,0,0,1,.071.156c.026,0,.057.1.057.128a2.815,2.815,0,0,1,.078.624,3.659,3.659,0,0,1,.092.383c.053,0,.058.326.1.326a2.749,2.749,0,0,0,.1.4c0,.062.031.368.071.368,0,.029.022.2.042.2,0,.069.028.092.028.149,0,.09.016.326.166.345.083.01.16-.144.16-.2.021,0,.05-.085.057-.113.077-.039.067-.176.142-.213.028-.087.087-.133.113-.213a.3.3,0,0,1,.113-.17.233.233,0,0,1,.085-.128c.013-.053.042-.057.042-.1.022-.015.085-.077.085-.1.089,0,.11-.156.2-.156.024-.048.2-.191.217-.25s.018-.1.08-.118a.442.442,0,0,1,.128-.085c0-.022.129-.1.156-.113.068-.023.142-.036.142-.071a1.036,1.036,0,0,0,.326-.227c.073,0,.1-.113.17-.113.021-.032.17-.1.17-.113.072-.017.079-.042.156-.057.02-.041.17-.089.17-.114.021,0,.085-.024.085-.042a.389.389,0,0,0,.2-.113c.107,0,.235-.133.347-.149a3.132,3.132,0,0,0,.3-.106.862.862,0,0,1,.2-.071c0-.007.238-.053.279-.061a1.2,1.2,0,0,0,.161-.052c.03-.01.127-.057.127-.071.215-.036.668-.17.694-.17,0-.016.151-.028.184-.028,0-.017.116-.043.142-.043a1.24,1.24,0,0,1,.269-.028c0-.064.683-.1.741-.1s.118,0,.173,0c.078,0,.125-.028.22-.028a.675.675,0,0,1,.28.057l.159.085c.018.037.085.029.085.057.09.023.154.116.208.194s.122.094.184.165a.9.9,0,0,0,.146.166c0,.052.029.022.029.085s.075.105.127.149c.089.074.085.227.184.276a.6.6,0,0,1,.057.241c.043,0,.088.2.1.241.049,0,.068.321.077.39a2.79,2.79,0,0,1-.006.4c0,.074.017.468-.042.468,0,.03-.007.17-.028.17,0,.063-.042.1-.042.156-.03,0-.09.334-.142.368,0,.042-.025.047-.057.071-.034.1-.11.145-.142.251-.019.064-.039.049-.057.118-.039.034-.113.074-.113.128a.218.218,0,0,0-.085.128c-.079.04-.109.142-.2.142a3.419,3.419,0,0,1-.468.028c0,.046-.186-.022-.212-.028-.032-.062-.06-.043-.106-.043s-.347.016-.347-.057c-.063,0-.1-.081-.17-.1a.207.207,0,0,0-.142-.071.589.589,0,0,0-.1-.076.471.471,0,0,1-.1-.058.129.129,0,0,1-.04-.064.106.106,0,0,1-.068-.045.587.587,0,0,1-.065-.371c0-.022.02-.258.02-.349.02,0,0-.142-.014-.142a1.9,1.9,0,0,1,.087-.475.529.529,0,0,0,.04-.269c0-.062-.042-.205-.1-.234,0-.053-.109-.1-.156-.1a1.145,1.145,0,0,0-.284.014c0,.016-.118.059-.149.064a1.68,1.68,0,0,1-.22.036.42.42,0,0,1-.128.057c0,.024-.158.043-.2.057-.087.029-.109.1-.2.128,0,.049-.142.042-.142.071-.08.016-.1.053-.17.071-.067.083-.128.1-.2.184a.556.556,0,0,0-.227.142c0,.063-.105.107-.142.149-.06.07-.124.087-.184.163a.435.435,0,0,0-.2.2c-.065.043-.076.107-.142.156,0,.062-.1.093-.1.156a.46.46,0,0,0-.156.2.357.357,0,0,0-.127.17.33.33,0,0,0-.114.184c-.056.045-.073.1-.128.128,0,.049-.042.071-.042.113a.57.57,0,0,0-.12.163.779.779,0,0,1-.092.234c0,.108-.094.2-.1.345-.007.1.016.188.008.286,0,.023-.034.106.011.106,0,.082.1.109.142.17.09.023.111.081.191.118a.2.2,0,0,1,.086.066c.031.041.068.025.092.071.067,0,.1.113.156.113.032.063.126.066.177.128s.347.2.347.269c.048,0,.128.071.156.113.049,0,.018.057.085.057.022,0,.1.009.1.028a.187.187,0,0,1,.128.085c.057,0,.106.083.17.1,0,.06.255.085.255.128.084,0,.162.085.241.085,0,.047.255.066.255.113a1.277,1.277,0,0,1,.34.052,1,1,0,0,0,.331.076,1.646,1.646,0,0,0,.392-.014,1.855,1.855,0,0,0,.453-.028c.078,0,.111-.028.184-.028,0-.039.193-.039.241-.043a.628.628,0,0,1,.227-.113c.016-.032.057-.029.057-.057.067,0,.086-.051.128-.1a.528.528,0,0,0,.22-.128c.046-.061.141-.156.22-.156a.235.235,0,0,1,.142-.071c0-.042.141-.025.17-.014,0,.035.028-.006.028.028.067,0,.08.06.113.113.056.019.08.012.1.071.032.016.02.043.043.043,0,.044.085.077.085.1.119.092.3-.055.3-.156.111,0,0-.893.057-.893,0-.108.085-.236.085-.354.045,0,.042-.326.1-.326a1.047,1.047,0,0,1,.1-.312c.04,0,.041-.3.1-.3a1.283,1.283,0,0,1,.128-.369,1.623,1.623,0,0,1,.127-.368c0-.02.027-.113.043-.113,0-.019.054-.142.071-.142.01-.059.108-.312.142-.312,0-.087.089-.175.106-.262.01-.049.064-.1.064-.149.024,0,.068-.139.113-.17,0-.044.013-.023.029-.085.019,0,.023-.085.029-.109a.65.65,0,0,0,0-.331,2.283,2.283,0,0,0-.029-.23c-.005-.057.029-.131.029-.209.018,0,.058-.255.1-.255,0-.054.093-.284.142-.284.018-.071.044-.219.106-.269s.094-.156.163-.156c.044-.066.106-.079.163-.149a.213.213,0,0,1,.191-.106c0-.044.291-.069.354-.089l.34-.109c.128,0,.209-.016.333-.025.143-.01,1.226-.21,1.226-.188.128,0,1.069-.2,1.286-.209.2-.011.407-.115.627-.126.071,0,.539-.018.539-.062.192,0,.324-.014.482-.014,0-.038.332-.057.39-.057.156,0,.89-.14.943-.149a1.661,1.661,0,0,0,.316-.049,7.184,7.184,0,0,1,.747-.156c0-.047.255-.081.255-.128a1.776,1.776,0,0,0,.411-.057.575.575,0,0,1,.3.006l.153.051c.039.043.1.142.156.142.028.037.1.093.1.128.075.062.143.152.213.2,0,.049.056.072.056.128.036,0,.08.147.128.17.03.09.1.141.128.241a.569.569,0,0,1,.085.2c.018,0,.052.2.085.2a5.9,5.9,0,0,1,0,1.162.188.188,0,0,1-.085.191.334.334,0,0,1-.248.071c-.078-.024-.076-.007-.149-.007a1.454,1.454,0,0,1-.351-.043,7.119,7.119,0,0,0-.882-.071,1.124,1.124,0,0,1-.307.028c-.1,0-.159.029-.245.029a1.459,1.459,0,0,0-.243.029.547.547,0,0,1-.2-.022c-.024,0-.135.015-.135.035a1.258,1.258,0,0,0-.365.008c-.075.026-.554.022-.63.042a.683.683,0,0,1-.181.035.5.5,0,0,0-.249.012.646.646,0,0,1-.24,0,1.867,1.867,0,0,0-.291.028c0,.029-.3.028-.342.029-.061,0-.551.057-.551.056-.072.007-.652.042-.652.043-.173.017-.235.069-.406.076a8.531,8.531,0,0,0-1.068.165c-.1.024-.081.058-.156.12-.1.085-.166.128-.269.206,0,.05-.078.121-.1.184-.034,0-.023.085-.057.085,0,.077-.212.362-.217.43a.313.313,0,0,0,.118.321c.159,0,.3.042.468.042,0,.03.2.023.227.021a2.625,2.625,0,0,1,.34.021,3.128,3.128,0,0,1,.486.043,1.048,1.048,0,0,0,.209-.015c0-.023.236-.025.267-.024s.434-.061.5-.061c0,.014.33-.079.368-.085a.329.329,0,0,1,.4-.1,1.409,1.409,0,0,0,.142.057c.019.025.128.09.128.1.026,0,.114.03.114.057.069,0,.094.1.142.128,0,.033.468.749.468.808.068.035.071.162.071.227,0,.089.028.13.028.205,0,.105,0,.21,0,.315,0,.079-.012.457-.087.457a.168.168,0,0,1-.07.135c-.063.052-.213.211-.213.3-.03.071-.3.23-.3.255a1,1,0,0,0-.326.076c-.074.025-.14.08-.2.08,0,.029-.11.066-.135.1-.1.13.076.3.177.39a.367.367,0,0,1,.127.163.279.279,0,0,1,.2.2,8.322,8.322,0,0,1-.071,1.119c0,.051-.169.587-.288.633a5.084,5.084,0,0,1-.733.3,13.359,13.359,0,0,1-2.452.327c-.039,0-.44.023-.44-.03a1.473,1.473,0,0,1-.425-.085c-.056-.019-.691-.16-.751-.284a.358.358,0,0,1-.156-.106.455.455,0,0,0-.184-.106c-.022-.042-.056-.042-.1-.057-.027-.034-.039-.071-.085-.071a2.222,2.222,0,0,0-.2-.2.236.236,0,0,1-.113-.071c-.051-.034-.025-.049-.071-.071,0-.074-.068-.08-.1-.142-.059,0-.146-.111-.184-.156a.3.3,0,0,1-.1-.142c-.063-.05-.068-.1-.113-.142-.022-.022-.142-.073-.142-.057-.111,0-.167.255-.213.255,0,.05-.055.1-.064.156,0,.025-.047.17-.078.17a.493.493,0,0,1-.128.241,1.323,1.323,0,0,1-.142.241.272.272,0,0,1-.092.141c-.069.055-.064.137-.135.184-.073.086-.143.113-.212.187s-.169.209-.276.231-.173.092-.284.092c-.061,0-.108.03-.191.036-.126.007-.236.027-.374.033-.168.007-.377-.034-.564-.043-.1,0-.2-.026-.28-.026s-.1-.042-.17-.042c-.023,0-.184.033-.184-.014-.076-.013-.094-.039-.156-.05-.111-.019-.187-.085-.3-.1-.091-.009-.127-.048-.208-.062-.034-.006-.2-.032-.2-.075-.03,0-.184-.022-.184-.057-.063,0-.1-.054-.17-.071,0-.037-.284-.1-.284-.113-.026,0-.142-.025-.142-.057-.075,0-.128-.113-.213-.113,0-.024-.166-.1-.2-.1a.284.284,0,0,0-.128-.071c-.038-.074-.134-.053-.17-.128a.216.216,0,0,1-.128-.085.174.174,0,0,1-.1-.042.439.439,0,0,0-.142-.085.572.572,0,0,0-.184-.142.36.36,0,0,1-.184-.12.34.34,0,0,0-.156-.106c-.026-.052-.1-.072-.142-.121-.06-.075-.146-.085-.2-.163-.12-.085-.214-.224-.34-.255-.1-.13-.228-.18-.335-.3-.045-.051-.073-.054-.09-.123-.034-.027-.071-.039-.071-.085-.028-.035-.062-.011-.085-.057a.759.759,0,0,1-.241-.326c-.112-.083-.126-.234-.241-.312,0-.048-.028-.023-.028-.071-.056-.037-.05-.078-.1-.128l-.117-.128h-.128c0,.033-.005.047-.028.043a1.224,1.224,0,0,1-.113.34c-.011.23-.059.457-.052.687.006.2.08.4.08.593,0,.245.028.475.028.7-.045,0-.024.362-.033.428s-.022.157-.08.2c0,.042-.055.162-.066.218a.69.69,0,0,1-.156.282.587.587,0,0,1-.175.137c0,.037-.114.048-.114.071-.034,0-.227.013-.227-.014-.083,0-.007-.014-.071-.014,0-.032-.092,0-.114,0a.453.453,0,0,1-.18-.028c-.045-.008-.232-.065-.232-.1a.464.464,0,0,1-.3-.128.786.786,0,0,0-.163-.17c-.019-.059-.1-.111-.1-.17-.133-.069-.12-.328-.127-.468a3.258,3.258,0,0,1-.053-.767,2.544,2.544,0,0,1,.02-.5,3.114,3.114,0,0,0,.019-.567.388.388,0,0,0-.255-.317c0-.079-.5-.06-.5-.028-.212-.005-.456,0-.645,0a1.651,1.651,0,0,0-.276.085c-.115,0-.209.057-.312.057,0,0-.371.093-.425.1,0,.027-.3.031-.3.085-.024,0-.1.036-.1.057-.068.017-.11.057-.17.057-.074.087-.159.159-.236.242-.027.03-.1.211-.118.211-.011.032-.069.142-.085.142,0,.053-.057.085-.057.142-.052.034-.049.1-.1.127a1.337,1.337,0,0,1-.057.142,1.627,1.627,0,0,0-.042.184c-.036,0-.187.482-.227.482-.018.072-.038.056-.057.127-.052.034-.035.075-.085.1-.043.118-.1.195-.142.312-.032.016-.02.042-.042.042,0,.05-.05.074-.085.106a2.692,2.692,0,0,0-.227.205c-.084.028-.193.182-.293.1a7.732,7.732,0,0,0-.856-.435c-.039-.052-.127-.084-.127-.142-.08-.039-.126-.34-.156-.34a4.493,4.493,0,0,1-.078-.458c0-.036.008-.137.036-.137,0-.051-.016-.269.028-.269.035-.139.085-.243.128-.422.029-.122.17-.227.17-.357.021,0,.057-.075.057-.1.063-.042.063-.093.128-.142a.262.262,0,0,1,.071-.142.421.421,0,0,1,.142-.184.46.46,0,0,1,.156-.255c.039-.119.156-.235.156-.354.061,0,.068-.241.113-.241,0-.052.046-.1.057-.17.031,0,.057-.123.057-.156.08,0,.086-.34.142-.34,0-.056.029-.1.029-.175a1.144,1.144,0,0,1-.006-.244c.015-.083.027-.163.034-.248.039-.075.128-.127.184-.189s.069-.091.142-.109c.034-.052.075-.035.1-.085.065,0,.136-.1.194-.156a.551.551,0,0,0,.158-.247c.015-.045.053-.207.088-.207a.642.642,0,0,1,.142-.255c0-.076.084-.138.113-.227.036-.107.1-.145.127-.269a.226.226,0,0,0,.071-.156c.016,0,.071-.123.1-.142,0-.062.082-.094.092-.163,0-.025.066-.191.092-.191,0-.055.048-.1.071-.17.046-.024.034-.128.071-.128,0-.064.055-.119.071-.184.038-.019.068-.127.1-.127,0-.074.113-.149.113-.227.038,0,.041-.12.085-.142.042-.17.241-.248.241-.425a.194.194,0,0,0,.085-.113.2.2,0,0,0,.085-.128c.088-.044.1-.2.184-.241a.5.5,0,0,1,.113-.184c.037-.109.269-.217.269-.326.019,0,.057-.064.057-.085l.159-.147c.056-.052.106-.108.157-.164s.14-.077.167-.156c.063-.05.179-.118.213-.184.051,0,.087-.087.128-.12.061-.051.078-.087.156-.106.089-.173.405-.066.539-.049.021,0,.1.016.1.035a.745.745,0,0,1,.188.024c.089.028.252.069.28.174" transform="translate(-397.798 99.076)" fill="#574977" fill-rule="evenodd"/>
            <path id="path32" d="M91.436-99.806c-.011.094-.043.137-.043.212a.472.472,0,0,0-.085.156.325.325,0,0,0-.1.156c-.031.023-.085.113-.1.113a.531.531,0,0,1-.17.2c-.052.047-.132.209-.2.209-.016.032-.057.03-.057.057-.053,0-.081.062-.113.1a.417.417,0,0,0-.163.113.191.191,0,0,1-.113.064.633.633,0,0,1-.237.017c-.069-.011-.068-.094-.068-.152-.043,0,.03-.449.038-.5a1.483,1.483,0,0,0,.047-.184c.05,0-.007-.255.042-.255,0-.09.028-.113.028-.2.026,0,.014-.231.014-.269a1.02,1.02,0,0,0-.007-.381.963.963,0,0,1,.064-.356.493.493,0,0,1,.17-.255c.156,0,.229.085.369.085a1.491,1.491,0,0,0,.283.128c.056.075.149.11.2.184.061,0,.084.085.128.113a.351.351,0,0,0,.057.128.85.85,0,0,1,.053.255C91.477-100.03,91.5-99.806,91.436-99.806Zm3.2,5.769c-.006,0-.06-.167-.071-.2a.526.526,0,0,1-.128-.113c-.073-.024-.062-.142-.142-.142a1.121,1.121,0,0,1-.113-.142c-.148-.037-.172-.223-.312-.269-.072-.024-.1-.068-.17-.085a.3.3,0,0,0-.142-.085c-.042-.063-.093-.063-.142-.128a.42.42,0,0,1-.156-.1.555.555,0,0,0-.184-.042c-.046-.053-.143-.213-.213-.213a.362.362,0,0,0-.156-.1c-.057-.069-.11-.1-.17-.163a1.877,1.877,0,0,0-.156-.2c-.056-.046-.17-.123-.17-.191-.045,0-.035-.149-.021-.18a.419.419,0,0,1,.112-.125.216.216,0,0,0,.079-.149,1.307,1.307,0,0,0,.3-.291.6.6,0,0,1,.143-.163c.015-.044.014-.078.057-.1.006-.032.04-.156.071-.156,0-.064.107-.123.12-.191.019-.1.12-.163.12-.262.03,0,.1-.274.1-.312.05,0-.007-.255.043-.255,0-.025.028-.142.042-.142.019-.077.057-.1.057-.177a.876.876,0,0,1,.057-.205.392.392,0,0,0,.043-.127c.039,0,.028-.16.028-.2,0-.1-.007-.219,0-.337,0-.075-.026-.1-.026-.184-.006,0,.034-.284-.043-.284,0-.129-.057-.223-.057-.34a.723.723,0,0,1-.085-.241c-.029,0-.052-.158-.057-.2-.02,0-.057-.1-.057-.128-.073,0-.058-.326-.142-.326,0-.073-.113-.114-.113-.184a1.734,1.734,0,0,1-.269-.482c-.02,0-.066-.111-.092-.142-.043-.051-.191-.169-.191-.227-.051-.035-.1-.156-.17-.156a.385.385,0,0,0-.236-.151c-.123-.038-.076-.1-.154-.161a.337.337,0,0,0-.22-.1c0-.054-.312-.037-.312-.085-.163,0-.315-.085-.468-.085,0-.022-.127-.073-.152-.074l-.16-.011c-.02-.041-.042-.034-.085-.043,0-.049-.261-.1-.312-.1,0,0-.367-.057-.4-.057-.085,0-.5.021-.5.1-.061,0-.069.028-.142.028a1.014,1.014,0,0,1-.213.028c0,.048-.255.054-.255.1a.45.45,0,0,0-.269.142c-.029.042-.122.127-.17.127-.034.068-.142.111-.142.184-.166.112-.173.359-.276.532a.685.685,0,0,0-.115.432,1.791,1.791,0,0,0,.03.459.828.828,0,0,1,.035.207c.017,0,.057.113.057.142.016,0,.071.123.1.142a.215.215,0,0,0,.085.128.7.7,0,0,0,.142.2c.027.04.113.1.122.147.005.029.051.193.006.193,0,.059-.03.083-.042.156-.059,0-.113.279-.113.326-.039,0-.051.3-.1.3,0,.214-.161.348-.191.56-.013.088-.05.156-.05.22-.018,0-.042.064-.042.085-.021,0-.043.085-.071.1,0,.06-.077.1-.113.156-.036,0-.078.021-.128.028,0,.031-.1.014-.127.014,0,.025-.141.029-.17.029,0,0-.126.089-.143.132-.032.083-.014.153-.1.2s-.117.062-.131.145a2.684,2.684,0,0,0-.035.283,1.045,1.045,0,0,0-.007.275c0,.1-.025.2-.016.3a1.065,1.065,0,0,0,.08.292c.011.063.043.1.043.142.052.026.094.142.113.2a.726.726,0,0,1,.142.156c.02,0,.067.113.1.113,0,.1.009.162,0,.269A5.11,5.11,0,0,0,87.1-95c-.015.2-.076.387-.076.561a2.675,2.675,0,0,1-.071.411,5.233,5.233,0,0,1-.021.529c0,.023-.056.194-.007.194l.014.369a2.244,2.244,0,0,1,.1.326.341.341,0,0,1,.043.128.49.49,0,0,1,.085.142c.068.044.058.121.128.156,0,.047.083.1.12.128.133.107.212.275.39.308.133.025.425.023.425.06a.78.78,0,0,0,.156,0,.383.383,0,0,0,.312-.057.351.351,0,0,1,.113-.184c0-.058.071-.072.071-.127.048-.024.036-.156.071-.156,0-.055.057-.106.057-.17A3.539,3.539,0,0,0,89-92.861c-.057,0-.036-.367-.039-.418,0-.09-.032-.2-.032-.291s-.043-.155-.043-.232a1.333,1.333,0,0,0-.015-.306.488.488,0,0,1-.014-.242,1.935,1.935,0,0,0,.085-.383c.041,0,.156-.275.156-.312.053-.026.08-.124.148-.136.1-.018.107-.021.193.056.052.046.121.194.2.194.027.054.138.131.19.187s.112.044.164.1a.365.365,0,0,0,.142.071c.055.113.228.136.3.241.047,0,.158.1.191.142a.441.441,0,0,0,.191.128c.026.054.106.074.142.128.076.057.124.1.19.158.049.043.12.154.178.154.049.056.116.158.17.184.039.053.106.084.127.128.069.051.08.111.142.165s.132.189.2.189c0,.058.12.118.142.184a1.855,1.855,0,0,1,.213.213c.064,0,.139.1.184.156.082,0,.117.142.2.142,0,.02.116.063.149.071.132.029.2.1.36.094.052,0,.355.022.355-.038.078,0,.285-.108.312-.213A.584.584,0,0,1,94-92.393c.03-.062.113-.1.113-.17.014-.023.045-.085.057-.085.017-.069.114-.111.114-.17.045-.039.156-.125.156-.184.037-.032.085-.027.085-.085a.382.382,0,0,0,.128-.326c0-.194-.014-.434-.014-.624" transform="translate(-75.289 103.497)" fill="#574977"/>
          </g>
        </g>
      </g>
    </g>
  </g>
</svg>
