<svg xmlns="http://www.w3.org/2000/svg" width="82.957" height="48.059" viewBox="0 0 82.957 48.059">
  <g id="Group_26596" data-name="Group 26596" transform="translate(1941 24306)">
    <rect id="Rectangle_12420" data-name="Rectangle 12420" width="82.957" height="48.059" transform="translate(-1941 -24306)" fill="none"/>
    <g id="layer1" transform="translate(-1936 -24290)">
      <g id="g23944" transform="translate(0 0)">
        <g id="g13605" transform="translate(35.225 3.23) rotate(90)">
          <path id="path13607" d="M0,4.647A4.754,4.754,0,0,0,1.833,8.378H.192V11.52H11.634V8.378H5.124A2.452,2.452,0,0,1,2.706,5.787,2.52,2.52,0,0,1,5.124,3.142h6.511V0H4.541A4.4,4.4,0,0,0,0,4.647" transform="translate(0 0)" fill="#574977"/>
        </g>
        <g id="g13609" transform="translate(61.145 3.423) rotate(90)">
          <path id="path13611" d="M0,3.589l7.794,2.84L0,9.269v3.589L11.439,8.151V4.708L0,0Z" transform="translate(0 0)" fill="#574977"/>
        </g>
        <g id="g13613" transform="translate(22.577 3.23) rotate(90)">
          <path id="path13615" d="M3.64,8.251A2.923,2.923,0,0,1,2.5,5.834,2.629,2.629,0,0,1,4.1,3.4L6.378,8.889A3.68,3.68,0,0,1,3.64,8.251M8.117,2.215A4.778,4.778,0,0,1,9.329,5.5,3.481,3.481,0,0,1,8.4,8.033L5.069,0A6.2,6.2,0,0,0,1.874,1.372,5.74,5.74,0,0,0,0,5.891a5.861,5.861,0,0,0,5.915,6.06c3.454,0,5.914-2.611,5.914-6.406A7.537,7.537,0,0,0,9.644.228Z" transform="translate(0 0)" fill="#574977"/>
        </g>
        <g id="g13617" transform="translate(10.326 0) rotate(90)">
          <path id="path13619" d="M11.979,0V7.141H0v3.185H14.865V0Z" fill="#574977"/>
        </g>
        <g id="g13621" transform="translate(72.957 3.23) rotate(90)">
          <path id="path13623" d="M2.692,6.17A3.013,3.013,0,0,0,5.914,9.2,3.116,3.116,0,0,0,9.135,6.128,3.033,3.033,0,0,0,5.914,3.1,3.116,3.116,0,0,0,2.692,6.17m9.135,0A5.937,5.937,0,0,1,5.914,12.3,5.982,5.982,0,0,1,0,6.128,5.936,5.936,0,0,1,5.914,0a5.982,5.982,0,0,1,5.914,6.17" transform="translate(0 0)" fill="#574977"/>
        </g>
        <g id="g13625" transform="translate(48.767 3.23) rotate(90)">
          <path id="path13627" d="M2.692,6.171A3.012,3.012,0,0,0,5.914,9.2,3.116,3.116,0,0,0,9.135,6.128,3.033,3.033,0,0,0,5.914,3.1,3.116,3.116,0,0,0,2.692,6.171m9.135,0A5.936,5.936,0,0,1,5.914,12.3,5.982,5.982,0,0,1,0,6.128,5.937,5.937,0,0,1,5.914,0a5.983,5.983,0,0,1,5.914,6.171" transform="translate(0 0)" fill="#574977"/>
        </g>
      </g>
    </g>
  </g>
</svg>
