<svg xmlns="http://www.w3.org/2000/svg" width="86.399" height="48.238" viewBox="0 0 86.399 48.238">
  <g id="Group_26587" data-name="Group 26587" transform="translate(3119 24306.001)">
    <rect id="Rectangle_12411" data-name="Rectangle 12411" width="86.399" height="48.238" transform="translate(-3119 -24306)" fill="none"/>
    <g id="layer1" transform="translate(-3114 -24292)">
      <g id="g3019" transform="translate(0 0)">
        <path id="Subtraction_151" data-name="Subtraction 151" d="M18.621,20.238H1.487A1.473,1.473,0,0,1,0,18.786V1.451A1.471,1.471,0,0,1,1.487,0H18.621a1.47,1.47,0,0,1,1.485,1.451V18.786A1.471,1.471,0,0,1,18.621,20.238ZM12.472,9.985c1.27,0,1.536,1.124,1.536,2.066v4.889h3.04V11.7a4.444,4.444,0,0,0-1-3.111,3.28,3.28,0,0,0-2.5-1,3.013,3.013,0,0,0-2.737,1.5V7.8H7.778c.034.849,0,9.077,0,9.139h3.037v-5.1a2.155,2.155,0,0,1,.1-.739A1.7,1.7,0,0,1,12.472,9.985ZM3.058,7.8h0v9.139H6.095V7.8H3.058ZM4.595,3.4a1.583,1.583,0,1,0-.036,3.157h.018A1.584,1.584,0,1,0,4.595,3.4Z" transform="translate(56.294)" fill="#574977"/>
        <path id="path16" d="M31.738-75.139H40.13v-2.755H34.775V-88.406H31.738Z" transform="translate(-31.738 92.089)" fill="#574977" fill-rule="evenodd"/>
        <path id="path18" d="M70.463-75.9v-9.138H67.426V-75.9ZM68.945-86.288a1.585,1.585,0,0,0,1.718-1.579,1.578,1.578,0,0,0-1.7-1.578,1.585,1.585,0,0,0-1.718,1.578,1.572,1.572,0,0,0,1.678,1.579h.02Z" transform="translate(-57.822 92.853)" fill="#574977" fill-rule="evenodd"/>
        <path id="path20" d="M84.68-64.3h3.037v-5.1a2.079,2.079,0,0,1,.1-.741,1.662,1.662,0,0,1,1.558-1.111c1.1,0,1.539.838,1.539,2.066V-64.3h3.037v-5.24c0-2.807-1.5-4.113-3.5-4.113a3.026,3.026,0,0,0-2.758,1.54h.02v-1.325H84.681c.04.857,0,9.138,0,9.138Z" transform="translate(-70.629 81.255)" fill="#574977" fill-rule="evenodd"/>
        <path id="path22" d="M127.351-88.406h-3.037v13.267h3.037V-78.1l.759-.956,2.378,3.918h3.736l-4-5.672,3.5-3.859h-3.657s-2.5,3.453-2.718,3.862Z" transform="translate(-99.743 92.089)" fill="#574977" fill-rule="evenodd"/>
        <path id="path24" d="M166.819-69.26a7.432,7.432,0,0,0,.1-1.194c0-2.362-1.2-4.76-4.356-4.76a4.838,4.838,0,0,0-4.936,5.093c0,3,1.9,4.867,5.215,4.867a9.444,9.444,0,0,0,3.537-.6l-.4-2.006a8.263,8.263,0,0,1-2.7.408c-1.419,0-2.657-.582-2.758-1.823l6.294.019ZM160.5-71.315a1.982,1.982,0,0,1,1.9-1.93,1.739,1.739,0,0,1,1.7,1.93Z" transform="translate(-124.215 82.398)" fill="#574977" fill-rule="evenodd"/>
        <path id="path26" d="M201.526-88.406v4.593h-.04a3.036,3.036,0,0,0-2.578-1.072c-2.338,0-4.4,1.871-4.376,5.068,0,2.963,1.858,4.893,4.176,4.893a3.435,3.435,0,0,0,3.057-1.6h.06l.12,1.384h2.7c-.04-.643-.08-1.754-.08-2.846V-88.406h-3.037Zm0,9.038a3.4,3.4,0,0,1-.06.663,1.788,1.788,0,0,1-1.778,1.423c-1.259,0-2.078-1.014-2.078-2.612,0-1.5.7-2.709,2.1-2.709a1.8,1.8,0,0,1,1.779,1.442,2.52,2.52,0,0,1,.04.546Z" transform="translate(-151.325 92.089)" fill="#574977" fill-rule="evenodd"/>
      </g>
    </g>
  </g>
</svg>
