<svg xmlns="http://www.w3.org/2000/svg" width="91.851" height="47.457" viewBox="0 0 91.851 47.457">
  <g id="Group_26585" data-name="Group 26585" transform="translate(3392 24306.001)">
    <rect id="Rectangle_12409" data-name="Rectangle 12409" width="91.851" height="47.457" transform="translate(-3392 -24306)" fill="none"/>
    <g id="Microsoft_logo__2012_1_" data-name="Microsoft_logo_(2012) (1)" transform="translate(-3387 -24291)">
      <path id="Path_54904" data-name="Path 54904" d="M105.022,11.976V22.45H103.2V14.231h-.024L99.931,22.45H98.719L95.4,14.231h-.024V22.45H93.7V11.976h2.618l3.006,7.759h.048l3.176-7.759h2.473Zm1.5.8a.922.922,0,0,1,.315-.727,1.084,1.084,0,0,1,.752-.291,1.061,1.061,0,0,1,.776.291,1.008,1.008,0,0,1,.315.727.922.922,0,0,1-.315.727,1.1,1.1,0,0,1-.776.291,1,1,0,0,1-.752-.291A1.1,1.1,0,0,1,106.525,12.776Zm1.964,2.158V22.45h-1.77V14.934Zm5.358,6.231a2.043,2.043,0,0,0,.873-.194,3.83,3.83,0,0,0,.873-.485v1.649a3.093,3.093,0,0,1-.97.364,5.966,5.966,0,0,1-1.188.121,3.561,3.561,0,0,1-2.691-1.043A3.618,3.618,0,0,1,109.7,18.91a4.278,4.278,0,0,1,1.067-2.982,3.838,3.838,0,0,1,3.006-1.164,4.462,4.462,0,0,1,.994.121,3.3,3.3,0,0,1,.8.291v1.7a3.522,3.522,0,0,0-.824-.461,2.786,2.786,0,0,0-.873-.17,2.211,2.211,0,0,0-1.7.679,2.543,2.543,0,0,0-.63,1.843,2.426,2.426,0,0,0,.63,1.77A2.268,2.268,0,0,0,113.847,21.165Zm6.764-6.352a1.96,1.96,0,0,1,.388.024,2.516,2.516,0,0,1,.291.073V16.7a1.088,1.088,0,0,0-.412-.194,2.487,2.487,0,0,0-.655-.1,1.356,1.356,0,0,0-1.091.558,2.678,2.678,0,0,0-.461,1.7V22.45H116.9V14.934h1.77v1.188h.024a2.284,2.284,0,0,1,.727-.97A2.136,2.136,0,0,1,120.612,14.813Zm.776,4a4.188,4.188,0,0,1,1.043-2.958,3.857,3.857,0,0,1,2.909-1.091,3.564,3.564,0,0,1,2.74,1.043,4,4,0,0,1,.994,2.837,4.106,4.106,0,0,1-1.043,2.909,3.781,3.781,0,0,1-2.861,1.091,3.735,3.735,0,0,1-2.764-1.018A3.891,3.891,0,0,1,121.388,18.813Zm1.843-.073a2.644,2.644,0,0,0,.533,1.794,1.938,1.938,0,0,0,1.527.63,1.765,1.765,0,0,0,1.479-.63,2.832,2.832,0,0,0,.509-1.843,2.924,2.924,0,0,0-.509-1.843,2.024,2.024,0,0,0-2.958.024A2.656,2.656,0,0,0,123.23,18.74Zm8.486-1.818a.769.769,0,0,0,.242.606,4.146,4.146,0,0,0,1.067.533,3.7,3.7,0,0,1,1.479.946,1.964,1.964,0,0,1,.436,1.285,2.036,2.036,0,0,1-.824,1.7,3.412,3.412,0,0,1-2.206.63,5.744,5.744,0,0,1-1.042-.121,4.2,4.2,0,0,1-.97-.291V20.462A4.237,4.237,0,0,0,130.94,21a3.268,3.268,0,0,0,1.018.194,1.63,1.63,0,0,0,.873-.17.6.6,0,0,0,.291-.558.854.854,0,0,0-.291-.63,4.477,4.477,0,0,0-1.115-.582,3.335,3.335,0,0,1-1.382-.921,2.2,2.2,0,0,1,.388-2.982,3.2,3.2,0,0,1,2.085-.655,3.845,3.845,0,0,1,.873.1c.315.073.606.145.824.218v1.721a5.223,5.223,0,0,0-.824-.412,2.566,2.566,0,0,0-.921-.17,1.352,1.352,0,0,0-.776.194A.774.774,0,0,0,131.716,16.922Zm3.976,1.891a4.188,4.188,0,0,1,1.043-2.958,3.857,3.857,0,0,1,2.909-1.091,3.564,3.564,0,0,1,2.74,1.043,4,4,0,0,1,.994,2.837,4.106,4.106,0,0,1-1.043,2.909,3.781,3.781,0,0,1-2.861,1.091,3.735,3.735,0,0,1-2.764-1.018A4,4,0,0,1,135.692,18.813Zm1.843-.073a2.644,2.644,0,0,0,.533,1.794,1.938,1.938,0,0,0,1.527.63,1.765,1.765,0,0,0,1.479-.63,2.832,2.832,0,0,0,.509-1.843,2.924,2.924,0,0,0-.509-1.843,2.024,2.024,0,0,0-2.958.024A2.776,2.776,0,0,0,137.535,18.74Zm11.734-2.352h-2.643V22.45h-1.794V16.389h-1.261V14.934h1.261V13.891a2.615,2.615,0,0,1,2.74-2.691c.218,0,.412.024.582.024a1.158,1.158,0,0,1,.436.1v1.527a2.974,2.974,0,0,0-.315-.121,1.612,1.612,0,0,0-.509-.073,1.094,1.094,0,0,0-.849.339,1.546,1.546,0,0,0-.291,1.018v.9h2.643v-1.7l1.77-.533V14.91h1.794v1.455h-1.794V19.88a1.614,1.614,0,0,0,.242.97,1.009,1.009,0,0,0,.8.291,1.2,1.2,0,0,0,.364-.073,1.267,1.267,0,0,0,.364-.17v1.455a1.691,1.691,0,0,1-.558.17,4.2,4.2,0,0,1-.776.073,2.19,2.19,0,0,1-1.673-.582,2.563,2.563,0,0,1-.558-1.794l.024-3.831Z" transform="translate(-70.983 -8.485)" fill="#574977"/>
      <rect id="Rectangle_12401" data-name="Rectangle 12401" width="8.292" height="8.292" fill="#574977"/>
      <rect id="Rectangle_12402" data-name="Rectangle 12402" width="8.292" height="8.292" transform="translate(9.165)" fill="#574977"/>
      <rect id="Rectangle_12403" data-name="Rectangle 12403" width="8.292" height="8.292" transform="translate(0 9.165)" fill="#574977"/>
      <rect id="Rectangle_12404" data-name="Rectangle 12404" width="8.292" height="8.292" transform="translate(9.165 9.165)" fill="#574977"/>
    </g>
  </g>
</svg>
