<svg xmlns="http://www.w3.org/2000/svg" width="62.173" height="47.6" viewBox="0 0 62.173 47.6">
  <g id="Group_26594" data-name="Group 26594" transform="translate(2192 24306)">
    <rect id="Rectangle_12418" data-name="Rectangle 12418" width="62.173" height="47.6" transform="translate(-2192 -24306)" fill="none"/>
    <g id="PricewaterhouseCoopers_Logo" transform="translate(-2187 -24302)">
      <path id="path4061" d="M655.242,237.66H636.265V232.8h18.977Z" transform="translate(-603.069 -220.657)" fill="#574977" opacity="0.3"/>
      <path id="path4103" d="M652.777,105.2H636.265V93.051h16.512Z" transform="translate(-603.069 -88.196)" fill="#574977" opacity="0.3"/>
      <path id="path4089" d="M645.955,17h-9.69V0h9.69Z" transform="translate(-603.069 0)" fill="#574977" opacity="0.3"/>
      <path id="path4075" d="M647.861,51.472h-11.6V36.366h11.6Z" transform="translate(-603.069 -34.468)" fill="#574977" opacity="0.3"/>
      <path id="path4688" d="M636.213,36.421v15.1h9.692v-15.1Z" transform="translate(-603.02 -34.52)" fill="#574977" opacity="0.3"/>
      <path id="path4119" d="M450.016,325.9h9.717v2.429h-9.717Z" transform="translate(-426.538 -308.899)" fill="#574977"/>
      <path id="path4698" d="M636.213,93v12.15h11.6V93Z" transform="translate(-603.02 -88.148)" fill="#574977" opacity="0.3"/>
      <path id="path4693" d="M636.213,93v12.15h9.692V93Z" transform="translate(-603.02 -88.148)" fill="#574977" opacity="0.3"/>
      <path id="path4117" d="M642.324,193.433h-6.06v-7.292h6.06Z" transform="translate(-603.069 -176.43)" fill="#574977" opacity="0.3"/>
      <path id="path4713" d="M636.213,232.87v4.852h16.52V232.87Z" transform="translate(-603.02 -220.72)" fill="#574977" opacity="0.3"/>
      <path id="path4708" d="M636.213,232.87v4.852h11.6V232.87Z" transform="translate(-603.02 -220.72)" fill="#574977" opacity="0.3"/>
      <path id="path4703" d="M636.213,232.87v4.852h9.692V232.87Z" transform="translate(-603.02 -220.72)" fill="#574977" opacity="0.3"/>
      <path id="path4625" d="M636.213,232.87v4.852h6.068V232.87Z" transform="translate(-603.02 -220.72)" fill="#574977" opacity="0.3"/>
      <g id="g2925" transform="translate(0 25.05)">
        <path id="path2850" d="M693.122,157.432c-1.653.294-2.535,1.543-2.535,3.711,0,2.2,1.176,3.674,2.9,3.674a6.986,6.986,0,0,0,3.123-1.066v1.8a9.273,9.273,0,0,1-4.446,1.1,4.7,4.7,0,0,1-3.748-1.4,5.017,5.017,0,0,1-1.47-3.637c0-3.123,2.351-5.291,5.768-5.291,2.241,0,3.821,1.066,3.821,2.572a1.671,1.671,0,0,1-1.8,1.69,3.312,3.312,0,0,1-1.617-.514" transform="translate(-657.814 -156.33)" fill="#574977"/>
        <path id="path2852" d="M379.815,161.62c1.506-1.874,2.058-2.645,2.058-3.564a1.733,1.733,0,0,0-1.764-1.727,2,2,0,0,0-1.4.625v3.858l-2.462,3.307v-7.5H373.9l-3.895,6.43v-6.43h-1.323l-3.564.808v.919l1.947.184v7.973h2.462l3.748-6.173v6.173h2.756" transform="translate(-352.774 -156.33)" fill="#574977"/>
        <path id="path2862" d="M133.386,166.593h.551c1.984,0,3.086-1.212,3.086-3.637,0-2.021-.882-3.123-2.535-3.123a5.965,5.965,0,0,0-1.1.147Zm0,4.336L135,171.3v.919h-6.356V171.3l1.47-.367v-11.1H128.5v-.919l3.858-1.176h1.029v1.323c1.8-1.1,2.425-1.286,3.38-1.286,2.131,0,3.748,1.984,3.748,4.74a5.112,5.112,0,0,1-5.474,5.328c-.367,0-.992-.037-1.653-.073" transform="translate(-128.499 -157.665)" fill="#574977"/>
      </g>
    </g>
  </g>
</svg>
