<svg xmlns="http://www.w3.org/2000/svg" width="86.051" height="48.404" viewBox="0 0 86.051 48.404">
  <g id="Group_26586" data-name="Group 26586" transform="translate(3251 24306)">
    <rect id="Rectangle_12410" data-name="Rectangle 12410" width="86.051" height="48.404" transform="translate(-3251 -24306)" fill="none"/>
    <g id="アートボード1" transform="translate(-3246 -24291)">
      <rect id="Rectangle_12400" data-name="Rectangle 12400" width="76.051" height="18.404" transform="translate(0 0)" fill="none"/>
      <g id="Group_26577" data-name="Group 26577" transform="translate(0.494 0.502)">
        <path id="Path_54903" data-name="Path 54903" d="M62.1,33.865v6.014a1.909,1.909,0,0,1-3.81,0V33.865H54.975V40.53c0,2.251,2.334,4.076,5.207,4.076s5.207-1.825,5.207-4.076V33.865Zm10.777-7.148v17.5h3.332v-17.5Zm-5.658,17.5h3.332v-17.5H67.219ZM50.9,35.115a4.435,4.435,0,0,0,1.47-3.246,4.361,4.361,0,0,0-1.2-3,5.408,5.408,0,0,0-4.1-1.364h-5.7V44.218h7.363a5,5,0,0,0,5.1-4.787C53.816,37.531,53.146,36.172,50.9,35.115Zm-2.792,6.192H44.917V30.386h2.222A1.859,1.859,0,0,1,48.91,32.26a1.768,1.768,0,0,1-1.772,1.768H45.982v3h2.123a2.144,2.144,0,1,1,0,4.289ZM11.972,32.452a4.981,4.981,0,0,0-5.027-4.931H.846v16.7H4.392V30.386H6.228a2.228,2.228,0,0,1,2.305,2.189,2.284,2.284,0,0,1-2.352,2.182H5.358v4l3.528,5.465h4.156l-4.9-6.973A4.952,4.952,0,0,0,11.972,32.452Zm6.2.98A5.589,5.589,0,1,0,23.248,41.9l-2.71-1.253a2.273,2.273,0,0,1-2.089,1.266,2.175,2.175,0,0,1-2.27-2.093V39.7h7.347a6.077,6.077,0,0,0,.03-.67A5.125,5.125,0,0,0,18.174,33.432ZM16.167,37.8a2.039,2.039,0,1,1,4.074,0Zm20.642,6.414v-17.5H33.472V35a4.758,4.758,0,0,0-3.353-1.407,5.243,5.243,0,0,0-4.986,5.454,5.26,5.26,0,0,0,4.986,5.477,4.743,4.743,0,0,0,3.368-1.446v1.176Zm-5.744-2.557a2.7,2.7,0,1,1,2.45-2.689A2.572,2.572,0,0,1,31.065,41.661Z" transform="translate(-0.846 -26.717)" fill="#574977"/>
      </g>
    </g>
  </g>
</svg>
