<svg xmlns="http://www.w3.org/2000/svg" width="72.854" height="47.926" viewBox="0 0 72.854 47.926">
  <g id="Group_26590" data-name="Group 26590" transform="translate(2673 24306)">
    <rect id="Rectangle_12414" data-name="Rectangle 12414" width="72.854" height="47.927" transform="translate(-2673 -24306)" fill="none"/>
    <g id="Reddit_logo" transform="translate(-2668 -24292)">
      <ellipse id="Ellipse_1663" data-name="Ellipse 1663" cx="2.344" cy="2.344" rx="2.344" ry="2.344" transform="translate(50.107 1.465)" fill="#574977"/>
      <path id="Path_54881" data-name="Path 54881" d="M48.694,34.531a1.648,1.648,0,0,0,1.756-1.693,5.626,5.626,0,0,0-.118-.945,6.473,6.473,0,0,0-6.1-5.274c-3.479,0-6.3,3.148-6.3,7.033s2.821,7.032,6.3,7.032A6.25,6.25,0,0,0,49.1,38.646a1.355,1.355,0,0,0-.223-2.026,1.423,1.423,0,0,0-1.749.178,4.317,4.317,0,0,1-2.9,1.25,3.9,3.9,0,0,1-3.589-3.516Zm-4.463-5.274a3.777,3.777,0,0,1,3.454,2.93H40.778A3.775,3.775,0,0,1,44.231,29.257Z" transform="translate(-29.58 -20.758)" fill="#574977"/>
      <path id="Path_54882" data-name="Path 54882" d="M8.5,27.983a1.318,1.318,0,0,0-1.1-1.3,5.1,5.1,0,0,0-4.759,1.725v-.176a1.319,1.319,0,1,0-2.639,0V39.022A1.353,1.353,0,0,0,1.237,40.39a1.319,1.319,0,0,0,1.4-1.316V33.507A4.006,4.006,0,0,1,7.031,29.3a1.183,1.183,0,0,0,.26,0A1.318,1.318,0,0,0,8.5,27.983Z" transform="translate(0.001 -20.759)" fill="#574977"/>
      <path id="Path_54883" data-name="Path 54883" d="M234.884,34.592a1.319,1.319,0,1,0-2.637,0v9.67a1.319,1.319,0,1,0,2.637,0Z" transform="translate(-181.114 -25.947)" fill="#574977"/>
      <path id="Path_54884" data-name="Path 54884" d="M111.461,1.319A1.319,1.319,0,0,0,110.142,0h0a1.319,1.319,0,0,0-1.319,1.319V7.207a4.6,4.6,0,0,0-3.37-1.347c-3.479,0-6.3,3.148-6.3,7.033s2.821,7.032,6.3,7.032a4.657,4.657,0,0,0,3.394-1.364,1.318,1.318,0,0,0,2.613-.248Zm-6.007,15.97c-2.023,0-3.663-1.968-3.663-4.4s1.64-4.395,3.663-4.395,3.663,1.968,3.663,4.4S107.477,17.289,105.454,17.289Z" transform="translate(-77.324)" fill="#574977"/>
      <path id="Path_54885" data-name="Path 54885" d="M174.015,1.319A1.319,1.319,0,0,0,172.7,0h0a1.319,1.319,0,0,0-1.319,1.319V7.207a4.6,4.6,0,0,0-3.37-1.347c-3.479,0-6.3,3.148-6.3,7.033s2.821,7.032,6.3,7.032a4.658,4.658,0,0,0,3.394-1.364,1.318,1.318,0,0,0,2.613-.248Zm-6.007,15.97c-2.023,0-3.663-1.968-3.663-4.4s1.64-4.395,3.663-4.395,3.663,1.968,3.663,4.4S170.031,17.289,168.008,17.289Z" transform="translate(-126.105)" fill="#574977"/>
      <path id="Path_54886" data-name="Path 54886" d="M257.152,28.69V18.874h1.172a1.2,1.2,0,0,0,1.21-1.094,1.172,1.172,0,0,0-1.17-1.25h-1.212V14.669a1.349,1.349,0,0,0-1.231-1.361,1.319,1.319,0,0,0-1.406,1.316v1.9h-1.092a1.2,1.2,0,0,0-1.21,1.094,1.172,1.172,0,0,0,1.17,1.25h1.132V28.69a1.319,1.319,0,0,0,1.319,1.319h0A1.319,1.319,0,0,0,257.152,28.69Z" transform="translate(-196.682 -10.375)" fill="#574977"/>
    </g>
  </g>
</svg>
