<svg xmlns="http://www.w3.org/2000/svg" width="47.471" height="47.941" viewBox="0 0 47.471 47.941">
  <g id="Group_26583" data-name="Group 26583" transform="translate(3620 24306.001)">
    <rect id="Rectangle_12405" data-name="Rectangle 12405" width="47.471" height="47.942" transform="translate(-3620 -24306)" fill="none"/>
    <g id="renault-new-2021-seeklogo.com-1" transform="translate(-3615 -24302)">
      <g id="Group_26578" data-name="Group 26578" transform="translate(6.985 0)">
        <path id="Path_54905" data-name="Path 54905" d="M67.982-79.81c-.4.75-5.813,10.873-8.144,15.222a.375.375,0,0,0,0,.406c2.284,4.262,6.912,12.907,6.96,12.988.048-.08,4.676-8.726,6.96-12.987a.373.373,0,0,0,0-.406q-1.96-3.646-3.912-7.3a.39.39,0,0,1,0-.428c.359-.648.7-1.3,1.068-1.983.052.088,3.515,6.552,5.213,9.72a.342.342,0,0,1,0,.37q-4.031,7.523-8.051,15.053a.3.3,0,0,1-.307.193c-.664-.011-1.328-.008-1.992,0a.238.238,0,0,1-.246-.147q-4.041-7.567-8.09-15.13a.271.271,0,0,1,0-.292q4.05-7.564,8.1-15.128c.034-.063.114-.145.174-.145C66.459-79.813,67.2-79.81,67.982-79.81Z" transform="translate(-57.408 79.815)" fill="#574977"/>
        <path id="Path_54906" data-name="Path 54906" d="M142.27-76.788c-1.235,2.3-4.641,8.663-6.5,12.128a.375.375,0,0,0,0,.406q1.96,3.647,3.912,7.3a.39.39,0,0,1,0,.428c-.359.648-.7,1.3-1.068,1.984-.048-.082-3.511-6.547-5.213-9.721a.342.342,0,0,1,0-.37q4.03-7.522,8.05-15.053a.3.3,0,0,1,.307-.192c.664.011,1.328.008,1.992,0a.239.239,0,0,1,.246.148q4.042,7.567,8.09,15.13a.27.27,0,0,1,0,.292q-4.049,7.562-8.1,15.127c-.034.063-.114.144-.174.145-.741.01-1.481.006-2.258.006.051-.1,5.465-10.232,8.139-15.222a.373.373,0,0,0,0-.406c-2.284-4.262-6.912-12.907-6.96-12.987-.009.015-.178.33-.462.86" transform="translate(-128.627 79.881)" fill="#574977"/>
      </g>
      <g id="Group_26579" data-name="Group 26579" transform="translate(0 34.169)">
        <path id="Path_54907" data-name="Path 54907" d="M-53.446,475.633h-1.123v-4.879a.233.233,0,0,0-.021-.122.248.248,0,0,0-.106-.063l-.3-.118.093-.49h2.836a2.4,2.4,0,0,1,1.578.418,1.7,1.7,0,0,1,.481,1.347,1.848,1.848,0,0,1-.3,1.131,1.446,1.446,0,0,1-.933.515l1.385,2.263H-51.1l-1.258-2.136h-1.089Zm0-2.98H-52.2a1.286,1.286,0,0,0,.831-.211.9.9,0,0,0,.249-.718.885.885,0,0,0-.249-.709,1.29,1.29,0,0,0-.831-.211h-1.249Z" transform="translate(55 -469.96)" fill="#574977"/>
        <path id="Path_54908" data-name="Path 54908" d="M40.814,469.97v.861H37.843v1.511h2.364v.827H37.843v1.613h3.039v.861H36.721v-4.879a.233.233,0,0,0-.021-.122.248.248,0,0,0-.106-.063l-.3-.118.093-.49h4.432Z" transform="translate(-30.617 -469.969)" fill="#574977"/>
        <path id="Path_54909" data-name="Path 54909" d="M118.631,470.754a.233.233,0,0,0-.021-.122.249.249,0,0,0-.106-.063l-.3-.118.093-.49h1.266a.3.3,0,0,1,.165.03,1.1,1.1,0,0,1,.139.165l2.913,3.942v-4.136h1.038v5.672h-1.089L119.67,471.5v4.136h-1.038v-4.879Z" transform="translate(-107.437 -469.96)" fill="#574977"/>
        <path id="Path_54910" data-name="Path 54910" d="M221.844,469.97q.169.3.363.73t.4.924q.207.5.41,1.038t.384,1.072q.182.531.334,1.022t.253.886h-1.131q-.093-.346-.194-.675t-.195-.65h-2.5q-.1.321-.2.65t-.19.675H218.45q.1-.4.254-.886t.334-1.022q.182-.532.384-1.072t.41-1.038q.207-.5.4-.924t.363-.73Zm-.625,1q-.541,1.216-.979,2.524H222.2Q221.742,472.181,221.218,470.966Z" transform="translate(-201.458 -469.969)" fill="#574977"/>
        <path id="Path_54911" data-name="Path 54911" d="M310.161,470.754a.239.239,0,0,0-.021-.122.248.248,0,0,0-.106-.063l-.3-.118.093-.49h1.384c.05,0,.076.028.076.085v3.284a1.631,1.631,0,0,0,.346,1.165,1.964,1.964,0,0,0,2.25,0,1.641,1.641,0,0,0,.342-1.165V469.96h1.123v3.453a3.315,3.315,0,0,1-.148,1.055,1.665,1.665,0,0,1-.46.721,1.914,1.914,0,0,1-.806.414,5.379,5.379,0,0,1-2.355,0,1.9,1.9,0,0,1-.806-.414,1.666,1.666,0,0,1-.46-.721,3.316,3.316,0,0,1-.148-1.055v-2.659Z" transform="translate(-287.065 -469.96)" fill="#574977"/>
        <path id="Path_54912" data-name="Path 54912" d="M414.491,470.754a.233.233,0,0,0-.021-.122.248.248,0,0,0-.106-.063l-.3-.118.093-.49h1.384c.05,0,.076.028.076.085v4.727H418.2v.861H414.49v-4.879Z" transform="translate(-384.912 -469.96)" fill="#574977"/>
        <path id="Path_54913" data-name="Path 54913" d="M472.541,470.821H470.7v-.861h4.8v.861h-1.84v4.812h-1.123Z" transform="translate(-438.033 -469.96)" fill="#574977"/>
      </g>
    </g>
  </g>
</svg>
