<svg xmlns="http://www.w3.org/2000/svg" width="56.113" height="48.219" viewBox="0 0 56.113 48.219">
  <g id="Group_26593" data-name="Group 26593" transform="translate(2307 24306)">
    <rect id="Rectangle_12417" data-name="Rectangle 12417" width="56.113" height="48.219" transform="translate(-2307 -24306)" fill="#fff" opacity="0"/>
    <g id="g4387" transform="translate(-2302 -24305)">
      <g id="g4381" transform="translate(0 0)">
        <path id="inner_artwork" d="M25.507,10.081a12.285,12.285,0,0,1,2.355,1.728l-.26.262a32.326,32.326,0,0,0-3.927.054c-.138-.14-.417-.349-.157-.525l1.99-1.519ZM48.643,26.335a4.014,4.014,0,0,1-.157,1.7c-2.39.68-3.961-1.851-6.28-1.469l.262,1.312c2.146.071,3.486,2.128,5.7,2.04-.315.629.141,2.286-1.255,1.624-1.448-.348-2.5-1.624-4.083-1.624-.191.352-.07.838-.1,1.254,1.674.263,2.879,1.678,4.552,1.939a2.765,2.765,0,0,1-.785,1.57c-1.362-.331-2.425-1.554-3.875-1.519l-.258,1.2c1.378.035,2.268,1.254,3.506,1.62.034.508-.42.962-.682,1.416-1.1-.33-1.938-1.274-3.193-1.2-.017-.473.263-1.011.157-1.516-1.411.42-2.356-.891-3.4-1.677-.03-2.573-2.739-4.261-2.882-6.671a3.58,3.58,0,0,1,.265-1.545,8.252,8.252,0,0,0-.366-6.65,3.765,3.765,0,0,0-1.312-1.2c.717,1.519,1.59,3.313,1.154,5.18-.05,1.441-.9,2.826-.911,4.215a2.9,2.9,0,0,0,.387,1.491c1.135,2.044,3.177,3.979,2.409,6.542-.211.787-.84,1.4-1,2.2,1.328,1.1,2.583,2.339,4.344,2.408.628-.4.279-2.179,1.57-1.359l1.885.943a3.023,3.023,0,0,1-.943,1.3,4.744,4.744,0,0,0-2.3-.731,1.363,1.363,0,0,0-.469.993,4.2,4.2,0,0,1,1.728.735,4.345,4.345,0,0,1-1.154,1.254l-1.462-.523c-.244.349-.751.717-.573,1.1a3.052,3.052,0,0,1,.939.577,9.736,9.736,0,0,1-2.251,1.62c-.678-2.217-2.913-3.771-2.721-6.334l-.1-.1c-.525.59-.35,1.535-.316,2.3.629,1.606,2.128,2.846,2.355,4.606-.263.453-.854.543-1.308.735.053-3.174-4.762-5.582-1.675-8.793,1.03-1.572,2.755-3.073,2.144-5.237-.628-2.09-2.848-3.385-2.828-5.728l0-.183c.506-2.443,2.042-5.043.785-7.643a4.425,4.425,0,0,0-2.2-2.67,7.478,7.478,0,0,1,1.308,7.223A9.441,9.441,0,0,0,32.1,26.336h0a2.735,2.735,0,0,0,.473,1.753c1.2,1.955,3.3,4.1,2.094,6.65-1.361,2.04-3.733,4.116-2.408,6.8.96,1.605,2.444,3.207,2.043,5.18l-1.57.523c1.047-3.68-4.083-5.843-1.936-9.524,1.326-1.971,3.7-3.821,2.355-6.438-.8-1.621-2.461-2.581-2.408-4.607l.057-.34c.54-2.873,2.725-5.593,1.2-8.664A5.456,5.456,0,0,0,29.9,15.317l-.054.054a6.344,6.344,0,0,1,1.362,6.854c-.448,1.34-1.431,2.676-1.631,4.112a3.377,3.377,0,0,0,.376,2.118c1.134,1.8,3.122,3.7,1.882,6.022-1.307,1.917-3.488,3.783-2.617,6.277.96,2.182,2.964,4.26,1.882,6.965l-1.62.366c1.291-2.636-.645-5.252-1.778-7.539-1.379-3.28,2.963-4.851,3.033-7.85-.016-1.936-2.074-3.035-2.509-4.814-.891-.751-1.814.3-2.879.1-.786.158-1.993-1.082-2.463.262-.559,1.971-3.1,3.419-1.986,5.756,1.065,2.077,3.627,3.6,2.771,6.284-.766,2.511-3.3,4.9-1.728,7.8-.645-.209-1.849.191-1.832-.839-.994-3.507,3.245-5.55,1.936-9.055-.609-2.147-3.385-3.333-2.774-5.915.452-2.125,2.837-3.611,2.5-5.94a3.436,3.436,0,0,0-.144-.6c-.89-2.512-2.706-5.025-1.624-7.958a10.263,10.263,0,0,1,1.412-2.3,5.291,5.291,0,0,0-2.563,4.868c-.075,2.162,1.522,4.015,1.749,5.994a3.653,3.653,0,0,1-.6,2.484C18.877,30.357,17.4,31.978,18.075,34c.646,2.042,3.193,3.279,3.036,5.653-.017,2.808-3.28,4.556-2.355,7.7l-1.624-.527c-.645-2.79,2.321-4.218,2.355-6.8.42-2.969-3.367-4.071-3.14-6.965-.016-2.2,1.919-3.592,2.774-5.441a3.543,3.543,0,0,0,.176-1.283c-.1-2.045-1.948-3.644-1.642-5.944a7.278,7.278,0,0,1,1.778-4.448c-1.517.609-2.144,2.356-2.563,3.822-.727,2.35,1.009,4.465,1.183,6.57a3.478,3.478,0,0,1-1.025,2.8c-1.257,1.481-2.531,3.35-1.624,5.341.961,2.2,3.98,3.906,2.67,6.646-.714,1.728-2.425,3.035-2.355,5.076a4.453,4.453,0,0,1-1.309-.731c0-2.6,3.7-4.223,1.936-6.962-.156.54-.19,1.275-.312,1.886-.611,1.588-1.919,2.86-2.409,4.5a7.2,7.2,0,0,1-2.355-1.677l.943-.577a2.971,2.971,0,0,0-.627-.942c-.612-.086-1.015.316-1.519.473a7.848,7.848,0,0,1-1.2-1.2c.313-.892,2.759-.154,1.52-1.62-.837-.523-1.676.224-2.409.573l-.993-1.254c.855-.523,1.708-1.257,2.771-1.047.262.472.28,1.166.785,1.412,1.8-.035,3.071-1.394,4.449-2.459-.96-1.429-1.742-3.4-.889-5.13.683-1.732,2.464-3.19,2.545-5.1a3.4,3.4,0,0,0-.24-1.388c-.942-2.425-1.274-5.7.523-7.85-.977.263-1.553,1.481-1.885,2.405-1.08,2.368.286,4.563.333,6.832a4.895,4.895,0,0,1-.126,1.23c-.925,1.867-2.424,3.5-2.667,5.653-1.065.679-1.939,1.867-3.456,1.466a4.02,4.02,0,0,0,.208,1.466c-1.2-.051-2.023.836-3.036,1.255-.54-.173-.68-.871-.889-1.359,1.186-.4,2.041-1.589,3.4-1.57.158-.438-.088-.84-.158-1.258-1.693-.752-4.377,3.715-4.6-.157,1.692-.1,2.773-1.675,4.449-1.832l.05-1.254c-1.9-.192-3.125,1.763-5.026,1.57L3.1,29.869c2.2.137,3.509-1.833,5.6-1.939a2.854,2.854,0,0,0,.365-1.412c-2.286-.3-3.854,2.235-6.28,1.466,0,0-.084-1.054-.129-1.649h0c-.016-.232-.032-.394-.032-.394,2.163.839,4.064-.714,5.915-1.516.471-.141,1.2.1,1.416-.42-.018-.4.714-.871.1-1.151-2.706-.367-4.5,2.9-7.277,1.412l-.208-.42a23.475,23.475,0,0,1,12.4-19.26A21.675,21.675,0,0,1,25.431,1.977,21.623,21.623,0,0,1,37.913,5.53,22.766,22.766,0,0,1,48.7,24.109c-2.862,2.162-4.782-2.037-7.7-1.1a3.629,3.629,0,0,0,.577,1.308c2.583-.018,4.362,2.686,7.065,1.62l0,.394ZM15.769,16.624c-1.815-1.187-4.115-.069-5.807.577a5.684,5.684,0,0,0-2.147-4.082,1.43,1.43,0,0,0-.473-.212.27.27,0,0,0-.262.157c.61,3.75-1.828,6.367-3.556,9.212a2.754,2.754,0,0,0,2.2.262c1.832-.732,3.576-2.007,5.757-1.57A16.166,16.166,0,0,1,14.1,17.932c.543-.47,1.289-.768,1.674-1.308Zm5.549,2.355c-.035.226.017.628.366.473.542-.75,1.5-.157,2.094-.1v-.211A1.879,1.879,0,0,0,22.1,18.4a2.476,2.476,0,0,0-.47.064.407.407,0,0,0-.316.52Zm8.531-2.248a3.612,3.612,0,0,0-2.617-1.782,13.6,13.6,0,0,0-1.523-.107c-.1,0-.191,0-.287,0a4.287,4.287,0,0,0-3.631,1.573c-.12.332-.647.8-.157,1.1,1.1-.07,2.354-.208,3.086.735,0,.838.541,1.954-.366,2.355-.751-.7-1.641.3-2.459-.262-.384-.227-.628.038-.785.369a6.147,6.147,0,0,0,2.929,5.753,3.738,3.738,0,0,0,2.778.157c2.059-.959,2.911-3.156,3.295-5.18-.051-.385-.033-1.136-.574-1.154a2.927,2.927,0,0,1-2.147,0c-.382.123-.4.683-.835.789l-.265-.212c-.227-.958-.367-2.319.524-2.982a4.909,4.909,0,0,1,3.193-.262c.192-.331-.1-.592-.158-.889Zm-1.05,1.72-.2.007c-.366.244-1.431.069-1.046.889.663-.525,1.588-.157,2.251.1.245-.122.192-.366.208-.577C29.795,18.48,29.286,18.442,28.8,18.452Zm7.6-7.377c-1.291-.069-2.373.665-3.559,1-.1-1.01.664-2.076.839-3.09-1.919.123-3.438,1.278-5.025,2.2q-.551-1.331-1.1-2.67l2.094-1.989.054-.262L26.868,6.1a26.511,26.511,0,0,0-1.255-2.667c-.471.89-.788,1.831-1.258,2.72l-2.825.158v.208l2.144,1.936a7.046,7.046,0,0,1-1.151,2.828,24.9,24.9,0,0,0-3.871-2.094c-.331-.107-.8-.281-1.1-.054a6.353,6.353,0,0,1,.943,3.04,16.274,16.274,0,0,1-1.57-.631,3.824,3.824,0,0,0-2.043-.312,11.5,11.5,0,0,1,2.2,4.76,19.434,19.434,0,0,1,11.729-1.882,28.705,28.705,0,0,1,5.546,1.778c.069-1.848,1.238-3.334,2.042-4.818ZM42.36,21.126c1.778.471,3.562,2.408,5.445,1.151-1.64-2.721-4.081-5.234-3.4-8.793a.41.41,0,0,0-.312-.523,4.594,4.594,0,0,0-2.309,2.513,15.582,15.582,0,0,1-.52,1.831,7.444,7.444,0,0,0-4.187-1.151c-.56.07-1.363.106-1.466.681A12.164,12.164,0,0,1,39.9,21.023a8.378,8.378,0,0,1,2.459.1ZM23.727,23.586l.05.315c.682.454.891,1.224,1.835,1.154.837.05,1.465-.734,1.882-1.362-1.133-.156-2.511.086-3.767-.107Zm.943-1.412c.034.14-.086.349.1.42.558-.121,1.57.3,1.882-.366a1.254,1.254,0,0,0-.946-.355A1.893,1.893,0,0,0,24.67,22.173Z" transform="translate(-2.582 -1.977)" fill="#574977"/>
        <g id="g4377" transform="translate(21.782 19.992)">
          <path id="path3032-6" d="M141.539,129.884c.494.117.617.292,1.007.341.415-.007.355-.092,1.08-.342a.126.126,0,0,0,.032-.2c-.45-.447-.761-.128-1.043-.119-.374,0-.725-.32-1.09.1-.062.086-.095.17.014.22Z" transform="translate(-141.468 -129.444)" fill="#574977"/>
        </g>
      </g>
      <g id="text4354" transform="translate(39.127 43.525)">
        <path id="path4430" d="M252.859,282.187v-2.239h-.8v-.456H254.2v.456h-.8v2.239Z" transform="translate(-252.06 -279.493)" fill="#574977"/>
        <path id="path4432" d="M267.916,282.186v-2.694h.814l.489,1.838.483-1.838h.816v2.694h-.505v-2.121l-.535,2.121h-.524l-.533-2.121v2.121Z" transform="translate(-265.429 -279.492)" fill="#574977"/>
      </g>
    </g>
  </g>
</svg>
