<svg xmlns="http://www.w3.org/2000/svg" width="103.567" height="48.25" viewBox="0 0 103.567 48.25">
  <g id="Group_26595" data-name="Group 26595" transform="translate(2084 24305.999)">
    <rect id="Rectangle_12419" data-name="Rectangle 12419" width="103.567" height="48.249" transform="translate(-2084 -24306)" fill="none"/>
    <g id="g11" transform="translate(-2079 -24288)">
      <path id="path39" d="M398.1-782.261l.016,2.932c-.039.028-.214.049-.223.024-.7-1.726-1.254-2.625-3.342-2.625h-.241v9.095a1.251,1.251,0,0,0,.284.987,2.541,2.541,0,0,0,1.225.216c.026,0,.029.257,0,.257H391.3c-.029,0-.025-.257,0-.257a2.536,2.536,0,0,0,1.224-.216,1.248,1.248,0,0,0,.285-.987v-9.095h-.241c-2.087,0-2.645.9-3.342,2.625-.01.024-.184,0-.223-.024l.016-2.932h9.08" transform="translate(-388.999 782.469)" fill="#574977"/>
      <path id="path41" d="M479.241-755.258a1.183,1.183,0,0,1-.262.927,1.847,1.847,0,0,1-1.064.187c-.028,0-.032.24,0,.24h4.093c.032,0,.029-.24,0-.24a1.848,1.848,0,0,1-1.064-.187,1.18,1.18,0,0,1-.262-.927v-5.849a1.178,1.178,0,0,1,.262-.927,1.848,1.848,0,0,1,1.064-.186c.029,0,.032-.241,0-.241h-4.093c-.032,0-.028.241,0,.241a1.848,1.848,0,0,1,1.064.186,1.181,1.181,0,0,1,.262.927v5.849" transform="translate(-467.436 764.998)" fill="#574977"/>
      <path id="path43" d="M533.776-762.461h-6.349c-.029,0-.026.241,0,.241a1.594,1.594,0,0,1,.979.186,1.262,1.262,0,0,1,.238.927v5.849a1.264,1.264,0,0,1-.238.927,1.594,1.594,0,0,1-.979.187c-.026,0-.029.24,0,.24h4.063c.031,0,.028-.24,0-.24a2.161,2.161,0,0,1-1.143-.187,1.179,1.179,0,0,1-.263-.927v-2.778h.652a1.866,1.866,0,0,1,1.254.314,1.186,1.186,0,0,1,.413.886c0,.028.129.033.2,0v-2.725c-.075-.032-.2-.028-.2,0a1.26,1.26,0,0,1-.413.92,1.859,1.859,0,0,1-1.254.326h-.652v-3.835h.751c1.94,0,2.526.923,2.818,2,.006.024.176,0,.17-.025l-.047-2.283" transform="translate(-511.126 764.998)" fill="#574977"/>
      <path id="path45" d="M599.435-762.461h-6.349c-.029,0-.026.241,0,.241a1.594,1.594,0,0,1,.979.186,1.258,1.258,0,0,1,.238.927v5.849a1.26,1.26,0,0,1-.238.927,1.594,1.594,0,0,1-.979.187c-.026,0-.029.24,0,.24h4.063c.032,0,.029-.24,0-.24a2.162,2.162,0,0,1-1.142-.187,1.18,1.18,0,0,1-.263-.927v-2.778h.652a1.867,1.867,0,0,1,1.254.314,1.183,1.183,0,0,1,.413.886c0,.028.129.033.2,0v-2.725c-.075-.032-.2-.028-.2,0a1.256,1.256,0,0,1-.413.92,1.86,1.86,0,0,1-1.254.326h-.652v-3.835h.751c1.94,0,2.526.923,2.817,2,.007.024.177,0,.171-.025l-.047-2.283" transform="translate(-569.062 764.998)" fill="#574977"/>
      <path id="path47" d="M650.515-758.984l1.3-3.555,1.31,3.555h-2.607m6.006,3.1c-.674-.088-.9-.318-1.212-1.125l-2.747-7.413a1,1,0,0,0-.42,0l-2.688,7.254c-.363.946-.651,1.115-1.471,1.285-.024,0-.029.23,0,.23h2.607c.029,0,.026-.229,0-.23-.762-.057-1.089-.346-.728-1.285l.549-1.508h2.83l.589,1.551c.308.8.023,1.179-.8,1.241-.025,0-.028.23,0,.23h3.488c.029,0,.025-.227,0-.23" transform="translate(-617.502 766.745)" fill="#574977"/>
      <path id="path49" d="M732.5-762.461h-3c-.029,0-.025.239,0,.241.647.057.962.116,1.13.4a3.485,3.485,0,0,1,.28,1.634v4.059l-4.84-6.338h-2.467c-.03,0-.026.241,0,.241a1.176,1.176,0,0,1,1.339,1.237v4.844a3.362,3.362,0,0,1-.239,1.589c-.166.285-.345.352-.949.406-.025,0-.029.24,0,.24h2.975c.029,0,.025-.239,0-.24-.647-.059-.961-.116-1.13-.406a3.284,3.284,0,0,1-.281-1.589v-4.938l5.654,7.254c.05.064.315.059.315,0v-6.359a3.579,3.579,0,0,1,.239-1.634c.168-.288.333-.347.978-.4.026,0,.03-.241,0-.241" transform="translate(-684.22 764.998)" fill="#574977"/>
      <path id="path51" d="M812.01-762.461H809.4c-.027,0-.026.239,0,.241.8.027,1.07.317.785.884l-1.71,3.189-1.884-3.242c-.281-.542.034-.831.816-.831.025,0,.027-.241,0-.241h-3.574c-.029,0-.024.239,0,.241a1.123,1.123,0,0,1,1.151.751l2.235,3.913v2.3a1.263,1.263,0,0,1-.243.927,1.719,1.719,0,0,1-1.014.187c-.025,0-.028.24,0,.24h3.955c.028,0,.025-.24,0-.24a1.72,1.72,0,0,1-1.014-.187,1.267,1.267,0,0,1-.243-.927v-2.551l1.973-3.551a1.448,1.448,0,0,1,1.377-.859c.025,0,.032-.241,0-.241" transform="translate(-755.019 764.998)" fill="#574977"/>
      <path id="path53" d="M892.78-769.087a2.4,2.4,0,0,1,1.476-2.329l2.792,3.675a3.26,3.26,0,0,1-2.127.993,2.139,2.139,0,0,1-2.141-2.339m2.844-6.839c.792,0,1.262.59,1.262,1.539a2.548,2.548,0,0,1-1.638,2.2,3.626,3.626,0,0,1-.923-2.222c0-1.042.543-1.522,1.3-1.522m5.653,4.523h-3.419c-.031.092-.029.223,0,.224.875.026,1.255.362.936,1.035a8.8,8.8,0,0,1-.826,1.417l-2.488-3.179c1.485-.72,2.251-1.455,2.251-2.615a2.014,2.014,0,0,0-2.173-1.765,2.441,2.441,0,0,0-2.474,2.257,3.688,3.688,0,0,0,.977,2.353c-1.5.5-2.768,1.7-2.768,3.079a2.683,2.683,0,0,0,2.872,2.65,4.256,4.256,0,0,0,3.1-1.549l1.022,1.393h2.65c.031,0,.022-.237,0-.237a1.966,1.966,0,0,1-.925-.2,3.23,3.23,0,0,1-1.033-.919l-.8-1.031c.471-.611.863-1.277,1.3-1.882.342-.47.706-.691,1.8-.783.026,0,.033-.155,0-.247" transform="translate(-832.209 777.196)" fill="#574977"/>
      <path id="path55" d="M1008.656-776.22c0-.03-.208-.055-.223.014a3.55,3.55,0,0,1-3.1,3.076c-2.453,0-4.016-2.144-4.016-5.215s1.366-5.273,3.76-5.273a3.568,3.568,0,0,1,3.276,2.937c.005.025.229,0,.223-.025l-.089-3.3c-.006-.026-.233-.029-.237,0-.056.476-.357.734-.834.547a6.4,6.4,0,0,0-2.28-.512,5.729,5.729,0,0,0-5.727,5.625,5.641,5.641,0,0,0,5.727,5.566,5.714,5.714,0,0,0,3.355-.9l.16-2.543" transform="translate(-927.614 784.027)" fill="#574977"/>
      <path id="path57" d="M1096.88-759.091c0,2.415-.9,4.1-2.6,4.1s-2.606-1.689-2.606-4.1.9-4.1,2.606-4.1,2.6,1.689,2.6,4.1m-6.9,0a4.343,4.343,0,0,0,4.295,4.4,4.342,4.342,0,0,0,4.294-4.4,4.342,4.342,0,0,0-4.294-4.4,4.343,4.343,0,0,0-4.295,4.4" transform="translate(-1007.528 765.906)" fill="#574977"/>
      <path id="path59" d="M1170.014-704.367a.9.9,0,0,1,.9.922.906.906,0,0,1-.9.922.906.906,0,0,1-.9-.922.9.9,0,0,1,.9-.922" transform="translate(-1077.35 713.737)" fill="#574977"/>
    </g>
  </g>
</svg>
