<svg xmlns="http://www.w3.org/2000/svg" width="104.259" height="48.055" viewBox="0 0 104.259 48.055">
  <g id="Group_26588" data-name="Group 26588" transform="translate(2987 24306)">
    <rect id="Rectangle_12412" data-name="Rectangle 12412" width="104.259" height="48.055" transform="translate(-2987 -24306)" fill="#fff" opacity="0"/>
    <g id="TripAdvisor_Logo" transform="translate(-2982 -24292)">
      <path id="Path_54901" data-name="Path 54901" d="M832.578,142.713a.53.53,0,1,0,.53.53A.53.53,0,0,0,832.578,142.713Zm0,.976a.446.446,0,1,1,.447-.446A.446.446,0,0,1,832.578,143.688Zm.173-.537a.151.151,0,0,0-.169-.153h-.169v.483h.083v-.175h.091l.087.175h.09l-.1-.193A.142.142,0,0,0,832.751,143.152Zm-.173.08H832.5v-.16h.082c.056,0,.09.028.09.08S832.633,143.231,832.578,143.231Zm-63.843-5.881v-1.282h-1.965v7.624h1.965v-4.572c0-.828.531-1.235,1.359-1.235h1.075v-1.818h-.919A1.448,1.448,0,0,0,768.735,137.35Zm4.275-4.3a1.2,1.2,0,1,0,1.188,1.2A1.18,1.18,0,0,0,773.01,133.053Zm-.98,10.64h1.96v-7.624h-1.96Zm11.3-3.812a3.941,3.941,0,0,1-3.941,3.941,3.792,3.792,0,0,1-2.313-.774v2.883h-1.96v-9.862h1.96v.645a3.792,3.792,0,0,1,2.313-.774A3.941,3.941,0,0,1,783.328,139.881Zm-1.973,0a2.141,2.141,0,1,0-2.141,2.141A2.141,2.141,0,0,0,781.356,139.881Zm36.044-.669-1.144-.314c-.753-.2-1.045-.427-1.045-.824s.412-.659,1-.659a.92.92,0,0,1,1,.838v.044h1.807v-.044c0-1.383-1.128-2.313-2.808-2.313-1.663,0-2.872.929-2.872,2.209a2.143,2.143,0,0,0,1.811,2.058l1.1.3c.832.231,1.142.486,1.142.944,0,.483-.447.808-1.112.808a1.068,1.068,0,0,1-1.16-1.091v-.044H813.2v.044c0,1.564,1.259,2.657,3.063,2.657,1.737,0,3-1.068,3-2.537C819.259,140.565,818.937,139.622,817.4,139.212Zm-27.118-3.143h1.96v7.624h-1.96v-.645a3.791,3.791,0,0,1-2.313.774,3.941,3.941,0,0,1,0-7.882,3.791,3.791,0,0,1,2.313.774Zm0,3.812h0a2.141,2.141,0,1,0-2.141,2.141A2.141,2.141,0,0,0,790.282,139.881Zm9.039-6.525h1.96v10.339h-1.96v-.645a3.791,3.791,0,0,1-2.313.774,3.941,3.941,0,0,1,0-7.882,3.791,3.791,0,0,1,2.313.774Zm0,6.525a2.141,2.141,0,1,0-2.141,2.141A2.141,2.141,0,0,0,799.321,139.881Zm11.062,3.812h1.96v-7.624h-1.96Zm.98-10.64a1.2,1.2,0,1,0,1.187,1.2A1.18,1.18,0,0,0,811.363,133.053Zm16.369,6.828a3.941,3.941,0,1,1-3.941-3.941A3.941,3.941,0,0,1,827.732,139.881Zm-1.8,0a2.141,2.141,0,1,0-2.141,2.141A2.141,2.141,0,0,0,825.932,139.881Zm-58.2-6.525h-7.52V135.1H763v8.589h1.954V135.1h2.784v-1.749Zm38.029,8.249-1.744-5.536h-2.059l2.616,7.624h2.359l2.631-7.624h-2.059ZM830.6,137.35v-1.282H828.64v7.624H830.6v-4.572c0-.828.531-1.235,1.359-1.235h1.076v-1.818h-.919A1.449,1.449,0,0,0,830.6,137.35Z" transform="translate(-738.849 -129.314)" fill="#574977"/>
      <path id="Subtraction_150" data-name="Subtraction 150" d="M10.025,20.055A10.028,10.028,0,0,1,0,10.026,10.025,10.025,0,0,1,17.114,2.937a10.02,10.02,0,0,1,0,14.178A9.95,9.95,0,0,1,10.025,20.055ZM8.842,13.518v0l1.183,1.286,1.186-1.29A3.7,3.7,0,1,0,16.216,8.07l1.215-1.313H14.745a8.379,8.379,0,0,0-9.433,0H2.627L3.835,8.07a3.7,3.7,0,1,0,5.007,5.451Zm4.881-.212a2.5,2.5,0,1,1,2.5-2.5A2.506,2.506,0,0,1,13.723,13.306Zm0-3.816A1.312,1.312,0,1,0,15.037,10.8,1.312,1.312,0,0,0,13.723,9.49ZM6.33,13.306a2.5,2.5,0,1,1,2.5-2.5A2.506,2.506,0,0,1,6.33,13.306Zm0-3.816A1.314,1.314,0,1,0,7.638,10.8,1.315,1.315,0,0,0,6.33,9.49Zm3.7,1.167h0A4.122,4.122,0,0,0,7.25,7.069a7.215,7.215,0,0,1,5.553,0A4.123,4.123,0,0,0,10.026,10.657Z" transform="translate(0)" fill="#574977"/>
    </g>
  </g>
</svg>
