<svg xmlns="http://www.w3.org/2000/svg" width="97.841" height="48.063" viewBox="0 0 97.841 48.063">
  <g id="Group_26589" data-name="Group 26589" transform="translate(2825 24306)">
    <rect id="Rectangle_12413" data-name="Rectangle 12413" width="97.841" height="48.063" transform="translate(-2825 -24306)" fill="none"/>
    <g id="Walmart_logo" transform="translate(-2820 -24293)">
      <path id="Path_54887" data-name="Path 54887" d="M122.208,23.3c0-2.08-.89-3.918-3.9-3.918a7.106,7.106,0,0,0-3.438.826l.488,1.669a5.072,5.072,0,0,1,2.513-.7c1.524,0,1.774.86,1.774,1.415v.134c-3.328-.005-5.431,1.144-5.431,3.486a2.767,2.767,0,0,0,2.935,2.772,3.36,3.36,0,0,0,2.676-1.185h.056s.379,1.586,2.475.98a13.813,13.813,0,0,1-.146-2.215Zm-2.483,2.2a1.6,1.6,0,0,1-.064.492,1.738,1.738,0,0,1-1.675,1.177,1.136,1.136,0,0,1-1.239-1.217c0-1.26,1.391-1.606,2.978-1.6" transform="translate(-71.261 -12.095)" fill="#574977"/>
      <path id="Path_54888" data-name="Path 54888" d="M0,11.861s2.174,8.893,2.519,10.333c.407,1.684,1.136,2.306,3.239,1.892l1.359-5.514c.343-1.366.577-2.346.8-3.738h.038a36.689,36.689,0,0,0,.657,3.742s.554,2.505.842,3.818,1.068,2.14,3.132,1.692l3.234-12.225H13.208L12.1,17.149c-.294,1.532-.561,2.739-.769,4.143h-.038c-.187-1.389-.425-2.546-.731-4.047l-1.15-5.384H6.687L5.459,17.107c-.35,1.6-.677,2.886-.883,4.246H4.541c-.212-1.276-.5-2.9-.8-4.442,0,0-.729-3.756-.986-5.05" transform="translate(0 -7.4)" fill="#574977"/>
      <path id="Path_54889" data-name="Path 54889" d="M48.14,23.3c0-2.08-.893-3.918-3.9-3.918a7.11,7.11,0,0,0-3.435.826l.488,1.669a5.055,5.055,0,0,1,2.513-.7c1.524,0,1.774.86,1.774,1.415v.134c-3.328-.005-5.434,1.144-5.434,3.486a2.769,2.769,0,0,0,2.93,2.772A3.349,3.349,0,0,0,45.751,27.8h.058s.381,1.586,2.475.98a13.711,13.711,0,0,1-.144-2.215Zm-2.485,2.2a1.672,1.672,0,0,1-.061.492,1.744,1.744,0,0,1-1.679,1.177,1.137,1.137,0,0,1-1.237-1.217c0-1.26,1.391-1.606,2.978-1.6" transform="translate(-25.046 -12.095)" fill="#574977"/>
      <path id="Path_54890" data-name="Path 54890" d="M65.012,11.861V24.081H67.5V11.861Z" transform="translate(-40.563 -7.4)" fill="#574977"/>
      <path id="Path_54891" data-name="Path 54891" d="M155.753,11.861v9.017a3.765,3.765,0,0,0,.736,2.644,2.768,2.768,0,0,0,2.024.77,6.019,6.019,0,0,0,1.8-.266l-.03-1.941a3.98,3.98,0,0,1-.947.11c-.848,0-1.128-.537-1.128-1.655V17.088h2.164V14.753H158.21V11.861" transform="translate(-97.179 -7.4)" fill="#574977"/>
      <path id="Path_54892" data-name="Path 54892" d="M138.675,19.611v9.183h2.569v-4.7a3.47,3.47,0,0,1,.056-.674,1.935,1.935,0,0,1,2.028-1.619,4.3,4.3,0,0,1,.736.069V19.459A2.636,2.636,0,0,0,141,21.346h-.063V19.611" transform="translate(-86.524 -12.108)" fill="#574977"/>
      <path id="Path_54893" data-name="Path 54893" d="M75.456,19.611v9.183h2.5V23.4a2.094,2.094,0,0,1,.117-.745A1.68,1.68,0,0,1,79.6,21.481c1.008,0,1.484.851,1.484,2.078v5.235h2.5V23.339a2.568,2.568,0,0,1,.1-.741,1.566,1.566,0,0,1,1.5-1.118c1.018,0,1.512.832,1.512,2.279v5.033h2.494V23.379c0-2.844-1.447-3.973-3.09-3.973a3.322,3.322,0,0,0-1.814.5,3.933,3.933,0,0,0-1.164,1.14h-.038a2.62,2.62,0,0,0-2.535-1.636,2.887,2.887,0,0,0-2.676,1.448h-.038V19.611" transform="translate(-47.079 -12.108)" fill="#574977"/>
      <path id="Path_54894" data-name="Path 54894" d="M201.39,7.091a.909.909,0,0,0,.958-.586l.487-5.512c0-.546-.643-.993-1.445-.993s-1.445.447-1.445.993l.491,5.512a.9.9,0,0,0,.954.586" transform="translate(-124.752)" fill="#574977"/>
      <path id="Path_54895" data-name="Path 54895" d="M185.194,16.147a.9.9,0,0,0-.033-1.122l-4.543-3.177c-.473-.276-1.18.053-1.585.748a1.286,1.286,0,0,0,.141,1.744l5.03,2.332a.9.9,0,0,0,.99-.53" transform="translate(-111.542 -7.332)" fill="#574977"/>
      <path id="Path_54896" data-name="Path 54896" d="M211.447,16.145a.925.925,0,0,0,.992.536l5.03-2.338c.467-.276.537-1.048.142-1.742s-1.115-1.022-1.587-.751l-4.544,3.174a.927.927,0,0,0-.027,1.126" transform="translate(-131.824 -7.334)" fill="#574977"/>
      <path id="Path_54897" data-name="Path 54897" d="M201.39,37.163a.909.909,0,0,1,.958.586l.487,5.512c0,.546-.643.988-1.445.988s-1.445-.442-1.445-.988l.491-5.512a.9.9,0,0,1,.954-.586" transform="translate(-124.752 -23.187)" fill="#574977"/>
      <path id="Path_54898" data-name="Path 54898" d="M211.447,31.651c.257-.427.678-.656.992-.532l5.03,2.334c.467.27.537,1.049.142,1.744s-1.115,1.018-1.587.748l-4.544-3.178a.913.913,0,0,1-.027-1.116" transform="translate(-131.824 -19.395)" fill="#574977"/>
      <path id="Path_54899" data-name="Path 54899" d="M185.194,31.646a.9.9,0,0,1-.033,1.122l-4.543,3.173c-.473.276-1.18-.054-1.585-.744a1.286,1.286,0,0,1,.141-1.744l5.03-2.334a.9.9,0,0,1,.99.528" transform="translate(-111.542 -19.395)" fill="#574977"/>
      <path id="Path_54900" data-name="Path 54900" d="M230.758,41.576h.063c.085,0,.119.027.129.095a.468.468,0,0,0,.046.147h.162a.294.294,0,0,1-.042-.152.172.172,0,0,0-.12-.144v-.015a.147.147,0,0,0,.129-.141.186.186,0,0,0-.056-.134.438.438,0,0,0-.22-.046,1.018,1.018,0,0,0-.235.023v.609h.143Zm0-.278.073-.01c.086,0,.132.04.132.1s-.062.092-.142.092h-.064Zm.092-.413a.618.618,0,1,0,.629.614.615.615,0,0,0-.629-.614m0,.124a.492.492,0,0,1,0,.984.492.492,0,0,1,0-.984" transform="translate(-143.642 -25.509)" fill="#574977"/>
    </g>
  </g>
</svg>
