<svg xmlns="http://www.w3.org/2000/svg" xmlns:xlink="http://www.w3.org/1999/xlink" width="100%" viewBox="0 0 170.488 109.363"><defs><linearGradient id="linear-gradient" x1="0.5" x2="0.5" y2="1" gradientUnits="objectBoundingBox"><stop offset="0" stop-color="#ef2b70"></stop><stop offset="1" stop-color="#ef2b70" stop-opacity="0"></stop></linearGradient><linearGradient id="linear-gradient-2" x1="0.5" x2="0.5" y2="1" gradientUnits="objectBoundingBox"><stop offset="0" stop-color="#3b2a82"></stop><stop offset="1" stop-color="#3b2a82" stop-opacity="0"></stop></linearGradient><linearGradient id="linear-gradient-3" x1="0.5" x2="0.5" y2="1" gradientUnits="objectBoundingBox"><stop offset="0" stop-color="#cbb3bf"></stop><stop offset="1" stop-color="#cbb3bf" stop-opacity="0"></stop></linearGradient></defs><g id="Group_33637" data-name="Group 33637" transform="translate(-1829.762 -242.122)"><g id="Group_22497" data-name="Group 22497" transform="translate(1830 242.607)"><g id="Group_11034" data-name="Group 11034" transform="translate(0 0)"><path id="Path_2868" data-name="Path 2868" d="M-18058.77,139.838s8.705,4.51,14.109,4.332c11.826-.391,15.688-12.286,33.4-15.357s31.949-12.05,43.861-11.5,24.4,22.524,37.18,22.524,27.59-9.214,31.947-11.026a26.533,26.533,0,0,1,9-1.811v40.2h-169.873Z" transform="translate(18059.264 -117.161)" opacity="0.2" fill="url(#linear-gradient)"></path><path id="Path_2869" data-name="Path 2869" d="M-18059.252,139.627c5.1,2.75,10.041,4.767,14.756,4.682,7.828-.141,17.012-9.791,24.424-12.735s11.8-2.745,21.5-5.716,23.383-9.2,31.316-8.518,10.752,5.122,19.314,12.112,11.795,10.442,19,10.471,17.637-4.386,25.885-8.716,13.678-4.132,13.678-4.132" transform="translate(18059.252 -117.289)" fill="none" stroke="#ef2b70" stroke-width="1"></path></g></g><g id="Group_22497-2" data-name="Group 22497" transform="translate(1830 276.625)"><g id="Group_11034-2" data-name="Group 11034" transform="translate(0 0)"><path id="Path_2868-2" data-name="Path 2868" d="M-18257.758,126.134s4.627.709,15.908-2.914,21.982-8.821,34.131-3.465,24.3,12.286,34.709,6.379,19.955-20.24,30.949-18.193,25.451,36.858,37.021,35.755c4.117-.393,17.281-7.9,17.281-7.9v21.4h-170Z" transform="translate(18257.758 -107.715)" opacity="0.2" fill="url(#linear-gradient-2)"></path><path id="Path_2869-2" data-name="Path 2869" d="M-18257.758,126.311s7.357-.028,12.969-2.122,17.465-6.792,27.34-6.65,24.324,11.32,34.717,10.952,13-4.132,20.273-10.273,12.992-10.7,18.918-10.357,13.1,9.31,14.656,11.942,12.783,16.979,15.488,20.036,8.107,5.915,16.01,1.67c3.174-1.706,5.428-2.808,9.629-5.244" transform="translate(18257.758 -107.842)" fill="none" stroke="#170c45" stroke-width="1"></path></g></g><g id="Group_22495" data-name="Group 22495" transform="translate(1830 311.795)"><g id="Group_11034-3" data-name="Group 11034" transform="translate(0 0)"><path id="Path_2868-3" data-name="Path 2868" d="M-17890.1,124.26s-4.621.637-15.889-2.617-21.955-7.922-34.088-3.112-24.268,11.034-34.664,5.729-19.932-18.178-30.912-16.339-25.42,33.1-36.979,32.112c-4.887-.419-17.307-6.762-17.307-6.762l-.162,14.161h170Z" transform="translate(18060.096 -107.743)" opacity="0.5" fill="url(#linear-gradient-3)"></path><path id="Path_2869-3" data-name="Path 2869" d="M-17890.234,124.429a48.884,48.884,0,0,1-12.955-1.906c-5.605-1.881-17.441-6.1-27.3-5.973s-24.295,10.166-34.678,9.836-12.973-3.711-20.244-9.226-12.977-9.607-18.895-9.3-13.084,8.362-14.639,10.725-12.77,15.249-15.469,17.994-8.1,5.312-15.99,1.5c-2.691-1.3-5.9-3.011-9.51-4.907" transform="translate(18060.234 -107.842)" fill="none" stroke="#cbb3bf" stroke-width="1"></path></g></g></g></svg>