<svg xmlns="http://www.w3.org/2000/svg" xmlns:xlink="http://www.w3.org/1999/xlink" width="100%" viewBox="0 0 170.576 91.75"><defs><linearGradient id="linear-gradient" x1="0.5" y1="0.102" x2="0.5" y2="0.979" gradientUnits="objectBoundingBox"><stop offset="0" stop-color="#ff3067"></stop><stop offset="1" stop-color="#ff3067" stop-opacity="0"></stop></linearGradient></defs><g id="Group_33633" data-name="Group 33633" transform="translate(-9.943 -0.5)"><g id="Group_33962" data-name="Group 33962"><path id="Path_27758" data-name="Path 27758" d="M2578.264-23009.307s14.979-1.141,21.306-10.1,11.135-14.107,23.041-14.5,15.008-12.469,24.958-12.334,13.588,13.34,24.268,16.322,23.408-6.348,34.208,6.156,42.682,10.113,42.682,10.113v47.207H2578.264Z" transform="translate(-2568.264 23058.695)" opacity="0.25" fill="url(#linear-gradient)"></path><g id="Group_18990" data-name="Group 18990" transform="translate(10 12.449)"><g id="Group_18991" data-name="Group 18991"><path id="Path_27760" data-name="Path 27760" d="M.034,37.44S15.013,36.3,21.34,27.335s11.135-14.106,23.041-14.5S59.39.366,69.339.5,82.928,13.841,93.607,16.825s23.408-6.349,34.208,6.156S170.5,33.095,170.5,33.095" transform="translate(-0.034 -0.499)" fill="none" stroke="#ef2b70" stroke-width="1.5"></path></g></g><line id="Line_238" data-name="Line 238" y1="86" transform="translate(79.188 1)" fill="none" stroke="#170c45" stroke-linecap="round" stroke-width="1" stroke-dasharray="5"></line><g id="Path_29226" data-name="Path 29226" transform="translate(74.582 8.199)" fill="#170c45"><path d="M 4.359893798828125 8.15296459197998 C 2.231543779373169 8.15296459197998 0.5000038146972656 6.43641471862793 0.5000038146972656 4.326484680175781 C 0.5000038146972656 2.216554641723633 2.231543779373169 0.5000047087669373 4.359893798828125 0.5000047087669373 C 6.488243579864502 0.5000047087669373 8.219783782958984 2.216554641723633 8.219783782958984 4.326484680175781 C 8.219783782958984 6.43641471862793 6.488243579864502 8.15296459197998 4.359893798828125 8.15296459197998 Z" stroke="none"></path><path d="M 4.359893798828125 1.000004768371582 C 2.507243633270264 1.000004768371582 1.000003814697266 2.492254734039307 1.000003814697266 4.326484680175781 C 1.000003814697266 6.160714626312256 2.507243633270264 7.65296459197998 4.359893798828125 7.65296459197998 C 6.212543487548828 7.65296459197998 7.719783782958984 6.160714626312256 7.719783782958984 4.326484680175781 C 7.719783782958984 2.492254734039307 6.212543487548828 1.000004768371582 4.359893798828125 1.000004768371582 M 4.359893798828125 4.76837158203125e-06 C 6.767793655395508 4.76837158203125e-06 8.719783782958984 1.937034606933594 8.719783782958984 4.326484680175781 C 8.719783782958984 6.715934753417969 6.767793655395508 8.65296459197998 4.359893798828125 8.65296459197998 C 1.951993942260742 8.65296459197998 3.814697265625e-06 6.715934753417969 3.814697265625e-06 4.326484680175781 C 3.814697265625e-06 1.937034606933594 1.951993942260742 4.76837158203125e-06 4.359893798828125 4.76837158203125e-06 Z" stroke="none" fill="#fff"></path></g></g></g></svg>