<svg xmlns="http://www.w3.org/2000/svg" width="100%" viewBox="0 0 183.329 159.101" class="numbers-inside-graph is-2"><g id="Group_29571" data-name="Group 29571" transform="translate(-13.153 -12.514)"><g id="Group_29570" data-name="Group 29570"><g id="Group_18985" data-name="Group 18985" transform="translate(27.928 26.14)"><path id="Path_57086" data-name="Path 57086" d="M2.705-6.992A2.066,2.066,0,0,1,4.668-5.874a5,5,0,0,1,.469,2.368,5.7,5.7,0,0,1-.425,2.358A2.08,2.08,0,0,1,2.7.19,2.014,2.014,0,0,1,.825-.9,5.008,5.008,0,0,1,.313-3.354,6.056,6.056,0,0,1,.62-5.4,2.105,2.105,0,0,1,2.705-6.992ZM2.7-.61a1.251,1.251,0,0,0,1.089-.605,4.384,4.384,0,0,0,.405-2.256A5.573,5.573,0,0,0,3.9-5.432,1.115,1.115,0,0,0,2.759-6.2a1.189,1.189,0,0,0-1.135.73A5.041,5.041,0,0,0,1.265-3.32,5.282,5.282,0,0,0,1.494-1.6,1.251,1.251,0,0,0,2.7-.61ZM12.378-3.4a1.637,1.637,0,0,1,1.2.5,1.637,1.637,0,0,1,.5,1.2,1.637,1.637,0,0,1-.5,1.2,1.637,1.637,0,0,1-1.2.5,1.643,1.643,0,0,1-1.206-.5,1.637,1.637,0,0,1-.5-1.2,1.637,1.637,0,0,1,.5-1.2A1.643,1.643,0,0,1,12.378-3.4ZM11.67-6.963h.542L8.3.186H7.759ZM7.583-4.072a.974.974,0,0,0,.715-.3.969.969,0,0,0,.3-.71.969.969,0,0,0-.3-.71.974.974,0,0,0-.715-.3.973.973,0,0,0-.71.293.966.966,0,0,0-.3.713.969.969,0,0,0,.3.71A.969.969,0,0,0,7.583-4.072Zm0-2.71a1.639,1.639,0,0,1,1.206.5,1.645,1.645,0,0,1,.5,1.2,1.637,1.637,0,0,1-.5,1.2,1.643,1.643,0,0,1-1.206.5,1.637,1.637,0,0,1-1.2-.5,1.637,1.637,0,0,1-.5-1.2,1.645,1.645,0,0,1,.5-1.2A1.633,1.633,0,0,1,7.583-6.782ZM12.378-.693a.969.969,0,0,0,.71-.3.969.969,0,0,0,.3-.71.969.969,0,0,0-.3-.71.969.969,0,0,0-.71-.3.974.974,0,0,0-.715.3.969.969,0,0,0-.3.71.969.969,0,0,0,.3.71A.974.974,0,0,0,12.378-.693Z" transform="translate(20.151 139.158)" fill="#574977"></path><path id="Path_57085" data-name="Path 57085" d="M-24.619-4.951v-.674a3.58,3.58,0,0,0,1.328-.31,1.528,1.528,0,0,0,.562-1.028h.693V0h-.937V-4.951Zm7.31-2.041a2.066,2.066,0,0,1,1.963,1.118,5,5,0,0,1,.469,2.368A5.7,5.7,0,0,1-15.3-1.147,2.08,2.08,0,0,1-17.314.19,2.014,2.014,0,0,1-19.189-.9,5.008,5.008,0,0,1-19.7-3.354,6.056,6.056,0,0,1-19.395-5.4,2.105,2.105,0,0,1-17.31-6.992Zm-.01,6.382a1.251,1.251,0,0,0,1.089-.605,4.384,4.384,0,0,0,.405-2.256,5.573,5.573,0,0,0-.293-1.96A1.115,1.115,0,0,0-17.256-6.2a1.189,1.189,0,0,0-1.135.73A5.041,5.041,0,0,0-18.75-3.32,5.282,5.282,0,0,0-18.521-1.6,1.251,1.251,0,0,0-17.319-.61Zm5.571-6.382A2.066,2.066,0,0,1-9.785-5.874a5,5,0,0,1,.469,2.368,5.7,5.7,0,0,1-.425,2.358A2.08,2.08,0,0,1-11.753.19,2.014,2.014,0,0,1-13.628-.9a5.008,5.008,0,0,1-.513-2.451A6.056,6.056,0,0,1-13.833-5.4,2.105,2.105,0,0,1-11.748-6.992Zm-.01,6.382a1.251,1.251,0,0,0,1.089-.605,4.384,4.384,0,0,0,.405-2.256,5.573,5.573,0,0,0-.293-1.96A1.115,1.115,0,0,0-11.694-6.2a1.189,1.189,0,0,0-1.135.73,5.041,5.041,0,0,0-.359,2.151A5.282,5.282,0,0,0-12.959-1.6,1.251,1.251,0,0,0-11.758-.61ZM-2.075-3.4a1.637,1.637,0,0,1,1.2.5,1.637,1.637,0,0,1,.5,1.2,1.637,1.637,0,0,1-.5,1.2,1.637,1.637,0,0,1-1.2.5A1.643,1.643,0,0,1-3.281-.5a1.637,1.637,0,0,1-.5-1.2,1.637,1.637,0,0,1,.5-1.2A1.643,1.643,0,0,1-2.075-3.4Zm-.708-3.564h.542L-6.152.186h-.542ZM-6.87-4.072a.974.974,0,0,0,.715-.3.969.969,0,0,0,.3-.71.969.969,0,0,0-.3-.71.974.974,0,0,0-.715-.3.973.973,0,0,0-.71.293.966.966,0,0,0-.3.713.969.969,0,0,0,.3.71A.969.969,0,0,0-6.87-4.072Zm0-2.71a1.639,1.639,0,0,1,1.206.5,1.645,1.645,0,0,1,.5,1.2,1.637,1.637,0,0,1-.5,1.2,1.643,1.643,0,0,1-1.206.5,1.637,1.637,0,0,1-1.2-.5,1.637,1.637,0,0,1-.5-1.2,1.645,1.645,0,0,1,.5-1.2A1.633,1.633,0,0,1-6.87-6.782ZM-2.075-.693a.969.969,0,0,0,.71-.3.969.969,0,0,0,.3-.71.969.969,0,0,0-.3-.71.969.969,0,0,0-.71-.3.974.974,0,0,0-.715.3.969.969,0,0,0-.3.71.969.969,0,0,0,.3.71A.974.974,0,0,0-2.075-.693Z" transform="translate(130.862 139.158)" fill="#574977"></path><path id="Path_57088" data-name="Path 57088" d="M-8.772-1.782a1.218,1.218,0,0,0,.7,1.04A1.685,1.685,0,0,0-7.351-.6a1.357,1.357,0,0,0,1.157-.5,1.789,1.789,0,0,0,.376-1.1A1.442,1.442,0,0,0-6.265-3.33a1.551,1.551,0,0,0-1.072-.4,1.614,1.614,0,0,0-.779.176,1.668,1.668,0,0,0-.554.488l-.762-.044L-8.9-6.875h3.633v.85H-8.24l-.3,1.943a2.184,2.184,0,0,1,.464-.278,2.355,2.355,0,0,1,.9-.161A2.311,2.311,0,0,1-5.54-3.9a2.051,2.051,0,0,1,.669,1.572A2.7,2.7,0,0,1-5.483-.581,2.37,2.37,0,0,1-7.439.176,2.491,2.491,0,0,1-8.95-.305a1.908,1.908,0,0,1-.735-1.477Zm7.031-5.21A2.066,2.066,0,0,1,.222-5.874,5,5,0,0,1,.691-3.506,5.7,5.7,0,0,1,.266-1.147,2.08,2.08,0,0,1-1.746.19,2.014,2.014,0,0,1-3.621-.9a5.008,5.008,0,0,1-.513-2.451A6.056,6.056,0,0,1-3.826-5.4,2.105,2.105,0,0,1-1.741-6.992ZM-1.75-.61A1.251,1.251,0,0,0-.662-1.216,4.384,4.384,0,0,0-.256-3.472a5.573,5.573,0,0,0-.293-1.96A1.115,1.115,0,0,0-1.687-6.2a1.189,1.189,0,0,0-1.135.73A5.041,5.041,0,0,0-3.181-3.32,5.282,5.282,0,0,0-2.952-1.6,1.251,1.251,0,0,0-1.75-.61ZM7.932-3.4a1.637,1.637,0,0,1,1.2.5,1.637,1.637,0,0,1,.5,1.2,1.637,1.637,0,0,1-.5,1.2,1.637,1.637,0,0,1-1.2.5A1.643,1.643,0,0,1,6.726-.5a1.637,1.637,0,0,1-.5-1.2,1.637,1.637,0,0,1,.5-1.2A1.643,1.643,0,0,1,7.932-3.4ZM7.224-6.963h.542L3.855.186H3.313ZM3.137-4.072a.974.974,0,0,0,.715-.3.969.969,0,0,0,.3-.71.969.969,0,0,0-.3-.71.974.974,0,0,0-.715-.3.973.973,0,0,0-.71.293.966.966,0,0,0-.3.713.969.969,0,0,0,.3.71A.969.969,0,0,0,3.137-4.072Zm0-2.71a1.639,1.639,0,0,1,1.206.5,1.645,1.645,0,0,1,.5,1.2,1.637,1.637,0,0,1-.5,1.2,1.643,1.643,0,0,1-1.206.5,1.637,1.637,0,0,1-1.2-.5,1.637,1.637,0,0,1-.5-1.2,1.645,1.645,0,0,1,.5-1.2A1.633,1.633,0,0,1,3.137-6.782ZM7.932-.693a.969.969,0,0,0,.71-.3.969.969,0,0,0,.3-.71.969.969,0,0,0-.3-.71.969.969,0,0,0-.71-.3.974.974,0,0,0-.715.3.969.969,0,0,0-.3.71.969.969,0,0,0,.3.71A.974.974,0,0,0,7.932-.693Z" transform="translate(78.944 11)" fill="#574977"></path><path id="Path_57087" data-name="Path 57087" d="M.313,0A4.078,4.078,0,0,1,.686-1.572,3.024,3.024,0,0,1,1.953-2.788l.938-.542a4.414,4.414,0,0,0,.884-.625,1.284,1.284,0,0,0,.4-.928,1.3,1.3,0,0,0-.366-.969,1.335,1.335,0,0,0-.977-.359,1.276,1.276,0,0,0-1.25.684,2.447,2.447,0,0,0-.205,1.016H.483A3.138,3.138,0,0,1,.82-6,2.115,2.115,0,0,1,2.837-7.017a2.186,2.186,0,0,1,1.755.649,2.173,2.173,0,0,1,.554,1.445,1.965,1.965,0,0,1-.591,1.436,5.784,5.784,0,0,1-1.226.84l-.669.371a4.333,4.333,0,0,0-.752.5,1.832,1.832,0,0,0-.615.942H5.112V0ZM6.8-1.782a1.218,1.218,0,0,0,.7,1.04A1.685,1.685,0,0,0,8.218-.6a1.357,1.357,0,0,0,1.157-.5,1.789,1.789,0,0,0,.376-1.1A1.442,1.442,0,0,0,9.3-3.33a1.551,1.551,0,0,0-1.072-.4,1.614,1.614,0,0,0-.779.176,1.668,1.668,0,0,0-.554.488L6.138-3.11,6.67-6.875H10.3v.85H7.329l-.3,1.943A2.184,2.184,0,0,1,7.5-4.36a2.355,2.355,0,0,1,.9-.161,2.311,2.311,0,0,1,1.631.62A2.051,2.051,0,0,1,10.7-2.329a2.7,2.7,0,0,1-.613,1.748A2.37,2.37,0,0,1,8.13.176,2.491,2.491,0,0,1,6.619-.305a1.908,1.908,0,0,1-.735-1.477ZM17.939-3.4a1.637,1.637,0,0,1,1.2.5,1.637,1.637,0,0,1,.5,1.2,1.637,1.637,0,0,1-.5,1.2,1.637,1.637,0,0,1-1.2.5,1.643,1.643,0,0,1-1.206-.5,1.637,1.637,0,0,1-.5-1.2,1.637,1.637,0,0,1,.5-1.2A1.643,1.643,0,0,1,17.939-3.4Zm-.708-3.564h.542L13.862.186H13.32ZM13.145-4.072a.974.974,0,0,0,.715-.3.969.969,0,0,0,.3-.71.969.969,0,0,0-.3-.71.974.974,0,0,0-.715-.3.973.973,0,0,0-.71.293.966.966,0,0,0-.3.713.969.969,0,0,0,.3.71A.969.969,0,0,0,13.145-4.072Zm0-2.71a1.639,1.639,0,0,1,1.206.5,1.645,1.645,0,0,1,.5,1.2,1.637,1.637,0,0,1-.5,1.2,1.643,1.643,0,0,1-1.206.5,1.637,1.637,0,0,1-1.2-.5,1.637,1.637,0,0,1-.5-1.2,1.645,1.645,0,0,1,.5-1.2A1.633,1.633,0,0,1,13.145-6.782ZM17.939-.693a.969.969,0,0,0,.71-.3.969.969,0,0,0,.3-.71.969.969,0,0,0-.3-.71.969.969,0,0,0-.71-.3.974.974,0,0,0-.715.3.969.969,0,0,0-.3.71.969.969,0,0,0,.3.71A.974.974,0,0,0,17.939-.693Z" transform="translate(0 68.228)" fill="#574977"></path><path id="Path_57089" data-name="Path 57089" d="M-14.785-6.875v.767a8.167,8.167,0,0,0-.9,1.138,11.536,11.536,0,0,0-.989,1.748,11.946,11.946,0,0,0-.645,1.665q-.142.483-.366,1.558h-.972a11.966,11.966,0,0,1,1.465-3.984,12.613,12.613,0,0,1,1.406-2.007h-3.867v-.884Zm1.567,5.093a1.218,1.218,0,0,0,.7,1.04A1.685,1.685,0,0,0-11.8-.6a1.357,1.357,0,0,0,1.157-.5,1.789,1.789,0,0,0,.376-1.1A1.442,1.442,0,0,0-10.71-3.33a1.551,1.551,0,0,0-1.072-.4,1.614,1.614,0,0,0-.779.176,1.668,1.668,0,0,0-.554.488l-.762-.044.532-3.765h3.633v.85h-2.974l-.3,1.943a2.184,2.184,0,0,1,.464-.278,2.355,2.355,0,0,1,.9-.161,2.311,2.311,0,0,1,1.631.62,2.051,2.051,0,0,1,.669,1.572A2.7,2.7,0,0,1-9.929-.581a2.37,2.37,0,0,1-1.956.757A2.491,2.491,0,0,1-13.4-.305a1.908,1.908,0,0,1-.735-1.477ZM-2.075-3.4a1.637,1.637,0,0,1,1.2.5,1.637,1.637,0,0,1,.5,1.2,1.637,1.637,0,0,1-.5,1.2,1.637,1.637,0,0,1-1.2.5A1.643,1.643,0,0,1-3.281-.5a1.637,1.637,0,0,1-.5-1.2,1.637,1.637,0,0,1,.5-1.2A1.643,1.643,0,0,1-2.075-3.4Zm-.708-3.564h.542L-6.152.186h-.542ZM-6.87-4.072a.974.974,0,0,0,.715-.3.969.969,0,0,0,.3-.71.969.969,0,0,0-.3-.71.974.974,0,0,0-.715-.3.973.973,0,0,0-.71.293.966.966,0,0,0-.3.713.969.969,0,0,0,.3.71A.969.969,0,0,0-6.87-4.072Zm0-2.71a1.639,1.639,0,0,1,1.206.5,1.645,1.645,0,0,1,.5,1.2,1.637,1.637,0,0,1-.5,1.2,1.643,1.643,0,0,1-1.206.5,1.637,1.637,0,0,1-1.2-.5,1.637,1.637,0,0,1-.5-1.2,1.645,1.645,0,0,1,.5-1.2A1.633,1.633,0,0,1-6.87-6.782ZM-2.075-.693a.969.969,0,0,0,.71-.3.969.969,0,0,0,.3-.71.969.969,0,0,0-.3-.71.969.969,0,0,0-.71-.3.974.974,0,0,0-.715.3.969.969,0,0,0-.3.71.969.969,0,0,0,.3.71A.974.974,0,0,0-2.075-.693Z" transform="translate(151.056 68.228)" fill="#574977"></path></g><path id="Path_29167" data-name="Path 29167" d="M1928.067,430.231a91.164,91.164,0,1,1,124.937.382" transform="translate(-1885.921 -259.705)" fill="none" stroke="#f8cdde" stroke-linecap="round" stroke-miterlimit="10" stroke-width="1" opacity="0.5"></path></g><line id="Line_324" data-name="Line 324" x1="3.443" y1="3.443" transform="translate(165.545 165.232)" fill="none" stroke="#f8cdde" stroke-linecap="round" stroke-miterlimit="10" stroke-width="2"></line><path id="Path_29193" data-name="Path 29193" d="M2.4,104.79h.014l4.8.843h.007" transform="translate(12.789 -16.163)" fill="none" stroke="#f8cdde" stroke-linecap="round" stroke-miterlimit="10" stroke-width="2"></path><path id="Path_29200" data-name="Path 29200" d="M244.34,105.633l4.8-.843h.007" transform="translate(-54.897 -16.163)" fill="none" stroke="#f8cdde" stroke-linecap="round" stroke-miterlimit="10" stroke-width="2"></path><path id="Path_29211" data-name="Path 29211" d="M37.48,214.6l.007-.007,3.443-3.443" transform="translate(2.975 -45.918)" fill="none" stroke="#f8cdde" stroke-linecap="round" stroke-miterlimit="10" stroke-width="2"></path><path id="Path_29222" data-name="Path 29222" d="M126.72,9.056V.5" transform="translate(-21.992 13.014)" fill="none" stroke="#f8cdde" stroke-linecap="round" stroke-miterlimit="10" stroke-width="2"></path></g></svg>