<svg xmlns="http://www.w3.org/2000/svg" width="100%" viewBox="0 0 15.008 13.908" class="nav-dropdown-icon"><g id="Group_32201" data-name="Group 32201" transform="translate(20393 23539.455)"><path id="Path_56950" data-name="Path 56950" d="M15.018,443.5v0a7.358,7.358,0,0,0-5.135-4.567,7.518,7.518,0,0,0-9.345,8.022,7.874,7.874,0,0,0,2.935,5.226,1.845,1.845,0,0,0,.607.336,1.817,1.817,0,0,0,2.278-1.166L6.468,451l.371-.027H9.52l.113.342a1.89,1.89,0,0,0,.341.635,1.8,1.8,0,0,0,1.225.647,1.826,1.826,0,0,0,1.323-.41l.261-.216a7.536,7.536,0,0,0,2.235-8.472M11.8,450.788l-.571.473-.416-1.311a.729.729,0,0,0-.7-.51H5.89a.727.727,0,0,0-.694.509l-.432,1.306-.564-.467a5.96,5.96,0,1,1,7.6,0" transform="translate(-20393.5 -23978.152)" fill="currentColor"></path><path id="Path_56951" data-name="Path 56951" d="M8.21,442.6a.216.216,0,0,0-.26-.16.22.22,0,0,0-.16.16l-.658,2.718a1.22,1.22,0,0,0-.421.936,1.294,1.294,0,0,0,2.576.259,1.246,1.246,0,0,0,0-.259,1.22,1.22,0,0,0-.421-.936Z" transform="translate(-20393.5 -23978.152)" fill="currentColor"></path></g></svg>